<svg width="105" height="61" viewBox="0 0 105 61" fill="none" xmlns="http://www.w3.org/2000/svg">
<path d="M14.2056 60.8548C13.6666 60.8535 13.138 60.707 12.6752 60.4308C12.2124 60.1545 11.8325 59.7587 11.5756 59.2848L11.0056 58.2848C10.6402 57.6024 10.5526 56.8051 10.7614 56.0596C10.9701 55.3142 11.4589 54.6783 12.1256 54.2848L12.7256 53.9348C11.8052 51.4193 10.678 48.9843 9.35563 46.6548L9.26563 46.4848L9.19563 46.3748C9.02563 46.0748 8.85563 45.8048 8.68563 45.5448C8.54751 45.3223 8.43671 45.0839 8.35563 44.8348C8.16617 44.6698 7.99819 44.4817 7.85563 44.2748L7.21563 43.4048L3.73563 43.5648C3.17311 43.5895 2.61501 43.4553 2.12516 43.1776C1.63531 42.9 1.23349 42.4901 0.965632 41.9948L0.38563 40.9148C0.0095402 40.2466 -0.0963965 39.4597 0.0895792 38.7158C0.275555 37.9719 0.739324 37.3275 1.38563 36.9148L57.7656 0.474838C58.2979 0.133448 58.9243 -0.0310493 59.5556 0.00483712L94.0056 1.85484C94.5248 1.88235 95.0279 2.04432 95.4656 2.32484C98.078 4.17894 100.235 6.60248 101.773 9.4124C103.312 12.2223 104.191 15.3451 104.346 18.5448C104.371 19.1339 104.223 19.7174 103.919 20.2225C103.614 20.7276 103.168 21.1319 102.636 21.3848L101.706 21.8248L102.546 22.8248C102.873 23.2118 103.097 23.6754 103.197 24.1724C103.297 24.6694 103.269 25.1836 103.116 25.667C102.963 26.1503 102.69 26.5871 102.323 26.9364C101.956 27.2858 101.506 27.5364 101.016 27.6648L94.1056 29.4648C93.6351 29.5882 93.1417 29.5953 92.6679 29.4855C92.194 29.3758 91.754 29.1525 91.3856 28.8348C90.8855 28.3769 90.424 27.8785 90.0056 27.3448L43.9256 49.1648L43.7556 49.2348L15.3256 60.6348C14.9706 60.7816 14.5899 60.8564 14.2056 60.8548V60.8548ZM15.5256 45.3748C16.7568 47.7774 17.8258 50.2596 18.7256 52.8048L41.4456 43.6948L81.9256 24.5548C81.2838 24.5483 80.6579 24.3536 80.1256 23.9948C79.9049 24.3479 79.6131 24.6512 79.2688 24.8853C78.9244 25.1195 78.5351 25.2794 78.1256 25.3548L70.3056 26.8848C69.6405 27.0166 68.9504 26.9192 68.3477 26.6085C67.7451 26.2977 67.2655 25.792 66.9871 25.1738C66.7087 24.5555 66.648 23.8612 66.8148 23.204C66.9816 22.5468 67.3661 21.9655 67.9056 21.5548C68.3078 21.2256 68.7916 21.0114 69.3056 20.9348H69.4456L76.9656 19.4648C77.3682 19.386 77.7827 19.3906 78.1835 19.4783C78.5842 19.5661 78.9628 19.735 79.2956 19.9748C79.5174 19.6236 79.8096 19.3223 80.1539 19.0899C80.4982 18.8575 80.887 18.6991 81.2956 18.6248L88.4856 17.2248C89.2029 17.083 89.9472 17.2079 90.5788 17.5762C91.2104 17.9445 91.6858 18.5308 91.9156 19.2248C92.0754 19.7189 92.1063 20.2455 92.0056 20.7548C92.6296 20.9732 93.1639 21.3915 93.5256 21.9448C93.8556 22.4548 94.1556 22.8648 94.4056 23.2048L95.0756 23.0348L94.6656 22.4748C94.4273 22.1489 94.2572 21.7781 94.1656 21.3848C93.9783 21.2713 93.8068 21.1334 93.6556 20.9748C93.2725 20.5903 93.0008 20.109 92.8696 19.5823C92.7384 19.0555 92.7526 18.5031 92.9106 17.9837C93.0687 17.4644 93.3647 16.9977 93.7671 16.6334C94.1695 16.269 94.6632 16.0207 95.1956 15.9148L97.0556 15.5448C97.0983 15.0953 97.2418 14.6612 97.4756 14.2748C96.524 11.7428 94.9156 9.50974 92.8156 7.80484L60.2156 6.08484L10.6056 38.0848L10.7556 38.2448C11.0756 38.5948 11.4056 38.9748 11.7556 39.3948L13.5556 39.2748C14.1899 39.2454 14.8173 39.4179 15.3473 39.7677C15.8773 40.1174 16.2826 40.6263 16.505 41.2211C16.7273 41.8159 16.7552 42.4659 16.5846 43.0776C16.414 43.6892 16.0537 44.231 15.5556 44.6248C15.5771 44.8751 15.567 45.1271 15.5256 45.3748V45.3748Z" fill="white"/>
<path fill-rule="evenodd" clip-rule="evenodd" d="M3.60559 40.5048L25.6056 39.5048L92.9856 6.93484C92.9856 6.93484 96.7956 8.30484 99.2956 18.1148L100.296 17.9248C100.296 17.9248 99.9356 8.35484 93.6656 5.58484L59.6156 3.71484L3.60559 40.5048Z" fill="#B32742"/>
<path fill-rule="evenodd" clip-rule="evenodd" d="M3.02563 39.4249L59.3956 2.98486L60.0656 4.31487L3.60564 40.5049L3.02563 39.4249Z" fill="#E55947"/>
<path fill-rule="evenodd" clip-rule="evenodd" d="M93.0056 6.97461L60.7056 6.22461C60.7056 6.22461 66.4556 12.2246 69.7956 23.9046L99.3156 18.1546C99.3156 18.1546 97.9256 8.38461 93.0056 6.97461Z" fill="#EEE1E9"/>
<path fill-rule="evenodd" clip-rule="evenodd" d="M7.92566 39.6948C8.80989 40.5359 9.59499 41.4753 10.2657 42.4948L13.6857 42.2748L11.1657 43.8648C11.3557 44.1548 11.5357 44.4548 11.7257 44.7848H12.5457L11.9257 45.0848C13.7349 48.3061 15.2189 51.6995 16.3557 55.2148L69.7657 23.8948C69.7657 23.8948 67.6457 12.0448 60.6757 6.21484L7.92566 39.6948Z" fill="#8C6FA4"/>
<path fill-rule="evenodd" clip-rule="evenodd" d="M59.3956 2.98486L93.8556 4.84486C96.0641 6.43661 97.8853 8.50577 99.1838 10.8984C100.482 13.2911 101.225 15.9457 101.356 18.6649L70.2356 25.6649L69.3556 24.0549L100.276 18.0049C100.15 15.5862 99.4898 13.2254 98.3435 11.0919C97.1972 8.95836 95.5929 7.10503 93.6456 5.66487L60.0656 4.35487L59.3956 2.98486Z" fill="url(#paint0_linear_10_1265)"/>
<path fill-rule="evenodd" clip-rule="evenodd" d="M69.3556 24.0146L13.6456 56.8147L14.2056 57.8547L70.2356 25.6246L69.3556 24.0146Z" fill="#E55947"/>
<path fill-rule="evenodd" clip-rule="evenodd" d="M14.2056 57.855L42.6456 46.445L101.356 18.665L70.2356 25.625L14.2056 57.855Z" fill="#B32742"/>
<path fill-rule="evenodd" clip-rule="evenodd" d="M63.6656 9.37489L91.0155 9.2749L64.2655 10.2249L13.7355 42.2749L10.3156 42.4949L63.6656 9.37489Z" fill="#745090"/>
<path fill-rule="evenodd" clip-rule="evenodd" d="M65.2056 11.675L86.7956 10.645L65.3456 11.915L12.5956 44.765L11.7756 44.775L65.2056 11.675Z" fill="#745090"/>
<g style="mix-blend-mode:multiply" opacity="0.8">
<path fill-rule="evenodd" clip-rule="evenodd" d="M99.3156 18.1546L97.7156 18.4646C97.7156 18.4646 97.4156 10.3346 92.6156 7.5146L61.6156 7.04462L60.7156 6.22461L93.0156 6.97461C93.0156 6.97461 97.5556 7.08462 99.3156 18.1546Z" fill="#9A4F8B"/>
</g>
<g style="mix-blend-mode:multiply" opacity="0.8">
<path fill-rule="evenodd" clip-rule="evenodd" d="M87.7756 24.7046L68.0456 29.4746L60.0756 33.7746L80.0256 28.1546L87.7756 24.7046Z" fill="#B02463"/>
</g>
<path fill-rule="evenodd" clip-rule="evenodd" d="M93.0056 6.97461C93.0056 6.97461 97.3956 8.04462 99.3156 18.1546C99.3156 18.1546 98.7956 8.55461 93.0056 6.97461Z" fill="#5C326C"/>
<path fill-rule="evenodd" clip-rule="evenodd" d="M74.1356 11.395C74.1356 11.395 76.3256 8.525 78.5556 7.925L80.2056 7.875L83.5656 8.13501C83.5656 8.13501 79.5656 9.31501 78.0556 11.135L74.1356 11.395Z" fill="url(#paint1_linear_10_1265)"/>
<path fill-rule="evenodd" clip-rule="evenodd" d="M78.5557 7.92514C78.5557 7.92514 83.6657 6.98514 87.1857 15.9251C90.3057 23.9251 93.3557 26.5251 93.3557 26.5251L100.266 24.7251C91.8157 14.7251 92.1057 9.66514 83.5657 8.09514C81.9044 7.88449 80.2273 7.82758 78.5557 7.92514Z" fill="url(#paint2_linear_10_1265)"/>
<g style="mix-blend-mode:multiply" opacity="0.8">
<path fill-rule="evenodd" clip-rule="evenodd" d="M74.1356 11.395L77.5556 22.405L80.4156 21.845L81.1956 23.175L85.2256 22.275L84.8256 20.985L81.8456 21.555L78.0556 11.165L74.1356 11.395Z" fill="#9A4F8B"/>
</g>
<path fill-rule="evenodd" clip-rule="evenodd" d="M34.1356 12.2946C34.1564 12.529 34.1073 12.7644 33.9943 12.9709C33.8814 13.1775 33.7097 13.3459 33.5011 13.4548C33.2924 13.5638 33.0561 13.6084 32.8221 13.583C32.5881 13.5577 32.3668 13.4635 32.1863 13.3124C32.0059 13.1613 31.8742 12.9601 31.8081 12.7341C31.742 12.5082 31.7444 12.2678 31.815 12.0432C31.8855 11.8186 32.0211 11.6201 32.2046 11.4726C32.388 11.3251 32.6111 11.2353 32.8456 11.2146C33.1598 11.1868 33.4723 11.285 33.7142 11.4875C33.9561 11.69 34.1076 11.9803 34.1356 12.2946V12.2946Z" fill="white"/>
<path style="mix-blend-mode:screen" opacity="0.61" fill-rule="evenodd" clip-rule="evenodd" d="M37.7256 11.9749C37.8108 12.9185 37.6143 13.8661 37.1609 14.698C36.7074 15.5299 36.0175 16.2086 35.1783 16.6484C34.3391 17.0881 33.3884 17.2691 32.4463 17.1685C31.5042 17.0679 30.6132 16.6901 29.8858 16.0831C29.1584 15.476 28.6274 14.6668 28.3599 13.758C28.0924 12.8491 28.1005 11.8813 28.3831 10.977C28.6656 10.0727 29.21 9.27247 29.9474 8.67758C30.6848 8.08269 31.582 7.71983 32.5256 7.6349C33.1523 7.57717 33.7841 7.64375 34.385 7.83081C34.9858 8.01787 35.5438 8.32173 36.027 8.72496C36.5101 9.12819 36.9089 9.62285 37.2004 10.1806C37.4919 10.7383 37.6704 11.348 37.7256 11.9749V11.9749Z" fill="url(#paint3_radial_10_1265)"/>
<path style="mix-blend-mode:screen" opacity="0.61" fill-rule="evenodd" clip-rule="evenodd" d="M35.1856 12.2049C35.2314 12.6468 35.1448 13.0924 34.9367 13.4849C34.7286 13.8774 34.4085 14.1992 34.0171 14.4094C33.6257 14.6195 33.1806 14.7085 32.7384 14.6651C32.2963 14.6216 31.8771 14.4477 31.534 14.1653C31.191 13.883 30.9397 13.5051 30.812 13.0795C30.6843 12.654 30.6861 12.2001 30.817 11.7756C30.948 11.3511 31.2022 10.9751 31.5474 10.6954C31.8926 10.4157 32.3131 10.245 32.7556 10.2049C33.3423 10.1518 33.9262 10.3319 34.381 10.7063C34.8358 11.0806 35.1249 11.619 35.1856 12.2049Z" fill="url(#paint4_radial_10_1265)"/>
<path fill-rule="evenodd" clip-rule="evenodd" d="M54.1456 50.0849C54.1533 50.1739 54.1344 50.2632 54.0913 50.3414C54.0481 50.4195 53.9826 50.4831 53.9032 50.524C53.8238 50.5648 53.734 50.5811 53.6453 50.5708C53.5566 50.5605 53.473 50.524 53.405 50.466C53.3371 50.408 53.288 50.3311 53.264 50.2451C53.2399 50.1591 53.242 50.0679 53.2699 49.983C53.2978 49.8982 53.3504 49.8236 53.4209 49.7688C53.4913 49.7139 53.5765 49.6812 53.6656 49.6749C53.7834 49.6666 53.8998 49.705 53.9896 49.7817C54.0794 49.8584 54.1354 49.9673 54.1456 50.0849V50.0849Z" fill="white"/>
<path style="mix-blend-mode:screen" opacity="0.61" fill-rule="evenodd" clip-rule="evenodd" d="M55.4956 49.9546C55.5247 50.3069 55.4494 50.66 55.2791 50.9698C55.1088 51.2796 54.8511 51.5324 54.538 51.6967C54.225 51.8609 53.8705 51.9293 53.5188 51.8934C53.1671 51.8575 52.8338 51.7188 52.5604 51.4946C52.287 51.2705 52.0857 50.9708 51.9816 50.6329C51.8775 50.2951 51.8751 49.934 51.9749 49.5949C52.0746 49.2557 52.272 48.9534 52.5425 48.7258C52.8129 48.4981 53.1444 48.3551 53.4956 48.3146C53.7353 48.2869 53.9781 48.3078 54.2096 48.3759C54.4411 48.4439 54.6565 48.5579 54.8431 48.7109C55.0297 48.8638 55.1836 49.0528 55.2957 49.2664C55.4078 49.4801 55.4758 49.7141 55.4956 49.9546Z" fill="url(#paint5_radial_10_1265)"/>
<path style="mix-blend-mode:screen" opacity="0.61" fill-rule="evenodd" clip-rule="evenodd" d="M54.5356 50.0849C54.5508 50.2505 54.5165 50.4169 54.4371 50.5629C54.3577 50.709 54.2367 50.8282 54.0894 50.9055C53.9422 50.9828 53.7754 51.0146 53.61 50.997C53.4447 50.9793 53.2883 50.913 53.1607 50.8064C53.0331 50.6998 52.9399 50.5578 52.8931 50.3982C52.8463 50.2387 52.8479 50.0688 52.8977 49.9102C52.9475 49.7515 53.0432 49.6112 53.1728 49.507C53.3024 49.4029 53.46 49.3395 53.6256 49.3249C53.7355 49.3139 53.8464 49.325 53.952 49.3574C54.0575 49.3898 54.1555 49.443 54.2403 49.5138C54.325 49.5845 54.3948 49.6715 54.4455 49.7696C54.4962 49.8676 54.5269 49.9749 54.5356 50.0849V50.0849Z" fill="url(#paint6_radial_10_1265)"/>
<path fill-rule="evenodd" clip-rule="evenodd" d="M70.3057 37.745C70.3251 37.9717 70.2539 38.1968 70.1077 38.3711C69.9615 38.5454 69.7522 38.6547 69.5257 38.675C69.4124 38.6874 69.2978 38.6769 69.1886 38.6441C69.0795 38.6113 68.9781 38.5569 68.8904 38.4842C68.8027 38.4114 68.7305 38.3218 68.6782 38.2205C68.6258 38.1193 68.5944 38.0086 68.5857 37.895C68.5662 37.6683 68.6374 37.4432 68.7836 37.2689C68.9298 37.0946 69.1391 36.9853 69.3657 36.965C69.4789 36.9526 69.5935 36.9631 69.7027 36.9959C69.8118 37.0287 69.9132 37.0831 70.0009 37.1558C70.0886 37.2286 70.1608 37.3182 70.2131 37.4195C70.2655 37.5207 70.297 37.6314 70.3057 37.745V37.745Z" fill="white"/>
<path style="mix-blend-mode:screen" opacity="0.61" fill-rule="evenodd" clip-rule="evenodd" d="M72.9256 37.5148C72.9861 38.1981 72.8427 38.884 72.5135 39.4858C72.1843 40.0876 71.6841 40.5784 71.0761 40.8961C70.4682 41.2137 69.7797 41.3441 69.0976 41.2706C68.4156 41.1972 67.7706 40.9232 67.2442 40.4834C66.7178 40.0436 66.3336 39.4576 66.1401 38.7995C65.9466 38.1414 65.9525 37.4407 66.157 36.7859C66.3615 36.1311 66.7556 35.5517 67.2893 35.1208C67.823 34.6898 68.4725 34.4268 69.1556 34.3648C69.6101 34.3235 70.0683 34.3724 70.5038 34.5084C70.9394 34.6445 71.3439 34.8652 71.6941 35.1578C72.0443 35.4504 72.3333 35.8091 72.5446 36.2136C72.756 36.618 72.8854 37.0602 72.9256 37.5148V37.5148Z" fill="url(#paint7_radial_10_1265)"/>
<path style="mix-blend-mode:screen" opacity="0.61" fill-rule="evenodd" clip-rule="evenodd" d="M71.0556 37.675C71.0841 37.9944 71.0172 38.3152 70.8633 38.5966C70.7094 38.878 70.4754 39.1074 70.191 39.2557C69.9066 39.404 69.5846 39.4645 69.2658 39.4296C68.9469 39.3947 68.6456 39.266 68.4 39.0597C68.1544 38.8534 67.9756 38.5788 67.8862 38.2708C67.7968 37.9628 67.8009 37.6351 67.8978 37.3294C67.9948 37.0237 68.1804 36.7536 68.431 36.5534C68.6816 36.3533 68.986 36.232 69.3056 36.205C69.7324 36.1689 70.156 36.3033 70.484 36.5788C70.8119 36.8543 71.0175 37.2484 71.0556 37.675V37.675Z" fill="url(#paint8_radial_10_1265)"/>
<path fill-rule="evenodd" clip-rule="evenodd" d="M41.8455 46.0847C41.8605 46.2538 41.8251 46.4236 41.7438 46.5726C41.6625 46.7216 41.5389 46.8432 41.3885 46.9221C41.2382 47.001 41.0679 47.0337 40.8991 47.0159C40.7302 46.9982 40.5704 46.9309 40.4397 46.8225C40.3091 46.714 40.2134 46.5694 40.1649 46.4067C40.1163 46.244 40.1169 46.0706 40.1668 45.9083C40.2166 45.746 40.3133 45.6021 40.4448 45.4947C40.5762 45.3872 40.7366 45.3211 40.9055 45.3047C41.1327 45.2877 41.3576 45.3596 41.5329 45.505C41.7082 45.6505 41.8203 45.8583 41.8455 46.0847V46.0847Z" fill="white"/>
<path style="mix-blend-mode:screen" opacity="0.61" fill-rule="evenodd" clip-rule="evenodd" d="M44.4356 45.865C44.4962 46.5487 44.3528 47.2351 44.0233 47.8373C43.6938 48.4395 43.1931 48.9304 42.5845 49.248C41.976 49.5656 41.2869 49.6955 40.6045 49.6214C39.9221 49.5473 39.277 49.2724 38.7508 48.8316C38.2246 48.3908 37.841 47.8038 37.6484 47.1449C37.4559 46.486 37.4631 45.7848 37.6692 45.1301C37.8752 44.4753 38.2708 43.8963 38.806 43.4664C39.3411 43.0365 39.9918 42.775 40.6756 42.715C41.5918 42.6345 42.5025 42.9211 43.2075 43.5117C43.9126 44.1024 44.3543 44.9488 44.4356 45.865V45.865Z" fill="url(#paint9_radial_10_1265)"/>
<path style="mix-blend-mode:screen" opacity="0.61" fill-rule="evenodd" clip-rule="evenodd" d="M42.5956 46.0849C42.6239 46.404 42.5571 46.7242 42.4035 47.0053C42.2499 47.2863 42.0164 47.5155 41.7326 47.6639C41.4488 47.8123 41.1273 47.8733 40.8089 47.8391C40.4904 47.8048 40.1893 47.677 39.9435 47.4717C39.6976 47.2664 39.5182 46.9928 39.4278 46.6855C39.3374 46.3783 39.3401 46.0511 39.4356 45.7454C39.5311 45.4397 39.715 45.1691 39.9642 44.9679C40.2134 44.7667 40.5166 44.6439 40.8356 44.6149C41.048 44.5943 41.2623 44.6162 41.4662 44.6791C41.67 44.7421 41.8594 44.845 42.0231 44.9817C42.1869 45.1185 42.3218 45.2865 42.4201 45.4759C42.5184 45.6653 42.578 45.8723 42.5956 46.0849V46.0849Z" fill="url(#paint10_radial_10_1265)"/>
<path fill-rule="evenodd" clip-rule="evenodd" d="M42.7756 30.0049C42.785 30.121 42.7598 30.2374 42.7033 30.3392C42.6467 30.441 42.5612 30.5239 42.4576 30.5772C42.354 30.6305 42.2369 30.652 42.1212 30.6389C42.0054 30.6258 41.8961 30.5787 41.8071 30.5035C41.718 30.4284 41.6532 30.3286 41.6208 30.2167C41.5884 30.1048 41.5899 29.9858 41.625 29.8747C41.6601 29.7636 41.7274 29.6654 41.8183 29.5925C41.9091 29.5196 42.0195 29.4752 42.1356 29.4649C42.2916 29.4537 42.4458 29.5039 42.5654 29.6048C42.6849 29.7057 42.7604 29.8492 42.7756 30.0049V30.0049Z" fill="white"/>
<path style="mix-blend-mode:screen" opacity="0.61" fill-rule="evenodd" clip-rule="evenodd" d="M44.5756 29.8446C44.6193 30.3177 44.5216 30.7932 44.2949 31.2107C44.0681 31.6283 43.7226 31.9691 43.3019 32.1901C42.8813 32.411 42.4046 32.5022 41.9321 32.452C41.4596 32.4018 41.0127 32.2124 40.6479 31.908C40.2832 31.6035 40.017 31.1977 39.8831 30.7418C39.7491 30.2859 39.7536 29.8006 39.8957 29.3472C40.0379 28.8939 40.3115 28.4929 40.6817 28.1951C41.052 27.8974 41.5023 27.7162 41.9756 27.6746C42.2889 27.6458 42.6048 27.6791 42.9053 27.7726C43.2057 27.8661 43.4847 28.018 43.7263 28.2197C43.9678 28.4213 44.1672 28.6686 44.313 28.9475C44.4587 29.2263 44.5479 29.5312 44.5756 29.8446V29.8446Z" fill="url(#paint11_radial_10_1265)"/>
<path style="mix-blend-mode:screen" opacity="0.61" fill-rule="evenodd" clip-rule="evenodd" d="M43.3056 29.965C43.3308 30.2576 43.2401 30.5482 43.053 30.7745C42.866 31.0008 42.5976 31.1447 42.3056 31.175C42.0125 31.2029 41.7204 31.1132 41.4935 30.9256C41.2666 30.7381 41.1234 30.4681 41.0956 30.175C41.0776 30.0262 41.0897 29.8752 41.1312 29.7311C41.1727 29.587 41.2427 29.4526 41.3371 29.3361C41.4315 29.2195 41.5483 29.1231 41.6806 29.0526C41.813 28.982 41.9581 28.9388 42.1075 28.9254C42.2568 28.912 42.4074 28.9287 42.5502 28.9746C42.6929 29.0205 42.825 29.0946 42.9387 29.1924C43.0523 29.2903 43.145 29.4101 43.2115 29.5445C43.278 29.6789 43.3168 29.8253 43.3256 29.975L43.3056 29.965Z" fill="url(#paint12_radial_10_1265)"/>
<path fill-rule="evenodd" clip-rule="evenodd" d="M60.2255 30.9449C60.2312 31.0425 60.199 31.1385 60.1357 31.213C60.0724 31.2875 59.9828 31.3347 59.8855 31.3449C59.8375 31.3504 59.7887 31.3461 59.7423 31.3324C59.6959 31.3187 59.6527 31.2957 59.6154 31.2649C59.578 31.2341 59.5473 31.1961 59.525 31.1531C59.5027 31.1101 59.4893 31.0631 59.4855 31.0149C59.48 30.9662 59.4841 30.917 59.4978 30.87C59.5114 30.8229 59.5342 30.7791 59.5649 30.7409C59.5956 30.7028 59.6336 30.6711 59.6766 30.6478C59.7196 30.6244 59.7668 30.6098 59.8155 30.6049C59.9148 30.5965 60.0134 30.6274 60.0901 30.691C60.1668 30.7546 60.2154 30.8458 60.2255 30.9449V30.9449Z" fill="white"/>
<path style="mix-blend-mode:screen" opacity="0.61" fill-rule="evenodd" clip-rule="evenodd" d="M61.3456 30.8447C61.372 31.1401 61.3103 31.4367 61.1683 31.697C61.0262 31.9574 60.8102 32.1698 60.5474 32.3074C60.2847 32.4449 59.9871 32.5015 59.6921 32.47C59.3972 32.4385 59.1183 32.3203 58.8906 32.1303C58.6629 31.9403 58.4966 31.687 58.4127 31.4025C58.3289 31.1181 58.3313 30.8151 58.4196 30.532C58.5079 30.2488 58.6781 29.9982 58.9088 29.8118C59.1395 29.6254 59.4202 29.5116 59.7156 29.4847C59.9119 29.4668 60.1099 29.4878 60.2981 29.5465C60.4863 29.6052 60.6611 29.7004 60.8125 29.8268C60.9639 29.9531 61.0889 30.108 61.1804 30.2827C61.2719 30.4573 61.328 30.6483 61.3456 30.8447V30.8447Z" fill="url(#paint13_radial_10_1265)"/>
<path style="mix-blend-mode:screen" opacity="0.61" fill-rule="evenodd" clip-rule="evenodd" d="M60.5456 30.9146C60.5589 31.0526 60.5309 31.1914 60.4652 31.3135C60.3995 31.4355 60.2991 31.5353 60.1766 31.6002C60.0541 31.6652 59.9151 31.6922 59.7772 31.6781C59.6394 31.6639 59.5088 31.6091 59.4021 31.5207C59.2954 31.4322 59.2173 31.314 59.1778 31.1812C59.1383 31.0483 59.1392 30.9067 59.1802 30.7743C59.2213 30.6419 59.3008 30.5247 59.4085 30.4375C59.5163 30.3503 59.6475 30.2971 59.7856 30.2846C59.9698 30.2679 60.1531 30.3248 60.2955 30.4428C60.4379 30.5609 60.5278 30.7305 60.5456 30.9146V30.9146Z" fill="url(#paint14_radial_10_1265)"/>
<path fill-rule="evenodd" clip-rule="evenodd" d="M45.7056 48.6848C45.7167 48.8291 45.6704 48.972 45.5768 49.0825C45.4832 49.1929 45.3498 49.262 45.2056 49.2748C45.1344 49.283 45.0622 49.2768 44.9935 49.2564C44.9248 49.236 44.8609 49.2018 44.8057 49.156C44.7506 49.1102 44.7053 49.0537 44.6726 48.9899C44.6399 48.9261 44.6205 48.8563 44.6156 48.7848C44.6016 48.6403 44.6453 48.4962 44.737 48.3839C44.8288 48.2715 44.9613 48.1999 45.1056 48.1848C45.251 48.1736 45.3951 48.2195 45.5072 48.3129C45.6192 48.4063 45.6904 48.5397 45.7056 48.6848V48.6848Z" fill="white"/>
<path style="mix-blend-mode:screen" opacity="0.61" fill-rule="evenodd" clip-rule="evenodd" d="M47.3456 48.5348C47.3836 48.9684 47.2921 49.4036 47.0827 49.7851C46.8732 50.1667 46.5554 50.4776 46.1692 50.6785C45.783 50.8793 45.346 50.9611 44.9133 50.9135C44.4807 50.8659 44.0719 50.691 43.7386 50.411C43.4054 50.131 43.1627 49.7584 43.0413 49.3404C42.9199 48.9224 42.9252 48.4778 43.0565 48.0628C43.1879 47.6478 43.4394 47.2811 43.7792 47.0092C44.1191 46.7372 44.5319 46.5721 44.9656 46.5348C45.2534 46.5087 45.5435 46.5399 45.8192 46.6265C46.0949 46.7131 46.3508 46.8534 46.572 47.0393C46.7933 47.2252 46.9755 47.453 47.1083 47.7097C47.241 47.9664 47.3217 48.2468 47.3456 48.5348V48.5348Z" fill="url(#paint15_radial_10_1265)"/>
<path style="mix-blend-mode:screen" opacity="0.61" fill-rule="evenodd" clip-rule="evenodd" d="M46.1856 48.6447C46.1959 48.8392 46.1491 49.0326 46.0509 49.2009C45.9528 49.3692 45.8076 49.5052 45.6333 49.5922C45.4589 49.6791 45.2629 49.7132 45.0695 49.6903C44.876 49.6674 44.6934 49.5885 44.5441 49.4633C44.3949 49.338 44.2855 49.1719 44.2294 48.9853C44.1733 48.7987 44.1729 48.5998 44.2283 48.413C44.2837 48.2262 44.3924 48.0596 44.5412 47.9338C44.6899 47.808 44.8722 47.7283 45.0656 47.7047C45.2017 47.688 45.3398 47.6995 45.4713 47.7385C45.6028 47.7775 45.7248 47.8431 45.8299 47.9313C45.9349 48.0195 46.0207 48.1283 46.0819 48.251C46.1431 48.3737 46.1784 48.5077 46.1856 48.6447Z" fill="url(#paint16_radial_10_1265)"/>
<g style="mix-blend-mode:screen" opacity="0.61">
<g style="mix-blend-mode:screen" opacity="0.61">
<path fill-rule="evenodd" clip-rule="evenodd" d="M50.5956 49.7349C50.6012 49.8077 50.5852 49.8806 50.5495 49.9444C50.5138 50.0081 50.46 50.0599 50.3949 50.0931C50.3298 50.1263 50.2564 50.1395 50.1838 50.1311C50.1112 50.1226 50.0427 50.0928 49.9871 50.0455C49.9314 49.9981 49.891 49.9354 49.8709 49.8651C49.8508 49.7949 49.852 49.7202 49.8743 49.6506C49.8966 49.581 49.9391 49.5196 49.9962 49.4741C50.0534 49.4286 50.1228 49.401 50.1956 49.3949C50.2442 49.3908 50.2931 49.3963 50.3396 49.4112C50.3861 49.4261 50.4291 49.45 50.4663 49.4816C50.5035 49.5132 50.5341 49.5519 50.5562 49.5954C50.5784 49.6388 50.5918 49.6862 50.5956 49.7349V49.7349Z" fill="white"/>
</g>
<path style="mix-blend-mode:screen" opacity="0.61" fill-rule="evenodd" clip-rule="evenodd" d="M51.7156 49.6347C51.7423 49.9305 51.6805 50.2276 51.5382 50.4883C51.3958 50.749 51.1792 50.9616 50.9159 51.0991C50.6526 51.2365 50.3544 51.2927 50.0591 51.2606C49.7638 51.2284 49.4847 51.1092 49.2572 50.9182C49.0297 50.7272 48.864 50.473 48.7812 50.1878C48.6984 49.9025 48.7021 49.5991 48.7919 49.3159C48.8817 49.0328 49.0535 48.7827 49.2856 48.5973C49.5177 48.4119 49.7996 48.2997 50.0956 48.2747C50.2914 48.2569 50.4888 48.278 50.6765 48.3368C50.8641 48.3956 51.0382 48.491 51.1888 48.6174C51.3394 48.7438 51.4635 48.8988 51.5539 49.0734C51.6443 49.248 51.6993 49.4388 51.7156 49.6347V49.6347Z" fill="url(#paint17_radial_10_1265)"/>
<path style="mix-blend-mode:screen" opacity="0.61" fill-rule="evenodd" clip-rule="evenodd" d="M50.9257 49.7046C50.9396 49.8898 50.8804 50.0732 50.7607 50.2152C50.6411 50.3573 50.4706 50.4469 50.2857 50.4646C50.1015 50.4785 49.9194 50.419 49.7789 50.2991C49.6384 50.1792 49.551 50.0087 49.5357 49.8246C49.5274 49.734 49.5372 49.6425 49.5645 49.5557C49.5917 49.4688 49.6359 49.3882 49.6945 49.3185C49.7531 49.2487 49.8249 49.1913 49.9057 49.1495C49.9866 49.1076 50.0749 49.0822 50.1657 49.0746C50.3499 49.0579 50.5332 49.1148 50.6756 49.2329C50.818 49.3509 50.9079 49.5205 50.9257 49.7046V49.7046Z" fill="url(#paint18_radial_10_1265)"/>
</g>
<path fill-rule="evenodd" clip-rule="evenodd" d="M67.5256 17.7147C67.5311 17.7633 67.5269 17.8126 67.5133 17.8596C67.4997 17.9066 67.4769 17.9505 67.4462 17.9886C67.4155 18.0267 67.3775 18.0584 67.3345 18.0818C67.2915 18.1051 67.2443 18.1197 67.1956 18.1247C67.0963 18.1331 66.9977 18.1021 66.921 18.0385C66.8443 17.975 66.7957 17.8838 66.7856 17.7847C66.7799 17.6871 66.8121 17.591 66.8754 17.5165C66.9387 17.442 67.0283 17.3948 67.1255 17.3847C67.2222 17.3763 67.3182 17.4062 67.393 17.4679C67.4678 17.5296 67.5154 17.6182 67.5256 17.7147V17.7147Z" fill="white"/>
<path style="mix-blend-mode:screen" opacity="0.61" fill-rule="evenodd" clip-rule="evenodd" d="M68.6456 17.615C68.6743 17.9111 68.6143 18.2089 68.4733 18.4708C68.3323 18.7327 68.1166 18.9467 67.8536 19.0857C67.5907 19.2247 67.2924 19.2824 66.9966 19.2515C66.7007 19.2206 66.4208 19.1024 66.1923 18.912C65.9638 18.7216 65.7971 18.4675 65.7133 18.1821C65.6295 17.8968 65.6325 17.5929 65.7218 17.3092C65.8111 17.0255 65.9828 16.7748 66.2149 16.5888C66.4471 16.4029 66.7292 16.2902 67.0256 16.265C67.2206 16.2471 67.4173 16.2679 67.6043 16.3261C67.7913 16.3843 67.965 16.4788 68.1155 16.6042C68.266 16.7295 68.3902 16.8833 68.4812 17.0568C68.5721 17.2303 68.628 17.4199 68.6456 17.615V17.615Z" fill="url(#paint19_radial_10_1265)"/>
<path style="mix-blend-mode:screen" opacity="0.61" fill-rule="evenodd" clip-rule="evenodd" d="M67.8556 17.6949C67.8561 17.8705 67.7906 18.0399 67.6721 18.1695C67.5536 18.2991 67.3907 18.3794 67.2158 18.3945C67.0408 18.4096 66.8666 18.3584 66.7276 18.251C66.5887 18.1437 66.4951 17.988 66.4656 17.8149C66.4493 17.7195 66.4529 17.6217 66.4763 17.5278C66.4998 17.4338 66.5424 17.3458 66.6016 17.2691C66.6608 17.1925 66.7352 17.129 66.8202 17.0826C66.9052 17.0362 66.9989 17.008 67.0954 16.9997C67.1918 16.9913 67.289 17.0031 67.3806 17.0342C67.4723 17.0654 67.5566 17.1152 67.628 17.1805C67.6995 17.2459 67.7566 17.3253 67.7957 17.4139C67.8349 17.5024 67.8553 17.5981 67.8556 17.6949Z" fill="url(#paint20_radial_10_1265)"/>
<path fill-rule="evenodd" clip-rule="evenodd" d="M45.3857 54.4849C45.3913 54.5655 45.3651 54.6452 45.3128 54.7068C45.2605 54.7685 45.1862 54.8072 45.1057 54.8149C45.0282 54.818 44.9524 54.792 44.8932 54.7421C44.834 54.6921 44.7956 54.6217 44.7857 54.5449C44.7817 54.5055 44.7856 54.4657 44.797 54.4278C44.8085 54.3899 44.8273 54.3546 44.8523 54.3239C44.8774 54.2933 44.9083 54.2679 44.9431 54.2492C44.978 54.2305 45.0163 54.2188 45.0557 54.2149C45.0951 54.2109 45.1349 54.2148 45.1728 54.2262C45.2107 54.2377 45.246 54.2565 45.2766 54.2815C45.3072 54.3066 45.3326 54.3375 45.3514 54.3723C45.3701 54.4072 45.3817 54.4455 45.3857 54.4849V54.4849Z" fill="white"/>
<path style="mix-blend-mode:screen" opacity="0.61" fill-rule="evenodd" clip-rule="evenodd" d="M46.2756 54.4049C46.2984 54.6415 46.2504 54.8796 46.1378 55.089C46.0251 55.2983 45.8527 55.4695 45.6426 55.5807C45.4325 55.692 45.194 55.7383 44.9575 55.7138C44.7211 55.6893 44.4972 55.5952 44.3143 55.4432C44.1314 55.2913 43.9978 55.0885 43.9304 54.8605C43.8629 54.6325 43.8648 54.3896 43.9356 54.1626C44.0065 53.9357 44.1431 53.7349 44.3283 53.5857C44.5134 53.4366 44.7387 53.3458 44.9756 53.3249C45.1319 53.3097 45.2898 53.3257 45.44 53.3719C45.5902 53.4181 45.7297 53.4936 45.8506 53.594C45.9714 53.6944 46.0712 53.8178 46.1442 53.9569C46.2171 54.0961 46.2618 54.2483 46.2756 54.4049V54.4049Z" fill="url(#paint21_radial_10_1265)"/>
<path style="mix-blend-mode:screen" opacity="0.61" fill-rule="evenodd" clip-rule="evenodd" d="M45.6457 54.4648C45.6569 54.6128 45.6098 54.7594 45.5146 54.8734C45.4193 54.9873 45.2834 55.0596 45.1357 55.0748C45.0621 55.0813 44.988 55.0733 44.9176 55.0513C44.8471 55.0292 44.7817 54.9934 44.725 54.9461C44.6684 54.8987 44.6216 54.8407 44.5874 54.7752C44.5532 54.7098 44.5322 54.6383 44.5257 54.5648C44.5191 54.4912 44.5271 54.4171 44.5491 54.3466C44.5712 54.2762 44.607 54.2108 44.6543 54.1541C44.7017 54.0975 44.7597 54.0507 44.8252 54.0165C44.8906 53.9823 44.9621 53.9613 45.0357 53.9547C45.1837 53.9435 45.3303 53.9906 45.4443 54.0858C45.5582 54.1811 45.6305 54.317 45.6457 54.4648Z" fill="url(#paint22_radial_10_1265)"/>
<defs>
<linearGradient id="paint0_linear_10_1265" x1="89.8652" y1="8.97847" x2="61.2828" y2="24.5689" gradientUnits="userSpaceOnUse">
<stop stop-color="#FFBF00"/>
<stop offset="1" stop-color="#FFA700"/>
</linearGradient>
<linearGradient id="paint1_linear_10_1265" x1="76.3039" y1="21.9311" x2="75.5514" y2="19.0114" gradientUnits="userSpaceOnUse">
<stop stop-color="#52146A"/>
<stop offset="0.99" stop-color="#511FA4"/>
</linearGradient>
<linearGradient id="paint2_linear_10_1265" x1="89.3379" y1="37.9055" x2="83.9129" y2="16.8565" gradientUnits="userSpaceOnUse">
<stop offset="0.01" stop-color="#8343D6"/>
<stop offset="1" stop-color="#8143E5"/>
</linearGradient>
<radialGradient id="paint3_radial_10_1265" cx="0" cy="0" r="1" gradientUnits="userSpaceOnUse" gradientTransform="translate(18.169 17.3486) rotate(174.857) scale(4.80936)">
<stop stop-color="#0062FF"/>
<stop offset="0.13" stop-color="#0050CF"/>
<stop offset="0.31" stop-color="#003891"/>
<stop offset="0.48" stop-color="#00245D"/>
<stop offset="0.64" stop-color="#001435"/>
<stop offset="0.78" stop-color="#000918"/>
<stop offset="0.91" stop-color="#000206"/>
<stop offset="1"/>
</radialGradient>
<radialGradient id="paint4_radial_10_1265" cx="0" cy="0" r="1" gradientUnits="userSpaceOnUse" gradientTransform="translate(18.169 17.3486) rotate(174.857) scale(2.24905)">
<stop stop-color="#0062FF"/>
<stop offset="0.13" stop-color="#0050CF"/>
<stop offset="0.31" stop-color="#003891"/>
<stop offset="0.48" stop-color="#00245D"/>
<stop offset="0.64" stop-color="#001435"/>
<stop offset="0.78" stop-color="#000918"/>
<stop offset="0.91" stop-color="#000206"/>
<stop offset="1"/>
</radialGradient>
<radialGradient id="paint5_radial_10_1265" cx="0" cy="0" r="1" gradientUnits="userSpaceOnUse" gradientTransform="translate(39.0341 55.1795) rotate(174.857) scale(1.80728)">
<stop stop-color="#0062FF"/>
<stop offset="0.13" stop-color="#0050CF"/>
<stop offset="0.31" stop-color="#003891"/>
<stop offset="0.48" stop-color="#00245D"/>
<stop offset="0.64" stop-color="#001435"/>
<stop offset="0.78" stop-color="#000918"/>
<stop offset="0.91" stop-color="#000206"/>
<stop offset="1"/>
</radialGradient>
<radialGradient id="paint6_radial_10_1265" cx="0" cy="0" r="1" gradientUnits="userSpaceOnUse" gradientTransform="translate(39.0341 55.1798) rotate(174.857) scale(0.843396)">
<stop stop-color="#0062FF"/>
<stop offset="0.13" stop-color="#0050CF"/>
<stop offset="0.31" stop-color="#003891"/>
<stop offset="0.48" stop-color="#00245D"/>
<stop offset="0.64" stop-color="#001435"/>
<stop offset="0.78" stop-color="#000918"/>
<stop offset="0.91" stop-color="#000206"/>
<stop offset="1"/>
</radialGradient>
<radialGradient id="paint7_radial_10_1265" cx="0" cy="0" r="1" gradientUnits="userSpaceOnUse" gradientTransform="translate(54.8285 42.8304) rotate(174.857) scale(3.48403)">
<stop stop-color="#0062FF"/>
<stop offset="0.13" stop-color="#0050CF"/>
<stop offset="0.31" stop-color="#003891"/>
<stop offset="0.48" stop-color="#00245D"/>
<stop offset="0.64" stop-color="#001435"/>
<stop offset="0.78" stop-color="#000918"/>
<stop offset="0.91" stop-color="#000206"/>
<stop offset="1"/>
</radialGradient>
<radialGradient id="paint8_radial_10_1265" cx="0" cy="0" r="1" gradientUnits="userSpaceOnUse" gradientTransform="translate(54.8285 42.8306) rotate(174.857) scale(1.62655)">
<stop stop-color="#0062FF"/>
<stop offset="0.13" stop-color="#0050CF"/>
<stop offset="0.31" stop-color="#003891"/>
<stop offset="0.48" stop-color="#00245D"/>
<stop offset="0.64" stop-color="#001435"/>
<stop offset="0.78" stop-color="#000918"/>
<stop offset="0.91" stop-color="#000206"/>
<stop offset="1"/>
</radialGradient>
<radialGradient id="paint9_radial_10_1265" cx="0" cy="0" r="1" gradientUnits="userSpaceOnUse" gradientTransform="translate(26.2596 51.2387) rotate(174.857) scale(3.48402)">
<stop stop-color="#0062FF"/>
<stop offset="0.13" stop-color="#0050CF"/>
<stop offset="0.31" stop-color="#003891"/>
<stop offset="0.48" stop-color="#00245D"/>
<stop offset="0.64" stop-color="#001435"/>
<stop offset="0.78" stop-color="#000918"/>
<stop offset="0.91" stop-color="#000206"/>
<stop offset="1"/>
</radialGradient>
<radialGradient id="paint10_radial_10_1265" cx="0" cy="0" r="1" gradientUnits="userSpaceOnUse" gradientTransform="translate(26.2596 51.2387) rotate(174.857) scale(1.62655)">
<stop stop-color="#0062FF"/>
<stop offset="0.13" stop-color="#0050CF"/>
<stop offset="0.31" stop-color="#003891"/>
<stop offset="0.48" stop-color="#00245D"/>
<stop offset="0.64" stop-color="#001435"/>
<stop offset="0.78" stop-color="#000918"/>
<stop offset="0.91" stop-color="#000206"/>
<stop offset="1"/>
</radialGradient>
<radialGradient id="paint11_radial_10_1265" cx="0" cy="0" r="1" gradientUnits="userSpaceOnUse" gradientTransform="translate(27.455 35.0616) rotate(174.857) scale(2.4097)">
<stop stop-color="#0062FF"/>
<stop offset="0.13" stop-color="#0050CF"/>
<stop offset="0.31" stop-color="#003891"/>
<stop offset="0.48" stop-color="#00245D"/>
<stop offset="0.64" stop-color="#001435"/>
<stop offset="0.78" stop-color="#000918"/>
<stop offset="0.91" stop-color="#000206"/>
<stop offset="1"/>
</radialGradient>
<radialGradient id="paint12_radial_10_1265" cx="0" cy="0" r="1" gradientUnits="userSpaceOnUse" gradientTransform="translate(27.455 35.062) rotate(174.857) scale(1.12453)">
<stop stop-color="#0062FF"/>
<stop offset="0.13" stop-color="#0050CF"/>
<stop offset="0.31" stop-color="#003891"/>
<stop offset="0.48" stop-color="#00245D"/>
<stop offset="0.64" stop-color="#001435"/>
<stop offset="0.78" stop-color="#000918"/>
<stop offset="0.91" stop-color="#000206"/>
<stop offset="1"/>
</radialGradient>
<radialGradient id="paint13_radial_10_1265" cx="0" cy="0" r="1" gradientUnits="userSpaceOnUse" gradientTransform="translate(45.1882 35.9658) rotate(174.857) scale(1.50606)">
<stop stop-color="#0062FF"/>
<stop offset="0.13" stop-color="#0050CF"/>
<stop offset="0.31" stop-color="#003891"/>
<stop offset="0.48" stop-color="#00245D"/>
<stop offset="0.64" stop-color="#001435"/>
<stop offset="0.78" stop-color="#000918"/>
<stop offset="0.91" stop-color="#000206"/>
<stop offset="1"/>
</radialGradient>
<radialGradient id="paint14_radial_10_1265" cx="0" cy="0" r="1" gradientUnits="userSpaceOnUse" gradientTransform="translate(45.1883 35.9657) rotate(174.857) scale(0.702825)">
<stop stop-color="#0062FF"/>
<stop offset="0.13" stop-color="#0050CF"/>
<stop offset="0.31" stop-color="#003891"/>
<stop offset="0.48" stop-color="#00245D"/>
<stop offset="0.64" stop-color="#001435"/>
<stop offset="0.78" stop-color="#000918"/>
<stop offset="0.91" stop-color="#000206"/>
<stop offset="1"/>
</radialGradient>
<radialGradient id="paint15_radial_10_1265" cx="0" cy="0" r="1" gradientUnits="userSpaceOnUse" gradientTransform="translate(30.4524 53.8048) rotate(174.857) scale(2.20889)">
<stop stop-color="#0062FF"/>
<stop offset="0.13" stop-color="#0050CF"/>
<stop offset="0.31" stop-color="#003891"/>
<stop offset="0.48" stop-color="#00245D"/>
<stop offset="0.64" stop-color="#001435"/>
<stop offset="0.78" stop-color="#000918"/>
<stop offset="0.91" stop-color="#000206"/>
<stop offset="1"/>
</radialGradient>
<radialGradient id="paint16_radial_10_1265" cx="0" cy="0" r="1" gradientUnits="userSpaceOnUse" gradientTransform="translate(30.4524 53.8047) rotate(174.857) scale(1.03416)">
<stop stop-color="#0062FF"/>
<stop offset="0.13" stop-color="#0050CF"/>
<stop offset="0.31" stop-color="#003891"/>
<stop offset="0.48" stop-color="#00245D"/>
<stop offset="0.64" stop-color="#001435"/>
<stop offset="0.78" stop-color="#000918"/>
<stop offset="0.91" stop-color="#000206"/>
<stop offset="1"/>
</radialGradient>
<radialGradient id="paint17_radial_10_1265" cx="0" cy="0" r="1" gradientUnits="userSpaceOnUse" gradientTransform="translate(35.5456 54.8383) rotate(174.857) scale(1.50606)">
<stop stop-color="#0062FF"/>
<stop offset="0.13" stop-color="#0050CF"/>
<stop offset="0.31" stop-color="#003891"/>
<stop offset="0.48" stop-color="#00245D"/>
<stop offset="0.64" stop-color="#001435"/>
<stop offset="0.78" stop-color="#000918"/>
<stop offset="0.91" stop-color="#000206"/>
<stop offset="1"/>
</radialGradient>
<radialGradient id="paint18_radial_10_1265" cx="0" cy="0" r="1" gradientUnits="userSpaceOnUse" gradientTransform="translate(35.5457 54.8382) rotate(174.857) scale(0.702829)">
<stop stop-color="#0062FF"/>
<stop offset="0.13" stop-color="#0050CF"/>
<stop offset="0.31" stop-color="#003891"/>
<stop offset="0.48" stop-color="#00245D"/>
<stop offset="0.64" stop-color="#001435"/>
<stop offset="0.78" stop-color="#000918"/>
<stop offset="0.91" stop-color="#000206"/>
<stop offset="1"/>
</radialGradient>
<radialGradient id="paint19_radial_10_1265" cx="0" cy="0" r="1" gradientUnits="userSpaceOnUse" gradientTransform="translate(52.5114 22.6856) rotate(174.857) scale(1.50606)">
<stop stop-color="#0062FF"/>
<stop offset="0.13" stop-color="#0050CF"/>
<stop offset="0.31" stop-color="#003891"/>
<stop offset="0.48" stop-color="#00245D"/>
<stop offset="0.64" stop-color="#001435"/>
<stop offset="0.78" stop-color="#000918"/>
<stop offset="0.91" stop-color="#000206"/>
<stop offset="1"/>
</radialGradient>
<radialGradient id="paint20_radial_10_1265" cx="0" cy="0" r="1" gradientUnits="userSpaceOnUse" gradientTransform="translate(52.5114 22.6855) rotate(174.857) scale(0.702828)">
<stop stop-color="#0062FF"/>
<stop offset="0.13" stop-color="#0050CF"/>
<stop offset="0.31" stop-color="#003891"/>
<stop offset="0.48" stop-color="#00245D"/>
<stop offset="0.64" stop-color="#001435"/>
<stop offset="0.78" stop-color="#000918"/>
<stop offset="0.91" stop-color="#000206"/>
<stop offset="1"/>
</radialGradient>
<radialGradient id="paint21_radial_10_1265" cx="0" cy="0" r="1" gradientUnits="userSpaceOnUse" gradientTransform="translate(30.3798 59.6079) rotate(174.857) scale(1.20485)">
<stop stop-color="#0062FF"/>
<stop offset="0.13" stop-color="#0050CF"/>
<stop offset="0.31" stop-color="#003891"/>
<stop offset="0.48" stop-color="#00245D"/>
<stop offset="0.64" stop-color="#001435"/>
<stop offset="0.78" stop-color="#000918"/>
<stop offset="0.91" stop-color="#000206"/>
<stop offset="1"/>
</radialGradient>
<radialGradient id="paint22_radial_10_1265" cx="0" cy="0" r="1" gradientUnits="userSpaceOnUse" gradientTransform="translate(30.38 59.6079) rotate(174.857) scale(0.562262)">
<stop stop-color="#0062FF"/>
<stop offset="0.13" stop-color="#0050CF"/>
<stop offset="0.31" stop-color="#003891"/>
<stop offset="0.48" stop-color="#00245D"/>
<stop offset="0.64" stop-color="#001435"/>
<stop offset="0.78" stop-color="#000918"/>
<stop offset="0.91" stop-color="#000206"/>
<stop offset="1"/>
</radialGradient>
</defs>
</svg>
