<svg width="64" height="39" viewBox="0 0 64 39" fill="none" xmlns="http://www.w3.org/2000/svg">
<path fill-rule="evenodd" clip-rule="evenodd" d="M0 7.052L3.77002 0.312012L38.4 17.772L33.82 25.962L0 7.052Z" fill="url(#paint0_linear_10_5)"/>
<path fill-rule="evenodd" clip-rule="evenodd" d="M38.4 17.772C38.4 17.772 54.23 26.772 63.13 24.322L31.66 10.322C31.66 10.322 26.95 11.512 3.77002 0.271973L38.4 17.772Z" fill="url(#paint1_linear_10_5)"/>
<path fill-rule="evenodd" clip-rule="evenodd" d="M55.4401 38.062L33.8201 25.962L38.4001 17.772C53.7801 26.092 62.5301 24.462 62.5301 24.462C62.5115 24.851 62.4681 25.2385 62.4001 25.622C57.5025 25.7606 52.6333 24.8325 48.1301 22.902C48.5201 23.012 49.8101 24.172 60.9501 28.642C60.5901 31.722 55.4401 38.062 55.4401 38.062Z" fill="#A79DCC"/>
<path fill-rule="evenodd" clip-rule="evenodd" d="M55.6501 38.172L33.8201 25.962L38.4001 17.772C38.4001 17.772 54.0101 26.092 63.1301 24.322V24.802C63.1301 24.802 53.9701 26.502 38.5901 18.302L34.0301 25.872L55.86 37.942L55.6501 38.172Z" fill="#E55947"/>
<g style="mix-blend-mode:multiply" opacity="0.4">
<path fill-rule="evenodd" clip-rule="evenodd" d="M38.59 18.3018L39.02 18.5318L34.71 26.2518L34.03 25.8718L38.59 18.3018Z" fill="#9A4F8B"/>
</g>
<g style="mix-blend-mode:multiply" opacity="0.8">
<path fill-rule="evenodd" clip-rule="evenodd" d="M4.13 8.6219L7.13 3.19189L34.66 17.6219C34.66 17.6219 30.58 23.9819 30.88 23.5719L4.13 8.6219Z" fill="#E04263"/>
</g>
<g opacity="0.65">
<path opacity="0.65" d="M9.91998 7.14209L10.38 7.4021L9.67999 8.64209L10.45 9.07208L10.24 9.4321L9.02002 8.75211L9.91998 7.14209Z" fill="#FFFFA4"/>
<path opacity="0.65" d="M10.77 8.67216C10.9026 8.43479 11.1241 8.25983 11.3857 8.18576C11.6473 8.11168 11.9276 8.14456 12.165 8.27717C12.4023 8.40978 12.5773 8.63125 12.6514 8.89286C12.7255 9.15448 12.6926 9.43479 12.56 9.67216C12.423 9.89853 12.202 10.0614 11.9452 10.1252C11.6885 10.1889 11.4169 10.1482 11.19 10.0122C10.958 9.88879 10.7838 9.67906 10.7052 9.42829C10.6266 9.17753 10.6499 8.9059 10.77 8.67216ZM12.1 9.41218C12.1356 9.35481 12.1593 9.29081 12.1695 9.22404C12.1798 9.15727 12.1764 9.08911 12.1596 9.02369C12.1428 8.95827 12.1129 8.89694 12.0717 8.84339C12.0305 8.78985 11.9789 8.74522 11.92 8.71217C11.7991 8.65575 11.6614 8.64701 11.5343 8.68769C11.4072 8.72838 11.3001 8.81549 11.2345 8.93165C11.1688 9.04781 11.1494 9.18446 11.1801 9.31431C11.2108 9.44416 11.2893 9.55769 11.4 9.63218C11.4609 9.67159 11.5297 9.69726 11.6015 9.70744C11.6733 9.71762 11.7464 9.71204 11.8159 9.69111C11.8854 9.67018 11.9494 9.63439 12.0036 9.58622C12.0579 9.53805 12.101 9.47868 12.13 9.41218H12.1Z" fill="#FFFFA4"/>
<path opacity="0.65" d="M13.29 10.5719L13.04 10.442L12.8 10.8619L12.35 10.6119L13.25 9.00195L13.98 9.41196C14.42 9.66196 14.57 10.042 14.36 10.412C14.3034 10.5198 14.2164 10.6086 14.1097 10.6673C14.003 10.726 13.8814 10.7519 13.76 10.7419L13.83 11.442L13.34 11.1719L13.29 10.5719ZM13.75 9.75195L13.5 9.61194L13.24 10.0819L13.49 10.2319C13.68 10.3319 13.82 10.3019 13.9 10.1519C13.98 10.0019 13.94 9.86195 13.75 9.75195Z" fill="#FFFFA4"/>
<path opacity="0.65" d="M15.54 11.9322L15.3401 12.2822L14.05 11.5622L14.9501 9.95215L16.2101 10.6622L16.0101 11.0121L15.2001 10.5622L15.05 10.8322L15.7701 11.2321L15.5801 11.5721L14.86 11.1721L14.7001 11.4622L15.54 11.9322Z" fill="#FFFFA4"/>
<path opacity="0.65" d="M17.05 13.2423L17.52 12.3823L16.72 12.8523L16.52 12.7323V11.8323L16.06 12.6623L15.63 12.4323L16.53 10.8223L16.91 11.0323V12.2723L17.98 11.6523L18.35 11.8623L17.46 13.4723L17.05 13.2423Z" fill="#FFFFA4"/>
<path opacity="0.65" d="M19.3599 12.4219L19.8099 12.6719L18.91 14.2819L18.46 14.0319L19.3599 12.4219Z" fill="#FFFFA4"/>
<path opacity="0.65" d="M21.2601 14.2423C21.2086 14.3222 21.1415 14.3911 21.0629 14.4446C20.9842 14.4982 20.8957 14.5354 20.8024 14.554C20.7092 14.5727 20.6131 14.5724 20.5199 14.5532C20.4267 14.534 20.3384 14.4963 20.2601 14.4423L19.98 14.2823L19.7401 14.7023L19.29 14.4423L20.1901 12.8423L20.92 13.2523C21.0113 13.2904 21.0935 13.3474 21.1611 13.4195C21.2288 13.4917 21.2804 13.5774 21.3125 13.6709C21.3446 13.7644 21.3566 13.8637 21.3475 13.9622C21.3385 14.0607 21.3087 14.1561 21.2601 14.2423ZM20.8 13.9923C20.88 13.8423 20.8001 13.7023 20.6501 13.5923L20.3901 13.4523L20.1301 13.9223L20.3801 14.0623C20.5701 14.2423 20.71 14.1523 20.8 14.0123V13.9923Z" fill="#FFFFA4"/>
<path opacity="0.65" d="M20.9 15.2423L21.24 14.9823C21.343 15.1721 21.4949 15.331 21.68 15.4423C21.87 15.5423 21.97 15.5323 22.02 15.4423C22.16 15.1923 21.14 14.8623 21.48 14.2723C21.64 13.9823 22 13.8823 22.48 14.1423C22.6855 14.2554 22.8605 14.4167 22.99 14.6123L22.66 14.8723C22.569 14.717 22.4377 14.5892 22.28 14.5023C22.09 14.3923 21.98 14.4123 21.94 14.5023C21.9 14.5923 22.82 15.0723 22.49 15.6623C22.33 15.9423 21.96 16.0523 21.49 15.7823C21.2495 15.657 21.0461 15.4708 20.9 15.2423Z" fill="#FFFFA4"/>
<path opacity="0.65" d="M22.81 15.5223L23.31 14.6323L23.76 14.8823L23.27 15.7623C23.12 16.0423 23.17 16.2123 23.36 16.3223C23.55 16.4323 23.73 16.3823 23.88 16.1023L24.37 15.2223L24.82 15.4823L24.32 16.3723C24.1968 16.551 24.0112 16.6772 23.7997 16.7261C23.5882 16.775 23.3661 16.743 23.177 16.6366C22.9878 16.5301 22.8453 16.3568 22.7774 16.1506C22.7095 15.9444 22.7211 15.7203 22.81 15.5223Z" fill="#FFFFA4"/>
<path opacity="0.65" d="M25.68 18.0721L26.13 17.2421L25.32 17.7121L25.12 17.5921V16.6921L24.65 17.5221L24.23 17.2921L25.13 15.6821L25.51 15.8921V17.1321L26.58 16.5121L26.96 16.7221L26.06 18.3321L25.68 18.0721Z" fill="#FFFFA4"/>
</g>
<g style="mix-blend-mode:multiply" opacity="0.8">
<path fill-rule="evenodd" clip-rule="evenodd" d="M32.13 24.2621L35.58 18.1021L36.8 18.6121L32.7 24.5821L32.13 24.2621Z" fill="#E04263"/>
</g>
<g style="mix-blend-mode:soft-light">
<path fill-rule="evenodd" clip-rule="evenodd" d="M31.66 10.3618L53.66 23.5918C53.66 23.5918 60.5 25.2518 63.17 24.3218L31.66 10.3618Z" fill="#FFFFA4"/>
</g>
<path fill-rule="evenodd" clip-rule="evenodd" d="M60.9799 28.6418L54.1299 24.7819C52.12 24.2656 50.1403 23.6379 48.2 22.9019C48.2 22.9019 56.0099 27.1018 60.9799 28.6418Z" fill="white"/>
<defs>
<linearGradient id="paint0_linear_10_5" x1="16.9956" y1="16.5497" x2="21.5795" y2="8.35453" gradientUnits="userSpaceOnUse">
<stop stop-color="#DD6D00"/>
<stop offset="1" stop-color="#FF9000"/>
</linearGradient>
<linearGradient id="paint1_linear_10_5" x1="5.8079" y1="-3.14837" x2="61.2538" y2="27.8647" gradientUnits="userSpaceOnUse">
<stop stop-color="#FCA536"/>
<stop offset="1" stop-color="#FFBF00"/>
</linearGradient>
</defs>
</svg>
