<svg width="53" height="33" viewBox="0 0 53 33" fill="none" xmlns="http://www.w3.org/2000/svg">
<path fill-rule="evenodd" clip-rule="evenodd" d="M1.80762 7.50197C1.78839 7.41163 1.79506 7.3177 1.82691 7.23101C1.85875 7.14431 1.91454 7.06838 1.98767 7.01197L20.6476 12.012C22.2623 10.1356 23.2054 7.77444 23.3276 5.30197L4.1676 0.831974C4.1676 0.831974 3.93768 0.601973 4.36768 0.271973L23.9476 4.80197C23.9476 4.80197 24.3477 8.59197 20.8677 12.852L1.80762 7.50197Z" fill="#71A6FF"/>
<path fill-rule="evenodd" clip-rule="evenodd" d="M4.75769 0.97168C4.75769 0.97168 3.75769 5.53168 2.75769 7.26168L20.6377 11.9717C22.3021 10.1409 23.2562 7.7749 23.3276 5.30168L4.75769 0.97168Z" fill="#EEE1E9"/>
<path fill-rule="evenodd" clip-rule="evenodd" d="M4.20764 0.841797L4.74768 1.0318L23.3376 5.5018L23.3677 5.3018L4.20764 0.841797Z" fill="url(#paint0_radial_10_6)"/>
<path fill-rule="evenodd" clip-rule="evenodd" d="M22.9877 5.41211C22.9877 5.41211 23.7176 8.75211 20.4076 11.8921L20.6476 11.9721C22.3041 10.2171 23.2579 7.91445 23.3276 5.50211L22.9877 5.41211Z" fill="url(#paint1_radial_10_6)"/>
<g style="mix-blend-mode:multiply" opacity="0.8">
<path fill-rule="evenodd" clip-rule="evenodd" d="M4.75769 0.97168L4.69763 1.32168L23.0276 5.73168L22.9777 5.41168L4.75769 0.97168Z" fill="#9A4F8B"/>
</g>
<path fill-rule="evenodd" clip-rule="evenodd" d="M23.9877 4.80176L52.1876 17.5018C52.2739 18.9437 52.0119 20.3853 51.4236 21.7046C50.8353 23.024 49.938 24.1823 48.8076 25.0818L20.8076 12.9018C22.6608 10.5846 23.7694 7.76081 23.9877 4.80176Z" fill="url(#paint2_linear_10_6)"/>
<path d="M46.9677 22.1221C46.9677 22.1221 46.9677 22.0521 46.9677 22.0221L46.1876 21.6521C46.1276 21.6521 46.1176 21.6521 46.0776 21.6521L46.2876 21.3521C46.2876 21.3521 46.2876 21.4121 46.2876 21.4421L47.0576 21.8121C47.0576 21.8121 47.0576 21.8121 47.0576 21.8721L47.1576 21.7121C47.2376 21.5921 47.2576 21.5121 47.1576 21.4421L47.0276 21.3621L47.3877 21.5621H47.3076C47.1876 21.7621 47.1177 21.8621 46.9877 22.0621L46.9677 22.1221Z" fill="#FFE0D6"/>
<path d="M46.9076 21.2718C46.8428 21.2482 46.7842 21.2103 46.736 21.161C46.6879 21.1117 46.6514 21.0523 46.6294 20.987C46.6073 20.9217 46.6001 20.8523 46.6085 20.7839C46.6168 20.7155 46.6405 20.6498 46.6776 20.5918C46.7073 20.5271 46.75 20.4693 46.8029 20.4218C46.8559 20.3743 46.9181 20.3382 46.9856 20.3157C47.053 20.2933 47.1244 20.2848 47.1953 20.291C47.2661 20.2972 47.335 20.3179 47.3975 20.3518C47.4634 20.3771 47.5232 20.4163 47.5725 20.4668C47.6218 20.5173 47.6596 20.5779 47.6833 20.6444C47.7071 20.7109 47.7162 20.7817 47.71 20.852C47.7039 20.9223 47.6825 20.9905 47.6475 21.0518C47.6151 21.1164 47.5697 21.1737 47.5142 21.2201C47.4588 21.2665 47.3945 21.3011 47.3252 21.3217C47.2558 21.3423 47.183 21.3485 47.1112 21.3399C47.0394 21.3313 46.9701 21.3081 46.9076 21.2718ZM47.3676 20.4718C47.0576 20.3218 46.8276 20.3718 46.7076 20.6018C46.5876 20.8318 46.7076 21.0218 46.9476 21.1618C47.1876 21.3018 47.4977 21.2718 47.6277 21.0318C47.7577 20.7918 47.6476 20.6118 47.3276 20.5018L47.3676 20.4718Z" fill="#FFE0D6"/>
<path d="M47.8877 20.5017C47.8877 20.4417 47.8877 20.4317 47.8877 20.4017L47.1077 20.0317C47.0477 20.0317 47.0377 20.0317 47.0077 20.0317C47.0604 19.9209 47.107 19.8074 47.1476 19.6917C47.2376 19.4817 47.4076 19.4017 47.5776 19.4817C47.653 19.5185 47.7126 19.5811 47.7456 19.6582C47.7786 19.7353 47.783 19.8217 47.7577 19.9017C47.7715 19.8742 47.7912 19.8501 47.8154 19.8311C47.8396 19.8121 47.8676 19.7986 47.8976 19.7917H48.0276C48.0976 19.7917 48.1977 19.7917 48.2177 19.7217C48.2322 19.7672 48.2322 19.8161 48.2177 19.8617C48.2177 19.9217 48.1076 19.9417 48.0276 19.9517H47.8477C47.7577 19.9517 47.7176 19.9517 47.6876 20.0317V19.9717C47.7576 19.8117 47.6876 19.6817 47.5176 19.6017C47.3476 19.5217 47.2176 19.6017 47.1476 19.7117V19.8517C47.1476 19.8517 47.1477 19.8517 47.2177 19.8517L47.9877 20.2217C48.0577 20.2217 48.0676 20.2217 48.0876 20.2217V20.1417C48.0276 20.2817 47.9976 20.3617 47.9276 20.5017H47.8877Z" fill="#FFE0D6"/>
<path d="M48.0977 19.1519H48.0276C47.8976 19.0919 47.8676 19.1519 47.8376 19.2319L48.2277 19.4219C48.2418 19.4262 48.2547 19.4339 48.2651 19.4444C48.2756 19.4548 48.2833 19.4677 48.2876 19.4819C48.2876 19.3719 48.3477 19.3219 48.3777 19.2119C48.3891 19.185 48.395 19.1561 48.3951 19.1269C48.3953 19.0977 48.3896 19.0687 48.3784 19.0417C48.3672 19.0147 48.3508 18.9902 48.3301 18.9696C48.3093 18.9491 48.2848 18.9328 48.2577 18.9219L48.1576 18.8619L48.4977 19.0519H48.4376C48.4376 19.0519 48.4376 19.0519 48.4376 19.1119C48.3815 19.3185 48.3148 19.5221 48.2377 19.7219V19.6719C48.2377 19.6119 48.2377 19.6019 48.2377 19.5719L47.4576 19.2019C47.3876 19.2019 47.3877 19.2019 47.3577 19.2019C47.4277 18.9919 47.4676 18.8819 47.5276 18.6719H47.4677L47.8276 18.8219H47.7277C47.5877 18.8219 47.5177 18.8219 47.4777 18.9419C47.4377 19.0619 47.4776 19.0619 47.4176 19.1319C47.4435 19.1227 47.4718 19.1227 47.4977 19.1319L47.8376 19.2919V19.2419C47.8472 19.221 47.8521 19.1984 47.8522 19.1755C47.8522 19.1526 47.8472 19.1299 47.8378 19.1091C47.8283 19.0882 47.8145 19.0696 47.7972 19.0546C47.78 19.0395 47.7596 19.0284 47.7377 19.0219L48.1576 19.2219L48.0977 19.1519Z" fill="#FFE0D6"/>
<path d="M48.4476 18.9621C48.4476 18.8921 48.4477 18.8721 48.3777 18.8321L47.6277 18.4421C47.6277 18.4421 47.6276 18.4421 47.5676 18.4921V18.5021V18.3021H48.4677C48.4513 18.3068 48.4339 18.3068 48.4176 18.3021L47.7377 17.5821V17.3721C47.7377 17.4421 47.7377 17.4621 47.7377 17.4821L48.4777 17.8021C48.5477 17.8021 48.5676 17.8021 48.5776 17.7521C48.5776 17.9021 48.5776 17.9821 48.5176 18.1221V18.0721C48.5176 17.9921 48.5176 17.9721 48.5176 17.9621L47.8176 17.6621H47.7577L48.4677 18.4021H47.5476L48.2277 18.7621C48.2277 18.7621 48.2776 18.7621 48.2976 18.7021C48.279 18.7932 48.2557 18.8833 48.2277 18.9721L48.4476 18.9621Z" fill="#FFE0D6"/>
<path d="M48.7876 22.5017C48.7876 22.4417 48.7876 22.4317 48.7876 22.4017L47.9977 22.0317C47.9377 22.0317 47.9276 22.0317 47.8976 22.0317C47.9776 21.9117 48.0076 21.8517 48.0876 21.7217C48.0876 21.7817 48.0876 21.7917 48.0876 21.8217L48.8777 22.2017C48.9377 22.2017 48.9477 22.2017 48.9877 22.2017L48.8076 22.5117L48.7876 22.5017Z" fill="#FFE0D6"/>
<path d="M49.0077 22.1621C49.0077 22.1021 49.0077 22.0921 49.0077 22.0621L48.2177 21.6821C48.1577 21.6821 48.1477 21.6821 48.1177 21.6821C48.1803 21.5821 48.2369 21.4786 48.2876 21.3721C48.3049 21.3292 48.3309 21.2903 48.3638 21.2578C48.3967 21.2253 48.4358 21.1999 48.4789 21.183C48.5219 21.1662 48.5679 21.1583 48.6141 21.1599C48.6603 21.1614 48.7059 21.1724 48.7477 21.1921C48.7887 21.2114 48.8248 21.2396 48.8538 21.2745C48.8827 21.3094 48.9036 21.3502 48.915 21.394C48.9265 21.4379 48.9281 21.4837 48.9199 21.5283C48.9117 21.5729 48.894 21.6151 48.8677 21.6521V21.7521L49.1476 21.8921C49.2176 21.8921 49.2277 21.8921 49.2577 21.8921L49.0876 22.1921L49.0077 22.1621ZM48.2076 21.5421H48.2976L48.7377 21.7521V21.6821C48.7577 21.6495 48.7699 21.6128 48.7736 21.5748C48.7772 21.5368 48.7719 21.4984 48.7584 21.4627C48.7449 21.427 48.7234 21.3948 48.6956 21.3687C48.6677 21.3426 48.6342 21.3232 48.5977 21.3121C48.5653 21.2898 48.5283 21.2751 48.4895 21.2691C48.4507 21.2632 48.4111 21.2661 48.3735 21.2776C48.336 21.2892 48.3016 21.309 48.2728 21.3358C48.2441 21.3626 48.2218 21.3955 48.2076 21.4321L48.1576 21.5221L48.2076 21.5421Z" fill="#FFE0D6"/>
<path d="M49.0676 21.302H49.1277C49.158 21.3208 49.1918 21.333 49.2272 21.3376C49.2625 21.3422 49.2985 21.3392 49.3326 21.3288C49.3667 21.3183 49.3982 21.3007 49.4249 21.2772C49.4516 21.2536 49.4731 21.2246 49.4877 21.192C49.5008 21.166 49.5085 21.1375 49.51 21.1083C49.5115 21.0792 49.5069 21.0501 49.4966 21.0228C49.4862 20.9955 49.4703 20.9707 49.4498 20.9499C49.4293 20.9291 49.4048 20.9128 49.3777 20.902C49.1277 20.792 48.9376 21.212 48.6476 21.082C48.5877 21.0465 48.5439 20.9892 48.5253 20.9221C48.5066 20.855 48.5146 20.7834 48.5476 20.722C48.5748 20.6593 48.6249 20.6093 48.6876 20.582H48.6377H48.5676L48.8777 20.712H48.8176C48.7922 20.6986 48.7643 20.6905 48.7356 20.6883C48.7069 20.686 48.6781 20.6897 48.6509 20.6991C48.6237 20.7085 48.5987 20.7233 48.5775 20.7428C48.5563 20.7622 48.5393 20.7858 48.5276 20.812C48.514 20.8323 48.5053 20.8555 48.5021 20.8797C48.4988 20.9038 48.5011 20.9285 48.5088 20.9516C48.5165 20.9748 48.5295 20.9959 48.5466 21.0133C48.5637 21.0307 48.5846 21.0439 48.6077 21.052C48.8477 21.162 49.0376 20.732 49.3476 20.882C49.3837 20.8984 49.4157 20.9225 49.4414 20.9526C49.4671 20.9827 49.4858 21.0181 49.4963 21.0563C49.5068 21.0944 49.5087 21.1344 49.5021 21.1735C49.4954 21.2125 49.4802 21.2495 49.4576 21.282C49.4437 21.3196 49.4224 21.354 49.3949 21.3832C49.3674 21.4124 49.3343 21.4358 49.2976 21.452C49.2976 21.452 49.2977 21.452 49.2377 21.452H49.2976H49.3777L49.0077 21.292L49.0676 21.302Z" fill="#FFE0D6"/>
<path d="M48.8276 20.1121V20.1721C48.8276 20.2321 48.8276 20.2421 48.8276 20.2721L49.5276 20.6021C49.5453 20.6164 49.5664 20.6258 49.5889 20.6294C49.6113 20.6329 49.6344 20.6306 49.6556 20.6225C49.6769 20.6144 49.6957 20.6008 49.7101 20.5832C49.7245 20.5656 49.734 20.5445 49.7377 20.5221C49.7542 20.4938 49.7643 20.4623 49.7671 20.4296C49.7699 20.397 49.7654 20.3642 49.7539 20.3335C49.7424 20.3028 49.7241 20.2751 49.7006 20.2524C49.677 20.2297 49.6487 20.2125 49.6177 20.2021L48.9877 19.9021C48.9277 19.9021 48.8877 19.9021 48.8677 19.9021C48.8677 19.7921 48.9276 19.7421 48.9576 19.6421C48.9576 19.7021 48.9576 19.7321 49.0276 19.7621L49.6576 20.0621C49.6903 20.0752 49.7202 20.0947 49.7451 20.1197C49.7701 20.1446 49.7896 20.1743 49.8027 20.207C49.8158 20.2398 49.8222 20.2748 49.8213 20.3101C49.8204 20.3453 49.8123 20.38 49.7976 20.4121C49.7894 20.4461 49.7736 20.4777 49.7513 20.5047C49.7291 20.5316 49.701 20.5531 49.6692 20.5676C49.6374 20.582 49.6027 20.589 49.5677 20.5881C49.5328 20.5872 49.4986 20.5783 49.4677 20.5621L48.8176 20.2621C48.7576 20.2621 48.7477 20.2621 48.7177 20.2621C48.7477 20.3121 48.7776 20.2421 48.8276 20.1121Z" fill="#FFE0D6"/>
<path d="M49.9076 20.1418C49.9076 20.0818 49.9077 20.0618 49.8477 20.0218L49.0977 19.6218C49.0977 19.6218 49.0976 19.6218 49.0376 19.6218V19.6818C49.053 19.6138 49.0731 19.547 49.0977 19.4818H50.0176C50.0012 19.4865 49.984 19.4865 49.9677 19.4818L49.2976 18.7618C49.2938 18.6918 49.2938 18.6217 49.2976 18.5518C49.2976 18.6218 49.2976 18.6418 49.2976 18.6618L50.0376 18.9718C50.1176 18.9718 50.1376 18.9718 50.1576 18.9718C50.1576 19.1218 50.1576 19.1918 50.0876 19.3418V19.2918C50.0876 19.2118 50.0876 19.1918 50.0876 19.1818L49.3877 18.8818H49.3276V18.9318L50.0276 19.6818H49.0276L49.7076 20.0418C49.7076 20.0418 49.7076 20.0418 49.7776 19.9718V19.9218C49.7776 20.0318 49.7276 20.0818 49.6976 20.1818L49.9076 20.1418Z" fill="#FFE0D6"/>
<path d="M25.6377 6.90186C25.6377 6.90186 25.7177 8.90185 23.6377 12.0419L27.8976 14.0419C29.1593 12.6813 29.9333 10.9401 30.0977 9.09185L25.6377 6.90186Z" fill="url(#paint3_linear_10_6)"/>
<path d="M30.9576 11.8418L31.3976 12.0418C31.2933 12.4081 31.1456 12.7606 30.9576 13.0918L31.5576 13.3518L31.3577 13.7118L30.3577 13.2418C30.6229 12.8059 30.8249 12.3345 30.9576 11.8418Z" fill="#DDD3E9"/>
<path d="M31.7676 13.0521C31.8039 12.9574 31.8589 12.871 31.9292 12.7978C31.9995 12.7247 32.0838 12.6663 32.177 12.6263C32.2702 12.5862 32.3705 12.5652 32.4719 12.5645C32.5733 12.5638 32.6738 12.5834 32.7676 12.6221C32.8716 12.6607 32.9668 12.7199 33.0473 12.7963C33.1279 12.8727 33.1921 12.9646 33.2361 13.0665C33.28 13.1684 33.3028 13.2782 33.3031 13.3892C33.3034 13.5001 33.2811 13.61 33.2377 13.7121C33.1888 13.8129 33.1201 13.9028 33.036 13.9766C32.9518 14.0505 32.8539 14.1067 32.7477 14.1421C32.6415 14.1775 32.5292 14.1914 32.4176 14.1828C32.306 14.1742 32.1972 14.1434 32.0976 14.0921C32.0046 14.0489 31.9215 13.9869 31.8537 13.9098C31.7859 13.8328 31.7349 13.7425 31.7038 13.6447C31.6728 13.5469 31.6625 13.4438 31.6734 13.3417C31.6844 13.2397 31.7164 13.1411 31.7676 13.0521ZM32.7676 13.5121C32.7932 13.4709 32.8097 13.4247 32.816 13.3765C32.8223 13.3284 32.8183 13.2795 32.8041 13.233C32.7898 13.1866 32.7658 13.1438 32.7336 13.1074C32.7015 13.071 32.662 13.042 32.6177 13.0221C32.4577 12.9521 32.2776 13.0221 32.1776 13.2521C32.1526 13.2912 32.1359 13.3349 32.1284 13.3806C32.1209 13.4263 32.1228 13.4731 32.134 13.518C32.1453 13.563 32.1656 13.6052 32.1937 13.642C32.2218 13.6788 32.2572 13.7095 32.2976 13.7321C32.3459 13.7582 32.3995 13.7728 32.4543 13.7749C32.5091 13.777 32.5637 13.7666 32.6139 13.7444C32.664 13.7222 32.7084 13.6889 32.7438 13.6469C32.7791 13.6049 32.8044 13.5554 32.8176 13.5021L32.7676 13.5121Z" fill="#DDD3E9"/>
<path d="M33.8477 14.392L33.7177 14.332C33.6603 14.4486 33.5968 14.5621 33.5276 14.672L33.0776 14.472C33.3591 14.036 33.5748 13.5609 33.7177 13.062L34.3677 13.342C34.4503 13.3679 34.5267 13.4102 34.5924 13.4665C34.6582 13.5227 34.7118 13.5917 34.7501 13.6693C34.7884 13.7469 34.8107 13.8314 34.8154 13.9178C34.8202 14.0043 34.8072 14.0907 34.7776 14.172C34.7421 14.2663 34.6795 14.348 34.5977 14.4067C34.5158 14.4654 34.4183 14.4986 34.3176 14.502C34.3176 14.722 34.3176 14.832 34.3176 15.052L33.8376 14.832C33.8676 14.662 33.8577 14.572 33.8477 14.392ZM34.2076 13.712L34.0376 13.642C33.997 13.7578 33.9503 13.8712 33.8976 13.982L34.0576 14.052C34.1876 14.112 34.2776 14.052 34.3176 13.972C34.3307 13.9482 34.3382 13.9217 34.3396 13.8946C34.341 13.8675 34.3361 13.8404 34.3256 13.8154C34.315 13.7904 34.2989 13.7681 34.2784 13.7502C34.258 13.7323 34.2338 13.7192 34.2076 13.712Z" fill="#DDD3E9"/>
<path d="M35.8276 15.2719C35.7707 15.3907 35.7038 15.5044 35.6277 15.6119L34.5077 15.1119C34.7942 14.6738 35.0132 14.1951 35.1576 13.6919L36.2577 14.1819C36.2577 14.3319 36.1877 14.4119 36.1277 14.5619L35.4677 14.2719C35.4521 14.33 35.432 14.3869 35.4076 14.4419L35.9777 14.6919C35.9177 14.8319 35.8876 14.9019 35.8176 15.0419L35.2477 14.7819C35.2136 14.8432 35.1835 14.9067 35.1576 14.9719L35.8276 15.2719Z" fill="#DDD3E9"/>
<path d="M37.0276 16.242C37.1545 16.0396 37.2682 15.8291 37.3677 15.612C37.1577 15.762 37.0376 15.842 36.8076 15.982L36.5977 15.892C36.6119 15.6856 36.6119 15.4784 36.5977 15.272C36.5075 15.4855 36.397 15.6897 36.2676 15.882L35.8477 15.692C36.1422 15.2583 36.3619 14.7783 36.4977 14.272L36.8777 14.442C36.9472 14.7721 36.9972 15.106 37.0276 15.442C37.3376 15.212 37.4876 15.092 37.7676 14.852L38.1476 15.012C38.0034 15.5215 37.7844 16.0068 37.4977 16.452L37.0276 16.242Z" fill="#DDD3E9"/>
<path d="M38.9276 15.3618L39.3976 15.5618C39.2542 16.0734 39.0316 16.5593 38.7377 17.0018L38.2676 16.7918C38.5653 16.355 38.7884 15.8718 38.9276 15.3618Z" fill="#DDD3E9"/>
<path d="M40.7377 16.8121C40.6991 16.8916 40.6443 16.9621 40.5768 17.0191C40.5092 17.076 40.4305 17.1181 40.3456 17.1426C40.2607 17.1671 40.1716 17.1735 40.0841 17.1614C39.9966 17.1492 39.9126 17.1188 39.8376 17.0721L39.6377 16.9821L39.4376 17.3121L38.9677 17.1021C39.2616 16.6596 39.4843 16.1737 39.6277 15.6621L40.2976 15.9621C40.3836 15.987 40.4636 16.0292 40.5328 16.086C40.602 16.1428 40.6589 16.2131 40.7001 16.2926C40.7412 16.3722 40.7659 16.4592 40.7723 16.5485C40.7788 16.6378 40.767 16.7275 40.7377 16.8121ZM40.2577 16.6021C40.2688 16.5773 40.2743 16.5505 40.2742 16.5234C40.274 16.4962 40.2681 16.4695 40.2567 16.4448C40.2453 16.4202 40.2289 16.3983 40.2084 16.3806C40.1878 16.3628 40.1637 16.3497 40.1377 16.3421L39.9576 16.2621C39.9076 16.4021 39.8776 16.4721 39.8176 16.6121L39.9877 16.6821C40.0098 16.6976 40.0352 16.7079 40.0619 16.7123C40.0886 16.7166 40.116 16.7149 40.142 16.7072C40.1679 16.6995 40.1918 16.686 40.2118 16.6679C40.2318 16.6497 40.2475 16.6272 40.2577 16.6021Z" fill="#DDD3E9"/>
<path d="M40.4276 17.622L40.7776 17.342C40.8755 17.4876 41.01 17.6048 41.1676 17.682C41.3076 17.742 41.3676 17.682 41.3976 17.682C41.4276 17.682 40.6577 17.322 40.8777 16.762C40.9877 16.492 41.2777 16.352 41.7177 16.552C41.9075 16.6309 42.0756 16.7544 42.2076 16.912C42.1225 17.0224 42.0288 17.126 41.9276 17.222C41.8364 17.0982 41.7163 16.9986 41.5776 16.932C41.4376 16.872 41.3777 16.932 41.3577 16.932C41.3377 16.932 42.1577 17.312 41.8877 17.842C41.7477 18.102 41.3976 18.212 40.9576 18.012C40.7468 17.9364 40.5625 17.8008 40.4276 17.622Z" fill="#DDD3E9"/>
<path d="M42.1077 17.7219C42.2435 17.4608 42.3507 17.1859 42.4277 16.9019L42.9076 17.1119C42.8297 17.3909 42.7259 17.6621 42.5977 17.9219C42.4977 18.1419 42.5277 18.2619 42.6677 18.3219C42.8077 18.3819 42.9277 18.3219 43.0377 18.1119C43.1633 17.8509 43.267 17.58 43.3477 17.3019L43.8177 17.5119C43.7408 17.7991 43.6336 18.0773 43.4977 18.3419C43.4568 18.4394 43.3954 18.527 43.3177 18.5989C43.24 18.6707 43.1479 18.725 43.0474 18.7582C42.947 18.7913 42.8405 18.8026 42.7353 18.7911C42.6301 18.7797 42.5287 18.7458 42.4377 18.6919C42.3431 18.6611 42.2571 18.6087 42.1863 18.5388C42.1156 18.469 42.062 18.3836 42.03 18.2894C41.9979 18.1953 41.9883 18.095 42.0018 17.9965C42.0153 17.8979 42.0516 17.8039 42.1077 17.7219Z" fill="#DDD3E9"/>
<path d="M44.6576 19.6418C44.7916 19.4384 44.9087 19.2244 45.0077 19.0018C44.7777 19.1518 44.6676 19.2318 44.4176 19.3818L44.1976 19.2818C44.2122 19.0721 44.2122 18.8616 44.1976 18.6518C44.0981 18.8657 43.9845 19.0729 43.8577 19.2718L43.4176 19.0718C43.7148 18.6226 43.9408 18.1301 44.0876 17.6118L44.4777 17.7918C44.5541 18.121 44.6076 18.4552 44.6377 18.7918C44.906 18.6072 45.163 18.4069 45.4076 18.1918L45.8076 18.3618C45.6695 18.8863 45.443 19.3835 45.1377 19.8318L44.6576 19.6418Z" fill="#DDD3E9"/>
<g style="mix-blend-mode:soft-light">
<g style="mix-blend-mode:soft-light">
<path d="M44.4576 23.1821L44.2277 22.9921C46.0618 20.8573 47.1192 18.1645 47.2277 15.3521H47.5276C47.4232 18.235 46.3406 20.9965 44.4576 23.1821Z" fill="#DADADA"/>
</g>
</g>
<g style="mix-blend-mode:soft-light">
<g style="mix-blend-mode:soft-light">
<path d="M28.0176 16.0618L27.8276 15.8618C30.8276 12.8618 31.0977 8.15182 31.0977 8.11182H31.3777C31.3777 8.11182 31.0976 12.9918 28.0176 16.0618Z" fill="#DADADA"/>
</g>
</g>
<path opacity="0.35" fill-rule="evenodd" clip-rule="evenodd" d="M23.9877 4.80176L52.1876 17.5018C52.2739 18.9437 52.0119 20.3853 51.4236 21.7046C50.8353 23.024 49.938 24.1823 48.8076 25.0818L20.8076 12.9018C22.6608 10.5846 23.7694 7.76081 23.9877 4.80176Z" fill="#771156"/>
<path fill-rule="evenodd" clip-rule="evenodd" d="M1.80762 7.47168L28.3577 17.5817L48.7377 25.0217L20.8976 12.8617L1.80762 7.47168Z" fill="#4E2C81"/>
<path fill-rule="evenodd" clip-rule="evenodd" d="M0.00774498 14.082C-0.00839353 13.9922 0.000789326 13.8997 0.0343563 13.8149C0.0679233 13.7301 0.124484 13.6564 0.197686 13.602L18.0577 20.602C19.7556 18.8073 20.8107 16.5002 21.0577 14.042L2.32769 8.32197C2.32769 8.32197 2.10766 8.07197 2.54766 7.77197L21.6977 13.592C21.6977 13.592 21.9477 17.402 18.3077 21.522L0.00774498 14.082Z" fill="#7184FF"/>
<path fill-rule="evenodd" clip-rule="evenodd" d="M2.83765 8.50195C2.45994 10.3874 1.83101 12.2137 0.967651 13.932L18.0576 20.652C19.8097 18.8942 20.874 16.5669 21.0576 14.092L2.83765 8.50195Z" fill="#EEE1E9"/>
<path fill-rule="evenodd" clip-rule="evenodd" d="M2.29761 8.32227L2.82764 8.54227L20.9977 14.2723L21.0376 14.0723L2.29761 8.32227Z" fill="url(#paint4_radial_10_6)"/>
<path fill-rule="evenodd" clip-rule="evenodd" d="M20.6476 14.1719C20.6476 14.1719 21.2476 17.5319 17.8276 20.5419L18.0576 20.6319C19.7809 18.9417 20.8266 16.6796 20.9977 14.2719L20.6476 14.1719Z" fill="url(#paint5_radial_10_6)"/>
<path fill-rule="evenodd" clip-rule="evenodd" d="M21.6676 13.5918L49.4376 25.3518C49.565 26.7258 49.366 28.1104 48.8568 29.3928C48.3476 30.6753 47.5428 31.8194 46.5077 32.7318L18.3276 21.5018C20.2502 19.2852 21.4196 16.5155 21.6676 13.5918Z" fill="url(#paint6_linear_10_6)"/>
<g style="mix-blend-mode:multiply" opacity="0.8">
<path fill-rule="evenodd" clip-rule="evenodd" d="M2.83765 8.48193L2.76758 8.83194L20.6776 14.4919L20.6476 14.1719L2.83765 8.48193Z" fill="#9A4F8B"/>
</g>
<g style="mix-blend-mode:multiply" opacity="0.8">
<path fill-rule="evenodd" clip-rule="evenodd" d="M19.0476 16.5721L17.9376 19.9821L15.8577 19.1521L16.7876 16.1021L19.0476 16.5721Z" fill="#9A4F8B"/>
</g>
<path fill-rule="evenodd" clip-rule="evenodd" d="M19.0476 16.5721L16.7876 16.1021C16.3107 16.1552 15.8569 16.3354 15.4734 16.6239C15.0899 16.9124 14.7909 17.2986 14.6077 17.7421L17.5176 18.9021C17.5767 18.4223 17.7456 17.9626 18.0109 17.5586C18.2762 17.1546 18.6309 16.817 19.0476 16.5721Z" fill="url(#paint7_linear_10_6)"/>
<g opacity="0.5">
<path opacity="0.5" d="M29.6876 22.502H29.7776C29.8876 22.502 29.9176 22.502 29.9576 22.402L30.5476 20.972C30.5476 20.862 30.5477 20.842 30.4677 20.792H30.3777L30.9977 21.042H30.9176C30.7976 20.992 30.7777 20.992 30.7377 21.112L30.1576 22.542C30.1314 22.5853 30.0932 22.6201 30.0476 22.642L30.3777 22.782C30.6077 22.872 30.7876 22.892 30.8976 22.662L31.0176 22.432L30.6876 23.102L30.7577 22.962C30.7577 22.962 30.7576 22.962 30.6776 22.962L29.6776 22.542L29.6876 22.502Z" fill="#A9E0FF"/>
<path opacity="0.5" d="M31.3277 22.212C31.3709 22.0899 31.4395 21.9783 31.5289 21.8845C31.6182 21.7907 31.7263 21.7168 31.8462 21.6677C31.9661 21.6186 32.095 21.5954 32.2245 21.5996C32.354 21.6038 32.4812 21.6353 32.5977 21.692C32.7204 21.733 32.8328 21.7998 32.9277 21.8877C33.0225 21.9757 33.0975 22.0829 33.1476 22.2021C33.1978 22.3213 33.222 22.4499 33.2186 22.5792C33.2151 22.7085 33.1842 22.8356 33.1277 22.952C32.9964 23.1349 32.8072 23.2681 32.5907 23.3302C32.3743 23.3922 32.1433 23.3794 31.9351 23.2937C31.7269 23.2081 31.5536 23.0548 31.4434 22.8584C31.3332 22.6621 31.2924 22.4343 31.3277 22.212ZM32.8976 22.912C33.1376 22.322 33.0177 21.912 32.5677 21.732C32.1177 21.552 31.7677 21.732 31.5677 22.262C31.3677 22.792 31.4476 23.262 31.8976 23.432C32.3476 23.602 32.6777 23.432 32.8877 22.912H32.8976Z" fill="#A9E0FF"/>
<path opacity="0.5" d="M32.8877 23.8519H32.9777C33.0977 23.8519 33.1076 23.8519 33.1576 23.7819L33.7477 22.3319C33.7477 22.2119 33.7476 22.2019 33.6676 22.1519H33.5876L34.2177 22.4119C34.3009 22.432 34.379 22.4696 34.4468 22.5219C34.5146 22.5743 34.5706 22.6404 34.6112 22.7159C34.6518 22.7914 34.676 22.8745 34.6823 22.96C34.6885 23.0454 34.6767 23.1313 34.6476 23.2119C34.5919 23.35 34.4843 23.4609 34.3479 23.5207C34.2115 23.5805 34.057 23.5845 33.9176 23.5319C33.9694 23.5585 34.0144 23.5967 34.0491 23.6435C34.0838 23.6904 34.1073 23.7445 34.1177 23.8019V24.0519C34.1177 24.1719 34.1177 24.3519 34.2477 24.3919H34.3376H34.4076H34.3376C34.2601 24.4201 34.1752 24.4201 34.0977 24.3919C33.9777 24.3919 33.9476 24.1819 33.9176 24.0319L33.8477 23.6919C33.8477 23.5419 33.8476 23.4519 33.6876 23.4119H33.7976C33.8605 23.4422 33.9294 23.458 33.9993 23.4584C34.0691 23.4587 34.1381 23.4435 34.2013 23.4138C34.2645 23.3841 34.3204 23.3407 34.3647 23.2867C34.4091 23.2328 34.4408 23.1696 34.4576 23.1019C34.4943 23.0418 34.5167 22.9742 34.5231 22.9042C34.5295 22.8342 34.5197 22.7637 34.4946 22.698C34.4695 22.6324 34.4297 22.5733 34.3782 22.5254C34.3267 22.4776 34.2649 22.4421 34.1976 22.4219L33.9476 22.3119C33.957 22.334 33.9618 22.3578 33.9618 22.3819C33.9618 22.4059 33.957 22.4297 33.9476 22.4519L33.3677 23.8719C33.3677 23.9919 33.3676 24.0119 33.4476 24.0619H33.5876L32.9076 23.7819L32.8877 23.8519Z" fill="#A9E0FF"/>
<path opacity="0.5" d="M35.3276 24.2918L35.3877 24.1618C35.4777 23.9218 35.3877 23.8518 35.2277 23.7918H35.1277L34.8376 24.5118C34.8276 24.5365 34.8127 24.559 34.7938 24.5779C34.7749 24.5968 34.7524 24.6117 34.7277 24.6218L35.2177 24.8218C35.2608 24.8467 35.3088 24.8618 35.3584 24.866C35.408 24.8703 35.458 24.8636 35.5048 24.8464C35.5515 24.8293 35.5938 24.802 35.6289 24.7667C35.664 24.7313 35.6909 24.6887 35.7076 24.6418L35.7976 24.4518L35.4877 25.1018L35.5476 24.9918C35.5319 24.999 35.5149 25.0027 35.4977 25.0027C35.4804 25.0027 35.4633 24.999 35.4476 24.9918L34.3477 24.5418H34.4376C34.5476 24.5418 34.5677 24.5418 34.6177 24.4718L35.2076 23.0218C35.2076 22.9018 35.2077 22.8918 35.1277 22.8418H35.0476L36.0476 23.2418C36.0476 23.2418 36.1177 23.2418 36.1277 23.3018V23.1818L35.9076 23.8618H35.8577L35.9176 23.6818C35.9418 23.6346 35.9549 23.5826 35.9561 23.5296C35.9572 23.4766 35.9462 23.4241 35.9241 23.3759C35.9019 23.3278 35.8692 23.2853 35.8282 23.2516C35.7873 23.218 35.7392 23.1941 35.6876 23.1818L35.3477 23.0418C35.3624 23.0907 35.3624 23.1429 35.3477 23.1918L35.0876 23.8318H35.1876C35.3176 23.8318 35.4576 23.9118 35.5476 23.6818V23.5918L35.2277 24.3718L35.3276 24.2918Z" fill="#A9E0FF"/>
<path opacity="0.5" d="M35.7076 25.0018C35.8376 25.0518 35.8676 25.0018 35.9276 24.8918L36.5676 23.5218C36.5701 23.5052 36.5701 23.4884 36.5676 23.4718C36.5676 23.4118 36.5677 23.3818 36.4777 23.3418H36.3877L36.7377 23.4818L36.7976 25.1318C36.8031 25.1716 36.8031 25.212 36.7976 25.2518L36.8777 25.1618L38.0676 24.0218L38.4376 24.1718H38.3577C38.2377 24.1718 38.2076 24.1718 38.1776 24.2218V24.2818L37.6876 25.6718C37.6276 25.8118 37.6376 25.8518 37.7676 25.9018L37.1277 25.6418H37.2177C37.3477 25.7018 37.3776 25.6418 37.4076 25.6418L37.8777 24.3318V24.2318C37.8777 24.2318 37.8776 24.2318 37.7976 24.3118L36.5476 25.5018L36.4777 23.8018C36.4739 23.7652 36.4739 23.7284 36.4777 23.6918V23.7718L35.8976 25.0218C35.8976 25.0818 35.8977 25.1218 36.0077 25.1718H36.0977L35.6277 24.9818L35.7076 25.0018Z" fill="#A9E0FF"/>
<path opacity="0.5" d="M38.5776 26.1621H38.6576C38.7776 26.1621 38.7876 26.1621 38.8376 26.0921L39.4276 24.6321C39.4776 24.5221 39.4277 24.5021 39.3577 24.4521H39.2676L39.8877 24.7021H39.7976C39.6876 24.7021 39.6677 24.7021 39.6177 24.7821L39.0276 26.2221C39.0276 26.3421 39.0277 26.3521 39.1077 26.4021H39.1976L38.5776 26.1521V26.1621Z" fill="#A9E0FF"/>
<path opacity="0.5" d="M39.3276 26.502H39.4176C39.5276 26.502 39.5477 26.502 39.5977 26.422L40.1876 24.972C40.1876 24.862 40.1877 24.842 40.1077 24.792H40.0276L40.6476 25.042C40.7283 25.0624 40.8038 25.1 40.8688 25.1521C40.9337 25.2043 40.9866 25.2698 41.0239 25.3443C41.0613 25.4187 41.0821 25.5004 41.0851 25.5836C41.0881 25.6668 41.0731 25.7497 41.0411 25.8267C41.0092 25.9036 40.9611 25.9727 40.9 26.0294C40.839 26.0861 40.7665 26.1289 40.6874 26.155C40.6083 26.1812 40.5246 26.1899 40.4418 26.1808C40.359 26.1716 40.2791 26.1448 40.2076 26.102L39.9977 26.022L39.7876 26.552C39.7376 26.662 39.7877 26.682 39.8677 26.732H39.9276L39.3276 26.482V26.502ZM40.3276 24.982C40.3395 25.0088 40.3456 25.0377 40.3456 25.067C40.3456 25.0963 40.3395 25.1252 40.3276 25.152L39.9977 25.962L40.1377 26.022C40.2703 26.075 40.4185 26.0732 40.5498 26.017C40.6811 25.9607 40.7846 25.8546 40.8376 25.722C40.8907 25.5894 40.8889 25.4411 40.8326 25.3099C40.7764 25.1786 40.6702 25.075 40.5376 25.022L40.3577 24.952L40.3276 24.982Z" fill="#A9E0FF"/>
<path opacity="0.5" d="M40.8877 26.4419V26.5419C40.8594 26.6002 40.843 26.6635 40.8398 26.7281C40.8366 26.7928 40.8466 26.8574 40.869 26.9181C40.8914 26.9788 40.9259 27.0344 40.9703 27.0815C41.0148 27.1285 41.0683 27.1661 41.1277 27.1919C41.1756 27.2162 41.2283 27.2297 41.282 27.2315C41.3357 27.2333 41.3891 27.2234 41.4386 27.2024C41.4881 27.1815 41.5324 27.15 41.5685 27.1102C41.6046 27.0704 41.6316 27.0232 41.6476 26.9719C41.8276 26.5319 41.0277 26.2019 41.2477 25.6619C41.2748 25.6052 41.3136 25.5548 41.3615 25.5139C41.4093 25.4731 41.4652 25.4428 41.5255 25.4249C41.5858 25.407 41.6492 25.4019 41.7115 25.41C41.7739 25.4181 41.834 25.4392 41.8877 25.4719C42.0004 25.5214 42.0972 25.601 42.1676 25.7019C42.1719 25.7284 42.1719 25.7554 42.1676 25.7819C42.1641 25.7554 42.1641 25.7285 42.1676 25.7019L42.2177 25.5619L42.0176 26.1519V26.0519C42.0405 26.0036 42.0532 25.9511 42.0549 25.8977C42.0567 25.8443 42.0474 25.791 42.0277 25.7413C42.008 25.6916 41.9784 25.6465 41.9406 25.6088C41.9027 25.571 41.8574 25.5415 41.8076 25.5219C41.7689 25.5006 41.726 25.4881 41.6819 25.4853C41.6378 25.4825 41.5937 25.4895 41.5526 25.5057C41.5115 25.522 41.4746 25.5471 41.4443 25.5793C41.4141 25.6115 41.3913 25.6499 41.3777 25.6919C41.1977 26.1219 42.0176 26.4519 41.7776 27.0219C41.6676 27.3119 41.3976 27.3819 41.0576 27.2519C40.9201 27.192 40.8048 27.0906 40.7277 26.9619C40.7219 26.9255 40.7219 26.8884 40.7277 26.8519C40.7322 26.8885 40.7322 26.9254 40.7277 26.9619L40.6676 27.1219L40.9076 26.4419H40.8877Z" fill="#A9E0FF"/>
<path opacity="0.5" d="M43.0275 25.9721H42.9276C42.8076 25.9221 42.7876 25.9721 42.7476 26.0421L42.2176 27.3321C42.1983 27.3702 42.1876 27.4122 42.1865 27.455C42.1853 27.4978 42.1936 27.5403 42.2108 27.5795C42.228 27.6187 42.2537 27.6536 42.286 27.6817C42.3183 27.7098 42.3563 27.7304 42.3975 27.7421C42.4471 27.77 42.5022 27.7864 42.5589 27.7902C42.6156 27.7939 42.6725 27.7849 42.7253 27.7638C42.7781 27.7427 42.8255 27.71 42.864 27.6682C42.9024 27.6264 42.931 27.5764 42.9476 27.522L43.4176 26.3721C43.4676 26.2521 43.4676 26.1921 43.3576 26.1421H43.2576L43.7376 26.3421H43.6776C43.5576 26.3421 43.5076 26.3421 43.4676 26.4621L42.9976 27.6121C42.9794 27.6736 42.9472 27.7302 42.9036 27.7774C42.8601 27.8246 42.8064 27.8612 42.7465 27.8843C42.6867 27.9075 42.6223 27.9167 42.5583 27.9111C42.4943 27.9055 42.4326 27.8853 42.3776 27.8521C42.3149 27.8342 42.2567 27.8034 42.2065 27.7618C42.1563 27.7202 42.1153 27.6686 42.0861 27.6103C42.057 27.552 42.0403 27.4882 42.0371 27.4231C42.0339 27.358 42.0443 27.2929 42.0676 27.2321L42.5576 26.0421C42.5576 25.9221 42.5576 25.9021 42.4776 25.8521H42.4075L43.0275 25.9721Z" fill="#A9E0FF"/>
<path opacity="0.5" d="M43.0776 28.0018C43.1976 28.0018 43.2276 28.0018 43.2976 27.8918L43.9276 26.5218V26.4718C43.9276 26.4118 43.9276 26.3818 43.8376 26.3418H43.7377L44.0977 26.4818L44.1576 28.1318C44.1654 28.1714 44.1654 28.2122 44.1576 28.2518L44.2377 28.1618L45.4376 27.0218L45.7976 27.1718H45.7177C45.5977 27.1218 45.5676 27.1718 45.5376 27.1718C45.5363 27.1951 45.5363 27.2185 45.5376 27.2418L45.0376 28.6218C45.0376 28.7618 45.0377 28.8018 45.1177 28.8518H45.1776L44.5376 28.5918H44.6277C44.7577 28.6518 44.7976 28.5918 44.8176 28.5918L45.2976 27.2918C45.2929 27.2553 45.2929 27.2183 45.2976 27.1818L45.2177 27.2718L43.9677 28.4618L43.9076 26.7718C43.8998 26.7322 43.8998 26.6914 43.9076 26.6518C43.9076 26.6518 43.9076 26.6518 43.9076 26.7318L43.3176 27.9818C43.322 28.0016 43.322 28.022 43.3176 28.0418C43.3176 28.0418 43.3176 28.1318 43.4376 28.1818H43.5276L43.0576 27.9918L43.0776 28.0018Z" fill="#A9E0FF"/>
</g>
<path d="M24.5476 21.8319C24.5476 21.8319 24.5476 21.7719 24.5476 21.7419L23.8376 21.4319C23.8376 21.4319 23.7777 21.4319 23.7377 21.4319L23.9376 21.1519C23.9376 21.2019 23.9376 21.2119 23.9376 21.2419L24.6476 21.5519C24.6537 21.568 24.6537 21.5858 24.6476 21.6019L24.7577 21.4519C24.8277 21.3519 24.8477 21.2719 24.7577 21.2119L24.6476 21.1519L24.9777 21.3319H24.9076C24.7876 21.5119 24.7276 21.6119 24.5876 21.7919L24.5476 21.8319Z" fill="#FFE0D6"/>
<path d="M24.5276 21.0721C24.4744 21.0509 24.4263 21.0186 24.3867 20.9773C24.347 20.936 24.3166 20.8867 24.2977 20.8327C24.2787 20.7786 24.2716 20.7211 24.2768 20.6641C24.282 20.6071 24.2993 20.5518 24.3277 20.5021C24.3878 20.3844 24.4913 20.2947 24.6163 20.2518C24.7412 20.2088 24.878 20.2161 24.9977 20.2721C25.058 20.292 25.1127 20.3257 25.1578 20.3704C25.2028 20.4151 25.2368 20.4696 25.2571 20.5297C25.2775 20.5898 25.2837 20.6538 25.2751 20.7167C25.2665 20.7796 25.2434 20.8396 25.2077 20.8921C25.136 21 25.0272 21.078 24.9019 21.1111C24.7766 21.1443 24.6434 21.1304 24.5276 21.0721ZM24.9777 20.3321C24.6977 20.2021 24.4777 20.2521 24.3577 20.4621C24.2377 20.6721 24.3577 20.8421 24.5677 20.9621C24.7777 21.0821 25.0777 21.0421 25.1977 20.8321C25.3177 20.6221 25.2377 20.4421 24.9777 20.3321Z" fill="#FFE0D6"/>
<path d="M25.4576 20.3419C25.4576 20.2819 25.4576 20.2819 25.4576 20.2519L24.7477 19.9319C24.6877 19.9319 24.6776 19.9319 24.6476 19.9319L24.7976 19.6119C24.8099 19.5709 24.8305 19.5328 24.8583 19.5001C24.886 19.4674 24.9202 19.4408 24.9587 19.422C24.9973 19.4032 25.0393 19.3926 25.0822 19.3909C25.125 19.3891 25.1677 19.3963 25.2076 19.4119C25.2737 19.4445 25.3255 19.5001 25.3531 19.5684C25.3808 19.6366 25.3824 19.7126 25.3577 19.7819C25.3935 19.7311 25.447 19.6955 25.5077 19.6819H25.6277C25.6877 19.6819 25.7776 19.6819 25.7976 19.6219C25.8121 19.6641 25.8121 19.7098 25.7976 19.7519C25.7976 19.8119 25.6877 19.8219 25.6077 19.8419H25.4476C25.3676 19.8419 25.3276 19.8419 25.2976 19.9219V19.8619C25.3676 19.7119 25.2976 19.6019 25.1476 19.5319C24.9976 19.4619 24.8676 19.5319 24.8076 19.6419L24.7477 19.7719C24.7579 19.7646 24.77 19.7607 24.7826 19.7607C24.7952 19.7607 24.8074 19.7646 24.8176 19.7719L25.5276 20.0819C25.5276 20.0819 25.5877 20.0819 25.6177 20.0819V20.0119L25.4677 20.3419H25.4576Z" fill="#FFE0D6"/>
<path d="M25.7076 19.112H25.6377C25.5277 19.112 25.4877 19.112 25.4677 19.192V19.242L25.8176 19.392C25.8443 19.404 25.8657 19.4253 25.8777 19.452C25.8777 19.352 25.8777 19.302 25.9677 19.202C25.9792 19.1785 25.9857 19.1529 25.9868 19.1268C25.988 19.1006 25.9838 19.0746 25.9744 19.0502C25.965 19.0258 25.9506 19.0035 25.9323 18.9849C25.9139 18.9663 25.892 18.9517 25.8677 18.942H25.7776L26.0977 19.112H26.0376C25.9576 19.342 25.9176 19.452 25.8276 19.672C25.8276 19.612 25.8276 19.602 25.8276 19.572L25.1077 19.262C25.1077 19.262 25.0476 19.262 25.0176 19.262L25.1976 18.772H25.1377L25.4777 18.902H25.3877C25.2577 18.852 25.1876 18.902 25.1476 19.012L25.0876 19.192C25.0978 19.1846 25.1101 19.1807 25.1227 19.1807C25.1352 19.1807 25.1474 19.1846 25.1576 19.192L25.4777 19.332V19.282C25.4899 19.2659 25.4979 19.247 25.5009 19.2271C25.5039 19.2071 25.5017 19.1867 25.4948 19.1678C25.4878 19.1488 25.4762 19.1319 25.4609 19.1187C25.4457 19.1054 25.4273 19.0963 25.4076 19.092L25.7876 19.262L25.7076 19.112Z" fill="#FFE0D6"/>
<path d="M26.0376 18.9219C26.0376 18.8619 26.0377 18.8419 25.9777 18.8119L25.3276 18.5019C25.3276 18.5019 25.3276 18.5019 25.2676 18.5019L25.3176 18.3119H26.1077L25.4977 17.6719C25.494 17.6087 25.494 17.5452 25.4977 17.4819C25.4977 17.5419 25.4977 17.5619 25.4977 17.5819L26.1776 17.8519C26.2476 17.8519 26.2676 17.8519 26.2776 17.8519C26.2776 17.9819 26.2776 18.0519 26.2076 18.1819V18.1319C26.2076 18.0619 26.2076 18.0519 26.2076 18.0319L25.5676 17.7819H25.5077L26.1377 18.4419H25.3376H25.3276L25.9476 18.7519C25.9476 18.7519 25.9476 18.7519 26.0176 18.6919C26.0176 18.7819 26.0176 18.8319 25.9376 18.9319L26.0376 18.9219Z" fill="#FFE0D6"/>
<path d="M26.2277 22.1321C26.2277 22.0821 26.2277 22.0721 26.2277 22.0421L25.5077 21.7321C25.4477 21.7321 25.4376 21.7321 25.4076 21.7321L25.5977 21.4521C25.5977 21.5121 25.5977 21.5221 25.5977 21.5421L26.3076 21.8621C26.3676 21.8621 26.3776 21.8621 26.4076 21.8621L26.2177 22.1421L26.2277 22.1321Z" fill="#FFE0D6"/>
<path d="M26.4376 21.8019C26.4376 21.7419 26.4376 21.7319 26.4376 21.7119L25.7277 21.3919C25.6677 21.3919 25.6577 21.3919 25.6277 21.3919C25.6977 21.2719 25.7376 21.2219 25.7976 21.1019C25.8346 21.0245 25.8995 20.964 25.9792 20.9325C26.059 20.901 26.1478 20.9007 26.2277 20.9319C26.2642 20.9477 26.2966 20.9718 26.3224 21.0022C26.3481 21.0326 26.3666 21.0686 26.3762 21.1072C26.3859 21.1459 26.3865 21.1862 26.3781 21.2252C26.3696 21.2641 26.3524 21.3006 26.3276 21.3319L26.2676 21.4319L26.5276 21.5519C26.5876 21.5519 26.5977 21.5519 26.6277 21.5519C26.5677 21.6619 26.5276 21.7219 26.4576 21.8319L26.4376 21.8019ZM25.7177 21.2719C25.7469 21.2626 25.7783 21.2626 25.8076 21.2719L26.2076 21.4419V21.3819C26.2285 21.3539 26.242 21.3213 26.2471 21.2868C26.2521 21.2524 26.2486 21.2172 26.2367 21.1845C26.2248 21.1517 26.205 21.1225 26.179 21.0993C26.1529 21.0762 26.1215 21.0599 26.0876 21.0519C26.0567 21.0333 26.0222 21.0217 25.9863 21.0178C25.9505 21.0139 25.9142 21.0177 25.88 21.0291C25.8458 21.0405 25.8145 21.0592 25.7882 21.0838C25.7619 21.1084 25.7413 21.1385 25.7277 21.1719V21.2519L25.7177 21.2719Z" fill="#FFE0D6"/>
<path d="M26.5275 21.0318C26.5893 21.0587 26.6588 21.0624 26.7231 21.0421C26.7874 21.0219 26.8423 20.9792 26.8776 20.9218C26.8908 20.8987 26.8987 20.8729 26.9007 20.8463C26.9027 20.8197 26.8987 20.793 26.8891 20.7682C26.8795 20.7433 26.8646 20.7208 26.8453 20.7024C26.826 20.6841 26.8028 20.6702 26.7775 20.6618C26.5575 20.5618 26.3676 20.9518 26.0976 20.8418C26.0707 20.8266 26.0473 20.8059 26.029 20.781C26.0107 20.7561 25.9978 20.7277 25.9912 20.6975C25.9846 20.6673 25.9844 20.636 25.9907 20.6058C25.9969 20.5755 26.0095 20.5469 26.0275 20.5218C26.0539 20.465 26.0954 20.4166 26.1475 20.3818H26.0876L26.3776 20.4918C26.3534 20.4802 26.3271 20.4735 26.3002 20.4722C26.2734 20.471 26.2466 20.4751 26.2214 20.4845C26.1962 20.4938 26.1731 20.5081 26.1535 20.5266C26.134 20.545 26.1184 20.5672 26.1076 20.5918C26.0934 20.6089 26.0837 20.6292 26.0795 20.651C26.0754 20.6728 26.0769 20.6953 26.0839 20.7164C26.091 20.7374 26.1033 20.7563 26.1197 20.7713C26.1361 20.7863 26.156 20.7968 26.1776 20.8018C26.3876 20.9018 26.5776 20.5018 26.8576 20.6218C27.1376 20.7418 27.0376 20.8218 26.9576 20.9918C26.9197 21.0561 26.8641 21.1082 26.7976 21.1418H26.7376H26.7976H26.8676L26.5275 21.0118V21.0318Z" fill="#FFE0D6"/>
<path d="M26.3276 19.9619C26.3276 20.0219 26.3276 20.0319 26.3276 20.0619L26.9576 20.3419C26.9764 20.3516 26.997 20.3569 27.0181 20.3575C27.0391 20.3581 27.0601 20.3539 27.0793 20.3452C27.0986 20.3366 27.1156 20.3237 27.1292 20.3075C27.1427 20.2914 27.1524 20.2724 27.1576 20.2519C27.1727 20.2277 27.1822 20.2003 27.1852 20.1719C27.1882 20.1435 27.1848 20.1147 27.1752 20.0878C27.1656 20.0609 27.15 20.0365 27.1296 20.0165C27.1093 19.9964 27.0847 19.9812 27.0576 19.9719L26.4877 19.7219C26.4277 19.7219 26.3977 19.7219 26.3777 19.7219L26.4677 19.4819C26.4677 19.5419 26.4676 19.5619 26.5276 19.5819L27.0977 19.8419C27.1273 19.8526 27.1543 19.8695 27.1769 19.8915C27.1994 19.9135 27.217 19.9402 27.2284 19.9695C27.2398 19.9989 27.2447 20.0304 27.2428 20.0619C27.2409 20.0934 27.2324 20.1241 27.2177 20.1519C27.2104 20.1842 27.1959 20.2145 27.1753 20.2404C27.1547 20.2663 27.1287 20.2873 27.0989 20.3017C27.0691 20.3161 27.0364 20.3236 27.0033 20.3237C26.9702 20.3237 26.9374 20.3163 26.9076 20.3019L26.3076 20.0419C26.3076 20.0419 26.2477 20.0419 26.2177 20.0419L26.3276 19.9619Z" fill="#FFE0D6"/>
<path d="M27.3276 19.9522C27.3276 19.8922 27.3276 19.8722 27.2676 19.8422L26.5876 19.5022C26.5876 19.5022 26.5876 19.5022 26.5276 19.5022V19.5522C26.5276 19.4722 26.5276 19.4422 26.5876 19.3622H27.3877H27.4476L26.8477 18.7322V18.5322C26.8477 18.5922 26.8477 18.6122 26.8477 18.6322L27.5276 18.9022C27.5976 18.9022 27.6177 18.9022 27.6377 18.9022L27.5576 19.2322V19.1822C27.5576 19.1122 27.5576 19.1022 27.5576 19.0822L26.9176 18.8222L27.5376 19.4822H26.7177H26.6576H26.7076L27.3276 19.7922C27.3276 19.7922 27.3276 19.7922 27.3976 19.7322C27.372 19.8138 27.342 19.8939 27.3076 19.9722L27.3276 19.9522Z" fill="#FFE0D6"/>
<path fill-rule="evenodd" clip-rule="evenodd" d="M47.0977 25.8618C47.0977 25.8618 47.4276 27.7118 45.1876 30.6618L46.6876 31.2518C47.7443 29.8527 48.4042 28.1944 48.5977 26.4518L47.0977 25.8618Z" fill="url(#paint8_linear_10_6)"/>
<path fill-rule="evenodd" clip-rule="evenodd" d="M29.1976 16.7822C29.1976 16.7822 29.9576 20.5422 26.3376 24.7222L26.6476 24.8422C28.6167 22.7159 29.7498 19.9489 29.8376 17.0522L29.1976 16.7822Z" fill="url(#paint9_linear_10_6)"/>
<path fill-rule="evenodd" clip-rule="evenodd" d="M24.2277 14.6818C24.2277 14.6818 24.4776 18.4318 21.0776 22.6818L20.5977 22.4918C22.5349 20.2951 23.7099 17.531 23.9476 14.6118L24.2277 14.6818Z" fill="url(#paint10_linear_10_6)"/>
<path opacity="0.35" fill-rule="evenodd" clip-rule="evenodd" d="M21.6676 13.5918L49.4376 25.3518C49.565 26.7258 49.366 28.1104 48.8568 29.3928C48.3476 30.6753 47.5428 31.8194 46.5077 32.7318L18.3276 21.5018C20.2502 19.2852 21.4196 16.5155 21.6676 13.5918Z" fill="#771156"/>
<defs>
<radialGradient id="paint0_radial_10_6" cx="0" cy="0" r="1" gradientUnits="userSpaceOnUse" gradientTransform="translate(13.8793 3.0551) rotate(19.43) scale(6.97001)">
<stop offset="0.01" stop-color="#515BFF"/>
<stop offset="0.03" stop-color="#515ADD"/>
<stop offset="1" stop-color="#4335BB"/>
</radialGradient>
<radialGradient id="paint1_radial_10_6" cx="0" cy="0" r="1" gradientUnits="userSpaceOnUse" gradientTransform="translate(22.1774 8.75018) rotate(19.4297) scale(2.50003)">
<stop stop-color="#9D94C2"/>
<stop offset="0.98" stop-color="#8C74B1"/>
</radialGradient>
<linearGradient id="paint2_linear_10_6" x1="35.1866" y1="20.1783" x2="38.7859" y2="9.97447" gradientUnits="userSpaceOnUse">
<stop stop-color="#6339AB"/>
<stop offset="1" stop-color="#547ED1"/>
</linearGradient>
<linearGradient id="paint3_linear_10_6" x1="26.0171" y1="13.5048" x2="27.7969" y2="7.57623" gradientUnits="userSpaceOnUse">
<stop stop-color="#FB6300"/>
<stop offset="1" stop-color="#FFBF00"/>
</linearGradient>
<radialGradient id="paint4_radial_10_6" cx="0" cy="0" r="1" gradientUnits="userSpaceOnUse" gradientTransform="translate(11.7454 12.4037) rotate(21.6951) scale(6.94624)">
<stop offset="0.01" stop-color="#515BFF"/>
<stop offset="0.03" stop-color="#515ADD"/>
<stop offset="1" stop-color="#4335BB"/>
</radialGradient>
<radialGradient id="paint5_radial_10_6" cx="0" cy="0" r="1" gradientUnits="userSpaceOnUse" gradientTransform="translate(19.6991 18.7023) rotate(21.6948) scale(2.50228)">
<stop stop-color="#9D94C2"/>
<stop offset="0.98" stop-color="#8C74B1"/>
</radialGradient>
<linearGradient id="paint6_linear_10_6" x1="32.9079" y1="28.5247" x2="36.0973" y2="20.5081" gradientUnits="userSpaceOnUse">
<stop stop-color="#433599"/>
<stop offset="1" stop-color="#515ABA"/>
</linearGradient>
<linearGradient id="paint7_linear_10_6" x1="16.3868" y1="19.6361" x2="17.397" y2="17.0972" gradientUnits="userSpaceOnUse">
<stop stop-color="#DD1D33"/>
<stop offset="1" stop-color="#FF4827"/>
</linearGradient>
<linearGradient id="paint8_linear_10_6" x1="46.2003" y1="32.2619" x2="48.1095" y2="27.4631" gradientUnits="userSpaceOnUse">
<stop stop-color="#FB6300"/>
<stop offset="1" stop-color="#FFBF00"/>
</linearGradient>
<linearGradient id="paint9_linear_10_6" x1="26.8257" y1="26.1053" x2="29.9448" y2="18.2654" gradientUnits="userSpaceOnUse">
<stop stop-color="#FB6300"/>
<stop offset="1" stop-color="#FFBF00"/>
</linearGradient>
<linearGradient id="paint10_linear_10_6" x1="21.2365" y1="23.8812" x2="24.4037" y2="15.9204" gradientUnits="userSpaceOnUse">
<stop stop-color="#FB6300"/>
<stop offset="1" stop-color="#FFBF00"/>
</linearGradient>
</defs>
</svg>
