<svg width="176" height="35" viewBox="0 0 176 35" fill="none" xmlns="http://www.w3.org/2000/svg">
<path d="M0.0640001 33V27.624H3.952V10.104H0.0640001V4.728H12.784C16.592 4.728 19.504 5.4 21.52 6.744C23.536 8.056 24.544 9.944 24.544 12.408C24.544 13.848 24.208 15.096 23.536 16.152C22.896 17.208 21.968 18.04 20.752 18.648C22.256 19.064 23.408 19.832 24.208 20.952C25.008 22.072 25.408 23.496 25.408 25.224C25.408 27.72 24.576 29.64 22.912 30.984C21.28 32.328 18.896 33 15.76 33H0.0640001ZM10.144 27.624H14.656C16.064 27.624 17.136 27.352 17.872 26.808C18.64 26.264 19.024 25.464 19.024 24.408C19.024 23.384 18.672 22.616 17.968 22.104C17.264 21.56 16.256 21.288 14.944 21.288H10.144V27.624ZM10.144 16.44H14.992C16.016 16.44 16.784 16.168 17.296 15.624C17.84 15.08 18.112 14.312 18.112 13.32C18.112 11.176 16.512 10.104 13.312 10.104H10.144V16.44ZM34.6454 10.248C37.1414 10.248 39.2534 10.728 40.9814 11.688C42.7094 12.616 44.0214 13.976 44.9174 15.768C45.8134 17.528 46.2614 19.656 46.2614 22.152C46.2614 25.864 45.2534 28.76 43.2374 30.84C41.2214 32.92 38.3574 33.96 34.6454 33.96C32.2134 33.96 30.1334 33.496 28.4054 32.568C26.7094 31.64 25.4134 30.296 24.5174 28.536C23.6534 26.744 23.2214 24.616 23.2214 22.152C23.2214 19.656 23.6534 17.528 24.5174 15.768C25.4134 13.976 26.7094 12.616 28.4054 11.688C30.1334 10.728 32.2134 10.248 34.6454 10.248ZM34.6934 15.192C32.8694 15.192 31.4934 15.784 30.5654 16.968C29.6374 18.152 29.1734 19.88 29.1734 22.152C29.1734 24.424 29.6374 26.152 30.5654 27.336C31.4934 28.52 32.8694 29.112 34.6934 29.112C36.5494 29.112 37.9414 28.52 38.8694 27.336C39.8294 26.152 40.3094 24.424 40.3094 22.152C40.3094 19.88 39.8294 18.152 38.8694 16.968C37.9414 15.784 36.5494 15.192 34.6934 15.192ZM55.8798 10.248C58.3758 10.248 60.4878 10.728 62.2158 11.688C63.9438 12.616 65.2558 13.976 66.1518 15.768C67.0478 17.528 67.4958 19.656 67.4958 22.152C67.4958 25.864 66.4878 28.76 64.4718 30.84C62.4558 32.92 59.5918 33.96 55.8798 33.96C53.4478 33.96 51.3678 33.496 49.6398 32.568C47.9438 31.64 46.6478 30.296 45.7518 28.536C44.8878 26.744 44.4558 24.616 44.4558 22.152C44.4558 19.656 44.8878 17.528 45.7518 15.768C46.6478 13.976 47.9438 12.616 49.6398 11.688C51.3678 10.728 53.4478 10.248 55.8798 10.248ZM55.9278 15.192C54.1038 15.192 52.7278 15.784 51.7998 16.968C50.8718 18.152 50.4078 19.88 50.4078 22.152C50.4078 24.424 50.8718 26.152 51.7998 27.336C52.7278 28.52 54.1038 29.112 55.9278 29.112C57.7838 29.112 59.1758 28.52 60.1038 27.336C61.0638 26.152 61.5438 24.424 61.5438 22.152C61.5438 19.88 61.0638 18.152 60.1038 16.968C59.1758 15.784 57.7838 15.192 55.9278 15.192ZM65.8341 0.407999L74.9061 3.48V19.896H78.0741L80.3301 16.056H77.9301V11.208H90.0261V16.056H86.5221L82.2981 22.2L86.5221 28.152H90.4581V33H83.5941L78.3141 24.696H74.9061V28.152H76.2981V33H64.7781V28.152H68.8101V6.84L64.2501 5.304L65.8341 0.407999ZM92.6005 9.48C92.6005 6.44 93.3525 4.136 94.8565 2.568C96.3605 0.999999 98.6325 0.215999 101.673 0.215999C103.081 0.215999 104.377 0.391998 105.561 0.743998C106.745 1.064 107.753 1.56 108.585 2.232L106.569 6.456C105.001 5.624 103.641 5.208 102.489 5.208C101.241 5.208 100.249 5.528 99.5125 6.168C98.8085 6.808 98.4565 7.88 98.4565 9.384V11.208H104.409V16.056H98.4565V28.152H102.777V33H88.5685V28.152H92.6005V16.056H88.5685V11.208H92.6005V9.48ZM107.913 11.208H117.993V28.152H121.977V33H107.913V28.152H111.897V16.056H107.913V11.208ZM114.441 0.743998C115.465 0.743998 116.297 1.064 116.937 1.704C117.577 2.344 117.897 3.176 117.897 4.2C117.897 5.224 117.577 6.056 116.937 6.696C116.297 7.304 115.465 7.608 114.441 7.608C113.417 7.608 112.585 7.304 111.945 6.696C111.337 6.056 111.033 5.224 111.033 4.2C111.033 3.176 111.337 2.344 111.945 1.704C112.585 1.064 113.417 0.743998 114.441 0.743998ZM140.388 30.312C138.916 31.56 137.38 32.472 135.78 33.048C134.212 33.656 132.66 33.96 131.124 33.96C128.628 33.96 126.452 33.464 124.596 32.472C122.74 31.448 121.3 30.056 120.276 28.296C119.284 26.504 118.788 24.472 118.788 22.2C118.788 19.8 119.268 17.704 120.228 15.912C121.188 14.12 122.516 12.728 124.212 11.736C125.908 10.744 127.876 10.248 130.116 10.248C132.452 10.248 134.468 10.712 136.164 11.64C137.892 12.568 139.22 13.864 140.148 15.528C141.108 17.16 141.588 19.096 141.588 21.336C141.588 21.752 141.556 22.232 141.492 22.776C141.46 23.32 141.396 23.832 141.3 24.312H124.596C124.724 25.4 125.092 26.312 125.7 27.048C126.308 27.784 127.076 28.328 128.004 28.68C128.964 29.032 130.004 29.208 131.124 29.208C132.468 29.208 133.764 28.984 135.012 28.536C136.26 28.088 137.396 27.464 138.42 26.664L140.388 30.312ZM135.54 20.28C135.54 18.776 135.076 17.56 134.148 16.632C133.22 15.672 131.94 15.192 130.308 15.192C128.836 15.192 127.556 15.672 126.468 16.632C125.38 17.56 124.804 18.776 124.74 20.28H135.54ZM138.191 33V28.152H142.223V6.84L137.663 5.304L139.247 0.407999L148.319 3.48V28.152H152.351V33H138.191ZM173.547 34.248L167.499 32.184C165.707 33.368 163.563 33.96 161.067 33.96C157.387 33.96 154.523 32.92 152.475 30.84C150.427 28.728 149.403 25.784 149.403 22.008C149.403 18.296 150.427 15.416 152.475 13.368C154.523 11.288 157.387 10.248 161.067 10.248C161.675 10.248 162.331 10.312 163.035 10.44C163.771 10.568 164.491 10.744 165.195 10.968V7.224L160.395 5.544L162.123 0.36L171.291 3.48V27.672L175.227 29.016L173.547 34.248ZM161.115 29.112C161.755 29.112 162.443 29.032 163.179 28.872C163.947 28.68 164.619 28.424 165.195 28.104V16.056C164.683 15.8 164.043 15.592 163.275 15.432C162.539 15.272 161.819 15.192 161.115 15.192C159.451 15.192 158.107 15.816 157.083 17.064C156.091 18.312 155.595 19.96 155.595 22.008C155.595 24.152 156.091 25.88 157.083 27.192C158.107 28.472 159.451 29.112 161.115 29.112Z" fill="#F1F1F1"/>
</svg>
