<svg width="107" height="110" viewBox="0 0 107 110" fill="none" xmlns="http://www.w3.org/2000/svg">
<ellipse cx="83.9241" cy="21.9849" rx="9.67412" ry="9.7349" fill="#FCFCFC"/>
<path opacity="0.4" d="M95.259 34.6997C94.8832 34.6876 94.5258 34.5329 94.2585 34.2668L91.9676 31.589C91.4764 31.1398 91.4362 30.3764 91.8775 29.8776C92.0841 29.6686 92.3649 29.551 92.6579 29.551C92.9508 29.551 93.2316 29.6686 93.4382 29.8776L96.3194 32.1829C96.7344 32.6077 96.8625 33.2383 96.6464 33.7929C96.4303 34.3475 95.9103 34.7224 95.319 34.7501L95.259 34.6997Z" fill="#FCFCFC"/>
<path fill-rule="evenodd" clip-rule="evenodd" d="M13.1333 25.7222L28.7003 41.2054L98.0487 68.7322C98.0487 68.7322 99.6113 72.4541 94.0921 80.9041L94.9058 81.5104C94.9058 81.5104 101.692 74.7939 99.4987 68.3215L77.9153 42.0534L13.1333 25.7222Z" fill="#B32742"/>
<path fill-rule="evenodd" clip-rule="evenodd" d="M13.5355 24.5681L78.3032 41.3997L77.7781 42.7885L13.1334 25.7222L13.5355 24.5681Z" fill="#E55947"/>
<path fill-rule="evenodd" clip-rule="evenodd" d="M98.0328 68.774L76.8068 44.5463C76.8068 44.5463 76.2769 52.8145 69.9506 63.1422L94.0762 80.9458C94.0762 80.9458 100.314 73.338 98.0328 68.774Z" fill="#EEE1E9"/>
<path fill-rule="evenodd" clip-rule="evenodd" d="M16.641 28.3491C16.6194 29.5655 16.4588 30.7755 16.1622 31.9554L18.6296 34.3188L15.7628 33.5401C15.6779 33.8751 15.579 34.2096 15.4647 34.5716L16.0176 35.1738L15.3792 34.9208C14.2332 38.4213 12.7415 41.799 10.9262 45.004L69.9379 63.1136C69.9379 63.1136 77.2116 53.5673 76.7941 44.5177L16.641 28.3491Z" fill="#8C6FA4"/>
<path fill-rule="evenodd" clip-rule="evenodd" d="M78.3032 41.3997L100.17 67.9621C100.49 70.6572 100.199 73.3898 99.3167 75.9566C98.4349 78.5234 96.9858 80.8583 95.0771 82.7878L68.9548 64.6519L69.5439 62.9201L94.8337 81.5497C96.5251 79.8265 97.8141 77.7502 98.6082 75.4699C99.4022 73.1896 99.6817 70.7618 99.4266 68.3607L77.7488 42.8154L78.3032 41.3997Z" fill="url(#paint0_linear_36_466)"/>
<path fill-rule="evenodd" clip-rule="evenodd" d="M69.5734 62.8933L7.92406 44.0923L7.5378 45.2047L68.9843 64.625L69.5734 62.8933Z" fill="#E55947"/>
<path fill-rule="evenodd" clip-rule="evenodd" d="M7.53758 45.2047L35.0919 58.3991L95.077 82.7879L68.9841 64.625L7.53758 45.2047Z" fill="#B32742"/>
<path fill-rule="evenodd" clip-rule="evenodd" d="M76.4892 48.844L95.0022 68.8632L76.2694 49.8577L18.6633 34.3554L16.1959 31.992L76.4892 48.844Z" fill="#745090"/>
<path fill-rule="evenodd" clip-rule="evenodd" d="M75.8382 51.5258L91.1508 66.6876L75.7563 51.7904L16.0659 35.197L15.5057 34.6015L75.8382 51.5258Z" fill="#745090"/>
<g style="mix-blend-mode:multiply" opacity="0.8">
<path fill-rule="evenodd" clip-rule="evenodd" d="M94.0763 80.9458L92.7699 79.9797C92.7699 79.9797 98.5385 74.2781 97.3734 68.8516L76.8182 45.7674L76.8136 44.5536L98.0397 68.7813C98.0397 68.7813 101.02 72.1898 94.0763 80.9458Z" fill="#9A4F8B"/>
</g>
<g style="mix-blend-mode:multiply" opacity="0.8">
<path fill-rule="evenodd" clip-rule="evenodd" d="M81.4855 76.8866L64.6801 65.6123L56.1487 62.658L73.7266 73.5208L81.4855 76.8866Z" fill="#B02463"/>
</g>
<path fill-rule="evenodd" clip-rule="evenodd" d="M98.033 68.774C98.033 68.774 100.207 72.7196 94.0763 80.9459C94.0763 80.9459 100.776 74.0916 98.033 68.774Z" fill="#5C326C"/>
<path fill-rule="evenodd" clip-rule="evenodd" d="M82.0645 57.8953C82.0645 57.8953 85.6488 57.5687 87.5929 58.802L88.7421 59.9801L90.8165 62.623C90.8165 62.623 87.253 60.4809 84.8983 60.599L82.0645 57.8953Z" fill="url(#paint1_linear_36_466)"/>
<path fill-rule="evenodd" clip-rule="evenodd" d="M87.593 58.802C87.593 58.802 91.7286 61.9212 87.536 70.5338C83.7641 78.2189 83.9109 82.2118 83.9109 82.2118L89.8916 86.0732C91.5389 73.1252 95.4506 69.9267 90.8459 62.5961C89.8806 61.2341 88.7917 59.964 87.593 58.802Z" fill="url(#paint2_linear_36_466)"/>
<g style="mix-blend-mode:multiply" opacity="0.8">
<path fill-rule="evenodd" clip-rule="evenodd" d="M82.0645 57.8954L76.2842 67.8302L78.6237 69.5531L78.1728 71.0226L81.5509 73.3756L82.2286 72.2121L79.8008 70.4078L84.8763 60.6193L82.0645 57.8954Z" fill="#9A4F8B"/>
</g>
<path fill-rule="evenodd" clip-rule="evenodd" d="M54.4353 29.1251C54.2771 29.2984 54.0711 29.421 53.8433 29.4773C53.6155 29.5336 53.3761 29.5211 53.1554 29.4413C52.9347 29.3615 52.7426 29.2181 52.6034 29.0291C52.4643 28.8401 52.3843 28.6141 52.3736 28.3797C52.3628 28.1453 52.4219 27.9129 52.5433 27.7121C52.6646 27.5112 52.8428 27.3508 53.0553 27.2513C53.2678 27.1517 53.5051 27.1174 53.7371 27.1527C53.9691 27.1879 54.1854 27.2912 54.3587 27.4495C54.591 27.6616 54.7295 27.9572 54.7439 28.2714C54.7582 28.5856 54.6472 28.8927 54.4353 29.1251Z" fill="white"/>
<path style="mix-blend-mode:screen" opacity="0.61" fill-rule="evenodd" clip-rule="evenodd" d="M57.0907 31.5458C56.4551 32.2446 55.6266 32.7391 54.7099 32.967C53.7933 33.1948 52.8296 33.1457 51.9409 32.8259C51.0521 32.506 50.2782 31.9298 49.7169 31.1701C49.1557 30.4104 48.8324 29.5013 48.7878 28.5578C48.7433 27.6143 48.9795 26.6787 49.4667 25.8695C49.9538 25.0603 50.6701 24.4137 51.5247 24.0115C52.3794 23.6094 53.3341 23.4697 54.2682 23.6102C55.2022 23.7507 56.0736 24.165 56.7722 24.8007C57.2371 25.222 57.6142 25.731 57.8819 26.2984C58.1496 26.8658 58.3027 27.4804 58.3322 28.1071C58.3618 28.7338 58.2674 29.3602 58.0543 29.9503C57.8413 30.5404 57.5138 31.0826 57.0907 31.5458Z" fill="url(#paint3_radial_36_466)"/>
<path style="mix-blend-mode:screen" opacity="0.61" fill-rule="evenodd" clip-rule="evenodd" d="M55.2093 29.8354C54.9157 30.1669 54.53 30.4037 54.1015 30.5155C53.6729 30.6274 53.2207 30.6092 52.8025 30.4634C52.3843 30.3177 52.0188 30.0508 51.7526 29.6968C51.4865 29.3428 51.3316 28.9176 51.3076 28.4753C51.2837 28.033 51.3918 27.5936 51.6183 27.213C51.8447 26.8323 52.1793 26.5276 52.5793 26.3375C52.9794 26.1475 53.427 26.0807 53.8651 26.1456C54.3032 26.2106 54.7121 26.4044 55.0399 26.7023C55.4744 27.0974 55.7358 27.6477 55.7675 28.2341C55.7993 28.8205 55.5987 29.3958 55.2093 29.8354Z" fill="url(#paint4_radial_36_466)"/>
<path fill-rule="evenodd" clip-rule="evenodd" d="M40.1721 69.2991C40.112 69.3648 40.0337 69.411 39.9471 69.432C39.8606 69.453 39.7698 69.4478 39.6862 69.4171C39.6027 69.3863 39.5302 69.3313 39.478 69.2592C39.4257 69.1871 39.3961 69.1011 39.393 69.0121C39.3898 68.9231 39.4131 68.8352 39.4601 68.7596C39.507 68.6839 39.5754 68.6239 39.6565 68.5872C39.7377 68.5506 39.8279 68.5389 39.9157 68.5536C40.0035 68.5684 40.0849 68.609 40.1496 68.6702C40.2352 68.7511 40.2854 68.8624 40.2897 68.98C40.2939 69.0977 40.2517 69.2123 40.1721 69.2991Z" fill="white"/>
<path style="mix-blend-mode:screen" opacity="0.61" fill-rule="evenodd" clip-rule="evenodd" d="M41.1779 70.2031C40.9388 70.462 40.6287 70.6448 40.2863 70.7286C39.944 70.8124 39.5845 70.7935 39.2528 70.6743C38.9211 70.5552 38.6319 70.3409 38.4211 70.0584C38.2104 69.7759 38.0876 69.4376 38.0679 69.0857C38.0482 68.7338 38.1326 68.3839 38.3105 68.0796C38.4884 67.7754 38.752 67.5302 39.0683 67.3748C39.3847 67.2194 39.7398 67.1606 40.0893 67.2057C40.4389 67.2509 40.7674 67.3979 41.0339 67.6285C41.2158 67.7859 41.3642 67.9783 41.4703 68.1942C41.5763 68.4101 41.6379 68.6451 41.6514 68.8853C41.6648 69.1255 41.6298 69.3659 41.5485 69.5923C41.4671 69.8187 41.3411 70.0264 41.1779 70.2031Z" fill="url(#paint5_radial_36_466)"/>
<path style="mix-blend-mode:screen" opacity="0.61" fill-rule="evenodd" clip-rule="evenodd" d="M40.4351 69.5855C40.3237 69.7083 40.1784 69.7953 40.0176 69.8355C39.8567 69.8756 39.6876 69.8672 39.5316 69.8111C39.3756 69.7551 39.2397 69.654 39.1412 69.5207C39.0427 69.3873 38.986 69.2278 38.9782 69.0622C38.9704 68.8966 39.012 68.7324 39.0976 68.5905C39.1832 68.4485 39.309 68.3352 39.4591 68.2648C39.6092 68.1944 39.7768 68.1701 39.9407 68.195C40.1045 68.22 40.2573 68.293 40.3797 68.4048C40.4618 68.4781 40.5285 68.567 40.5759 68.6664C40.6232 68.7658 40.6503 68.8736 40.6554 68.9836C40.6606 69.0935 40.6438 69.2034 40.6059 69.3067C40.5681 69.4101 40.51 69.5049 40.4351 69.5855Z" fill="url(#paint6_radial_36_466)"/>
<path fill-rule="evenodd" clip-rule="evenodd" d="M60.1302 72.8479C59.9769 73.015 59.7636 73.1145 59.537 73.1247C59.3104 73.1348 59.089 73.0548 58.9213 72.9021C58.8359 72.8272 58.7663 72.736 58.7168 72.6337C58.6673 72.5315 58.6389 72.4203 58.6332 72.3068C58.6275 72.1934 58.6447 72.0799 58.6837 71.9733C58.7228 71.8666 58.7829 71.7688 58.8604 71.6858C59.0138 71.5187 59.2271 71.4192 59.4537 71.4091C59.6803 71.3989 59.9016 71.479 60.0693 71.6317C60.1548 71.7065 60.2244 71.7978 60.2739 71.9C60.3234 72.0023 60.3518 72.1134 60.3575 72.2269C60.3632 72.3403 60.346 72.4538 60.3069 72.5605C60.2679 72.6672 60.2078 72.7649 60.1302 72.8479Z" fill="white"/>
<path style="mix-blend-mode:screen" opacity="0.61" fill-rule="evenodd" clip-rule="evenodd" d="M62.0655 74.6171C61.6044 75.1222 61.004 75.4792 60.3401 75.6432C59.6761 75.8072 58.9785 75.7707 58.3352 75.5384C57.692 75.3061 57.1321 74.8883 56.7262 74.3379C56.3203 73.7875 56.0867 73.1291 56.0548 72.446C56.0229 71.7628 56.1942 71.0855 56.5471 70.4997C56.9 69.9139 57.4186 69.4458 58.0373 69.1546C58.6561 68.8633 59.3473 68.7621 60.0237 68.8635C60.7 68.965 61.3311 69.2646 61.8372 69.7245C62.1739 70.0305 62.4469 70.3999 62.6406 70.8115C62.8344 71.2232 62.945 71.669 62.9662 72.1234C62.9874 72.5779 62.9188 73.0321 62.7642 73.46C62.6097 73.8879 62.3722 74.2811 62.0655 74.6171Z" fill="url(#paint7_radial_36_466)"/>
<path style="mix-blend-mode:screen" opacity="0.61" fill-rule="evenodd" clip-rule="evenodd" d="M60.6872 73.3514C60.4718 73.5877 60.1911 73.7548 59.8807 73.8315C59.5703 73.9082 59.2441 73.891 58.9434 73.7821C58.6427 73.6732 58.3812 73.4776 58.1918 73.2199C58.0025 72.9622 57.8939 72.6541 57.8799 72.3346C57.8658 72.0152 57.9469 71.6987 58.1128 71.4254C58.2788 71.1521 58.5221 70.9341 58.812 70.7992C59.1019 70.6643 59.4254 70.6185 59.7414 70.6676C60.0573 70.7167 60.3516 70.8585 60.5869 71.075C60.9012 71.3641 61.0881 71.7659 61.1069 72.1925C61.1257 72.6191 60.9748 73.0357 60.6872 73.3514Z" fill="url(#paint8_radial_36_466)"/>
<path fill-rule="evenodd" clip-rule="evenodd" d="M34.817 57.5688C34.7029 57.6938 34.5543 57.7823 34.3901 57.823C34.2258 57.8638 34.0531 57.855 33.8938 57.7978C33.7345 57.7406 33.5957 57.6375 33.4949 57.5015C33.3941 57.3655 33.3358 57.2028 33.3273 57.0337C33.3189 56.8647 33.3606 56.6969 33.4474 56.5516C33.5341 56.4062 33.6619 56.2898 33.8147 56.2169C33.9674 56.1441 34.1384 56.1181 34.3059 56.1422C34.4734 56.1664 34.6301 56.2395 34.7561 56.3525C34.9217 56.508 35.0206 56.7216 35.0319 56.9484C35.0433 57.1752 34.9662 57.3976 34.817 57.5688Z" fill="white"/>
<path style="mix-blend-mode:screen" opacity="0.61" fill-rule="evenodd" clip-rule="evenodd" d="M36.7248 59.3226C36.2635 59.8281 35.6627 60.1855 34.9983 60.3495C34.3339 60.5135 33.6358 60.4768 32.9922 60.244C32.3487 60.0111 31.7887 59.5927 31.383 59.0415C30.9774 58.4904 30.7443 57.8313 30.7133 57.1476C30.6823 56.464 30.8547 55.7865 31.2088 55.2009C31.5629 54.6152 32.0828 54.1478 32.7026 53.8577C33.3224 53.5675 34.0143 53.4678 34.6908 53.571C35.3674 53.6741 35.9981 53.9757 36.5032 54.4374C37.18 55.056 37.5836 55.9181 37.6251 56.8341C37.6667 57.7502 37.3428 58.6452 36.7248 59.3226Z" fill="url(#paint9_radial_36_466)"/>
<path style="mix-blend-mode:screen" opacity="0.61" fill-rule="evenodd" clip-rule="evenodd" d="M35.3227 58.1196C35.1075 58.3555 34.8272 58.5223 34.5172 58.599C34.2073 58.6756 33.8815 58.6587 33.5812 58.5503C33.2808 58.4419 33.0194 58.2469 32.8298 57.99C32.6402 57.733 32.5311 57.4257 32.5161 57.1067C32.5012 56.7878 32.5811 56.4715 32.7458 56.198C32.9105 55.9244 33.1527 55.7059 33.4416 55.5699C33.7304 55.4339 34.0532 55.3866 34.3689 55.4339C34.6847 55.4813 34.9794 55.6211 35.2157 55.8359C35.374 55.978 35.5025 56.1501 35.5937 56.3423C35.6849 56.5345 35.737 56.7429 35.7469 56.9553C35.7569 57.1678 35.7245 57.3802 35.6517 57.5801C35.5788 57.7799 35.467 57.9633 35.3227 58.1196Z" fill="url(#paint10_radial_36_466)"/>
<path fill-rule="evenodd" clip-rule="evenodd" d="M47.2536 47.4105C47.1747 47.4957 47.0723 47.5556 46.9593 47.5827C46.8464 47.6098 46.7279 47.6029 46.6189 47.5628C46.5099 47.5226 46.4152 47.4511 46.3468 47.3573C46.2783 47.2634 46.2392 47.1514 46.2344 47.0353C46.2295 46.9193 46.2591 46.8044 46.3195 46.7052C46.3798 46.6059 46.4682 46.5267 46.5735 46.4776C46.6788 46.4286 46.7962 46.4117 46.9111 46.4293C47.0259 46.4469 47.1329 46.4981 47.2187 46.5764C47.3321 46.6834 47.3992 46.8305 47.4057 46.9863C47.4122 47.1421 47.3577 47.2943 47.2536 47.4105Z" fill="white"/>
<path style="mix-blend-mode:screen" opacity="0.61" fill-rule="evenodd" clip-rule="evenodd" d="M48.5848 48.6248C48.2668 48.9759 47.8517 49.2247 47.3922 49.3397C46.9327 49.4547 46.4494 49.4307 46.0035 49.2707C45.5576 49.1108 45.1693 48.8221 44.8876 48.4413C44.6059 48.0604 44.4437 47.6045 44.4213 47.1314C44.399 46.6582 44.5176 46.1891 44.7621 45.7834C45.0066 45.3777 45.3661 45.0537 45.7949 44.8524C46.2237 44.6512 46.7026 44.5818 47.1709 44.653C47.6392 44.7241 48.0759 44.9327 48.4255 45.2523C48.658 45.4629 48.8465 45.7174 48.9804 46.0011C49.1142 46.2848 49.1908 46.5921 49.2056 46.9055C49.2204 47.2188 49.1731 47.532 49.0666 47.827C48.9601 48.1221 48.7963 48.3932 48.5848 48.6248Z" fill="url(#paint11_radial_36_466)"/>
<path style="mix-blend-mode:screen" opacity="0.61" fill-rule="evenodd" clip-rule="evenodd" d="M47.6403 47.7729C47.4425 47.9886 47.1678 48.118 46.8755 48.1332C46.5832 48.1484 46.2967 48.0483 46.0775 47.8543C45.8594 47.6578 45.7284 47.3828 45.7131 47.0897C45.6979 46.7966 45.7996 46.5095 45.9961 46.2914C46.0933 46.1778 46.2124 46.085 46.3462 46.0183C46.48 45.9516 46.6259 45.9124 46.7751 45.9032C46.9243 45.8939 47.0739 45.9147 47.2149 45.9643C47.3559 46.0139 47.4856 46.0914 47.5961 46.192C47.7067 46.2927 47.7959 46.4146 47.8584 46.5503C47.921 46.6861 47.9557 46.8331 47.9604 46.9825C47.965 47.132 47.9397 47.2808 47.8858 47.4203C47.8318 47.5597 47.7505 47.6869 47.6465 47.7943L47.6403 47.7729Z" fill="url(#paint12_radial_36_466)"/>
<path fill-rule="evenodd" clip-rule="evenodd" d="M58.3281 60.8601C58.2602 60.9301 58.168 60.9712 58.0706 60.9749C57.9732 60.9786 57.8781 60.9447 57.8051 60.8801C57.7686 60.8485 57.7389 60.8098 57.7177 60.7665C57.6965 60.7231 57.6842 60.6759 57.6817 60.6277C57.6791 60.5795 57.6863 60.5313 57.7028 60.486C57.7193 60.4406 57.7448 60.3991 57.7778 60.3638C57.8097 60.3269 57.8487 60.2968 57.8924 60.2751C57.9361 60.2534 57.9837 60.2406 58.0325 60.2374C58.0812 60.2343 58.13 60.2408 58.1762 60.2566C58.2223 60.2725 58.2649 60.2973 58.3014 60.3297C58.3744 60.397 58.4182 60.4902 58.4232 60.5894C58.4282 60.6886 58.394 60.7858 58.3281 60.8601Z" fill="white"/>
<path style="mix-blend-mode:screen" opacity="0.61" fill-rule="evenodd" clip-rule="evenodd" d="M59.1568 61.6152C58.9577 61.8338 58.6983 61.9885 58.4113 62.0597C58.1243 62.1308 57.8227 62.1154 57.5445 62.0152C57.2663 61.915 57.0241 61.7345 56.8484 61.4967C56.6727 61.2589 56.5715 60.9743 56.5575 60.679C56.5435 60.3836 56.6174 60.0907 56.7698 59.8374C56.9222 59.584 57.1463 59.3815 57.4138 59.2554C57.6812 59.1294 57.9801 59.0855 58.2725 59.1292C58.5649 59.1729 58.8378 59.3024 59.0567 59.5012C59.2022 59.6333 59.3202 59.7929 59.404 59.9707C59.4878 60.1485 59.5357 60.3411 59.545 60.5374C59.5543 60.7338 59.5248 60.93 59.4582 61.115C59.3916 61.2999 59.2892 61.4699 59.1568 61.6152Z" fill="url(#paint13_radial_36_466)"/>
<path style="mix-blend-mode:screen" opacity="0.61" fill-rule="evenodd" clip-rule="evenodd" d="M58.566 61.0748C58.4737 61.1776 58.3529 61.2507 58.2189 61.2847C58.085 61.3188 57.944 61.3123 57.8137 61.2661C57.6835 61.2199 57.5699 61.1361 57.4873 61.0253C57.4047 60.9145 57.357 60.7816 57.35 60.6436C57.343 60.5056 57.3771 60.3686 57.4481 60.25C57.5191 60.1314 57.6236 60.0366 57.7485 59.9775C57.8735 59.9184 58.0131 59.8977 58.1498 59.9181C58.2865 59.9385 58.4141 59.999 58.5163 60.0919C58.6528 60.2159 58.7346 60.3889 58.7439 60.5731C58.7532 60.7573 58.6893 60.9377 58.566 61.0748Z" fill="url(#paint14_radial_36_466)"/>
<path fill-rule="evenodd" clip-rule="evenodd" d="M35.5099 62.1566C35.4114 62.2621 35.2752 62.3245 35.131 62.3302C34.9867 62.3359 34.8461 62.2845 34.7395 62.1872C34.6854 62.1405 34.6413 62.0833 34.61 62.019C34.5786 61.9548 34.5606 61.8849 34.5571 61.8135C34.5535 61.7421 34.5645 61.6707 34.5894 61.6037C34.6142 61.5366 34.6524 61.4754 34.7016 61.4235C34.7982 61.3159 34.9335 61.2508 35.0779 61.2424C35.2223 61.2341 35.3642 61.2831 35.4726 61.3789C35.5789 61.4781 35.6423 61.6149 35.6492 61.7602C35.6562 61.9054 35.6062 62.0477 35.5099 62.1566Z" fill="white"/>
<path style="mix-blend-mode:screen" opacity="0.61" fill-rule="evenodd" clip-rule="evenodd" d="M36.7259 63.2601C36.4331 63.5803 36.0518 63.8065 35.6304 63.9099C35.2089 64.0134 34.7663 63.9895 34.3584 63.8414C33.9506 63.6932 33.5958 63.4273 33.3391 63.0775C33.0823 62.7276 32.9352 62.3095 32.9162 61.8759C32.8972 61.4424 33.0072 61.013 33.2323 60.642C33.4574 60.271 33.7875 59.9751 34.1809 59.7918C34.5742 59.6085 35.0131 59.546 35.4419 59.6122C35.8708 59.6784 36.2704 59.8703 36.5902 60.1637C36.8033 60.3575 36.9761 60.5916 37.0984 60.8524C37.2207 61.1133 37.2901 61.3958 37.3027 61.6836C37.3154 61.9715 37.2709 62.2589 37.1719 62.5295C37.0729 62.8 36.9213 63.0483 36.7259 63.2601Z" fill="url(#paint15_radial_36_466)"/>
<path style="mix-blend-mode:screen" opacity="0.61" fill-rule="evenodd" clip-rule="evenodd" d="M35.8631 62.4823C35.7271 62.621 35.5536 62.717 35.3638 62.7584C35.174 62.7998 34.9763 62.7849 34.7948 62.7155C34.6134 62.646 34.4562 62.5251 34.3426 62.3676C34.229 62.21 34.1638 62.0227 34.1552 61.8287C34.1466 61.6346 34.1948 61.4422 34.294 61.2752C34.3933 61.1082 34.5391 60.9738 34.7136 60.8886C34.8881 60.8033 35.0838 60.7709 35.2765 60.7953C35.4692 60.8197 35.6506 60.8999 35.7984 61.026C35.9024 61.1147 35.987 61.2239 36.047 61.3468C36.107 61.4696 36.1411 61.6035 36.1472 61.7401C36.1533 61.8767 36.1312 62.013 36.0823 62.1407C36.0334 62.2684 35.9588 62.3847 35.8631 62.4823Z" fill="url(#paint16_radial_36_466)"/>
<g style="mix-blend-mode:screen" opacity="0.61">
<g style="mix-blend-mode:screen" opacity="0.61">
<path fill-rule="evenodd" clip-rule="evenodd" d="M38.0358 66.456C37.9861 66.5093 37.9218 66.5467 37.8509 66.5634C37.78 66.5802 37.7057 66.5756 37.6374 66.5502C37.5691 66.5248 37.5099 66.4797 37.4672 66.4207C37.4245 66.3617 37.4002 66.2913 37.3974 66.2185C37.3947 66.1457 37.4135 66.0737 37.4516 66.0116C37.4897 65.9495 37.5453 65.9001 37.6114 65.8695C37.6776 65.839 37.7513 65.8287 37.8232 65.84C37.8952 65.8513 37.9622 65.8837 38.0159 65.933C38.0516 65.9659 38.0806 66.0056 38.101 66.0498C38.1213 66.094 38.1328 66.1417 38.1347 66.1903C38.1365 66.239 38.1287 66.2875 38.1118 66.333C38.0948 66.3786 38.069 66.4204 38.0358 66.456Z" fill="white"/>
</g>
<path style="mix-blend-mode:screen" opacity="0.61" fill-rule="evenodd" clip-rule="evenodd" d="M38.8642 67.2111C38.6649 67.4301 38.4051 67.5851 38.1176 67.6563C37.8302 67.7275 37.528 67.7117 37.2496 67.611C36.9711 67.5103 36.7287 67.3292 36.5533 67.0907C36.3779 66.8521 36.2772 66.5668 36.2641 66.2709C36.251 65.9751 36.326 65.682 36.4796 65.4288C36.6333 65.1757 36.8586 64.9738 37.1271 64.8489C37.3956 64.7239 37.6951 64.6815 37.9878 64.727C38.2804 64.7725 38.5529 64.9038 38.7708 65.1044C38.9159 65.2362 39.0335 65.3954 39.1168 65.5728C39.2001 65.7503 39.2475 65.9425 39.2562 66.1383C39.2649 66.3341 39.2347 66.5297 39.1674 66.7139C39.1002 66.898 38.9971 67.067 38.8642 67.2111Z" fill="url(#paint17_radial_36_466)"/>
<path style="mix-blend-mode:screen" opacity="0.61" fill-rule="evenodd" clip-rule="evenodd" d="M38.2804 66.6782C38.1538 66.8134 37.9792 66.8935 37.7942 66.9014C37.6092 66.9093 37.4285 66.8444 37.2908 66.7206C37.1564 66.5947 37.0773 66.4208 37.0707 66.2368C37.064 66.0528 37.1303 65.8736 37.2551 65.7383C37.3162 65.6711 37.3899 65.6167 37.4721 65.5781C37.5543 65.5396 37.6433 65.5177 37.734 65.5137C37.8247 65.5097 37.9153 65.5237 38.0005 65.5549C38.0858 65.586 38.164 65.6338 38.2307 65.6953C38.3672 65.8194 38.449 65.9924 38.4583 66.1765C38.4676 66.3607 38.4037 66.5411 38.2804 66.6782Z" fill="url(#paint18_radial_36_466)"/>
</g>
<path fill-rule="evenodd" clip-rule="evenodd" d="M72.9664 57.3017C72.9344 57.3385 72.8954 57.3687 72.8517 57.3904C72.808 57.4121 72.7604 57.4249 72.7117 57.428C72.663 57.4312 72.6142 57.4247 72.568 57.4088C72.5219 57.393 72.4793 57.3681 72.4428 57.3357C72.3697 57.2685 72.326 57.1752 72.321 57.076C72.316 56.9768 72.3501 56.8796 72.4161 56.8054C72.484 56.7354 72.5762 56.6943 72.6736 56.6906C72.771 56.6869 72.8661 56.7208 72.9391 56.7854C73.0104 56.8507 73.0532 56.9414 73.0583 57.038C73.0634 57.1345 73.0304 57.2292 72.9664 57.3017Z" fill="white"/>
<path style="mix-blend-mode:screen" opacity="0.61" fill-rule="evenodd" clip-rule="evenodd" d="M73.7948 58.0569C73.5967 58.2775 73.3375 58.4343 73.0501 58.5073C72.7627 58.5803 72.4601 58.5662 72.1807 58.4668C71.9014 58.3674 71.6579 58.1872 71.4811 57.9491C71.3044 57.711 71.2025 57.4257 71.1883 57.1295C71.1741 56.8333 71.2482 56.5396 71.4013 56.2857C71.5544 56.0317 71.7796 55.8291 72.0482 55.7034C72.3167 55.5777 72.6166 55.5347 72.9097 55.5798C73.2027 55.625 73.4758 55.7562 73.6941 55.9569C73.8387 56.0881 73.956 56.2465 74.0394 56.4231C74.1227 56.5997 74.1705 56.791 74.1798 56.986C74.1892 57.181 74.16 57.376 74.0939 57.5598C74.0279 57.7435 73.9262 57.9124 73.7948 58.0569Z" fill="url(#paint19_radial_36_466)"/>
<path style="mix-blend-mode:screen" opacity="0.61" fill-rule="evenodd" clip-rule="evenodd" d="M73.2036 57.5306C73.075 57.6493 72.9064 57.7155 72.7314 57.7158C72.5563 57.7161 72.3875 57.6506 72.2585 57.5323C72.1294 57.414 72.0496 57.2515 72.0347 57.0771C72.0199 56.9027 72.0711 56.729 72.1783 56.5906C72.2374 56.5143 72.3117 56.4511 72.3965 56.4049C72.4813 56.3588 72.5747 56.3307 72.6709 56.3225C72.767 56.3144 72.8639 56.3262 72.9552 56.3574C73.0466 56.3885 73.1305 56.4383 73.2017 56.5035C73.2728 56.5687 73.3297 56.648 73.3686 56.7363C73.4076 56.8246 73.4278 56.9201 73.4279 57.0166C73.4281 57.1131 73.4083 57.2087 73.3696 57.2971C73.331 57.3856 73.2745 57.4651 73.2036 57.5306Z" fill="url(#paint20_radial_36_466)"/>
<path fill-rule="evenodd" clip-rule="evenodd" d="M31.0346 65.8322C30.9792 65.8907 30.903 65.9252 30.8225 65.9283C30.7419 65.9315 30.6634 65.903 30.6035 65.849C30.549 65.7943 30.517 65.7211 30.5137 65.6439C30.5105 65.5667 30.5363 65.4911 30.586 65.432C30.6123 65.4025 30.6441 65.3785 30.6797 65.3614C30.7152 65.3442 30.7538 65.3342 30.7932 65.332C30.8326 65.3297 30.8721 65.3353 30.9094 65.3483C30.9466 65.3613 30.981 65.3815 31.0104 65.4078C31.0399 65.4341 31.0639 65.4659 31.081 65.5014C31.0982 65.537 31.1082 65.5756 31.1104 65.615C31.1127 65.6544 31.1071 65.6939 31.0941 65.7311C31.0811 65.7684 31.0609 65.8027 31.0346 65.8322Z" fill="white"/>
<path style="mix-blend-mode:screen" opacity="0.61" fill-rule="evenodd" clip-rule="evenodd" d="M31.6933 66.4318C31.5349 66.6082 31.3277 66.7335 31.098 66.7919C30.8683 66.8502 30.6264 66.8391 30.403 66.7597C30.1796 66.6804 29.9848 66.5366 29.8434 66.3464C29.7019 66.1562 29.6201 65.9282 29.6084 65.6915C29.5967 65.4548 29.6556 65.2199 29.7776 65.0166C29.8996 64.8134 30.0792 64.651 30.2936 64.55C30.5081 64.449 30.7477 64.414 30.9821 64.4494C31.2164 64.4848 31.435 64.5891 31.61 64.7489C31.7266 64.8536 31.8213 64.9803 31.8886 65.1217C31.9559 65.2632 31.9946 65.4166 32.0023 65.573C32.0101 65.7295 31.9868 65.8859 31.9337 66.0333C31.8807 66.1807 31.799 66.3162 31.6933 66.4318Z" fill="url(#paint21_radial_36_466)"/>
<path style="mix-blend-mode:screen" opacity="0.61" fill-rule="evenodd" clip-rule="evenodd" d="M31.2246 66.0096C31.1234 66.1177 30.984 66.182 30.8361 66.1888C30.6883 66.1957 30.5435 66.1445 30.4328 66.0463C30.3784 65.9967 30.3343 65.9369 30.303 65.8703C30.2717 65.8037 30.2538 65.7315 30.2504 65.658C30.247 65.5844 30.2581 65.511 30.2831 65.4417C30.3081 65.3725 30.3465 65.3089 30.3961 65.2545C30.4456 65.2 30.5054 65.1559 30.5721 65.1246C30.6387 65.0934 30.7108 65.0755 30.7844 65.0721C30.8579 65.0687 30.9314 65.0798 31.0006 65.1048C31.0699 65.1298 31.1335 65.1682 31.1879 65.2177C31.296 65.3189 31.3603 65.4583 31.3671 65.6062C31.374 65.7541 31.3228 65.8988 31.2246 66.0096Z" fill="url(#paint22_radial_36_466)"/>
<defs>
<linearGradient id="paint0_linear_36_466" x1="94.4442" y1="67.8183" x2="63.7237" y2="57.3378" gradientUnits="userSpaceOnUse">
<stop stop-color="#FFBF00"/>
<stop offset="1" stop-color="#FFA700"/>
</linearGradient>
<linearGradient id="paint1_linear_36_466" x1="75.7883" y1="66.5913" x2="77.4253" y2="64.0701" gradientUnits="userSpaceOnUse">
<stop stop-color="#52146A"/>
<stop offset="0.99" stop-color="#511FA4"/>
</linearGradient>
<linearGradient id="paint2_linear_36_466" x1="72.844" y1="86.9338" x2="84.6454" y2="68.7581" gradientUnits="userSpaceOnUse">
<stop offset="0.01" stop-color="#8343D6"/>
<stop offset="1" stop-color="#8143E5"/>
</linearGradient>
<radialGradient id="paint3_radial_36_466" cx="0" cy="0" r="1" gradientUnits="userSpaceOnUse" gradientTransform="translate(39.9588 20.8059) rotate(-137.695) scale(4.79477)">
<stop stop-color="#0062FF"/>
<stop offset="0.13" stop-color="#0050CF"/>
<stop offset="0.31" stop-color="#003891"/>
<stop offset="0.48" stop-color="#00245D"/>
<stop offset="0.64" stop-color="#001435"/>
<stop offset="0.78" stop-color="#000918"/>
<stop offset="0.91" stop-color="#000206"/>
<stop offset="1"/>
</radialGradient>
<radialGradient id="paint4_radial_36_466" cx="0" cy="0" r="1" gradientUnits="userSpaceOnUse" gradientTransform="translate(39.9589 20.8058) rotate(-137.695) scale(2.24223)">
<stop stop-color="#0062FF"/>
<stop offset="0.13" stop-color="#0050CF"/>
<stop offset="0.31" stop-color="#003891"/>
<stop offset="0.48" stop-color="#00245D"/>
<stop offset="0.64" stop-color="#001435"/>
<stop offset="0.78" stop-color="#000918"/>
<stop offset="0.91" stop-color="#000206"/>
<stop offset="1"/>
</radialGradient>
<radialGradient id="paint5_radial_36_466" cx="0" cy="0" r="1" gradientUnits="userSpaceOnUse" gradientTransform="translate(26.2421 61.6359) rotate(-137.695) scale(1.8018)">
<stop stop-color="#0062FF"/>
<stop offset="0.13" stop-color="#0050CF"/>
<stop offset="0.31" stop-color="#003891"/>
<stop offset="0.48" stop-color="#00245D"/>
<stop offset="0.64" stop-color="#001435"/>
<stop offset="0.78" stop-color="#000918"/>
<stop offset="0.91" stop-color="#000206"/>
<stop offset="1"/>
</radialGradient>
<radialGradient id="paint6_radial_36_466" cx="0" cy="0" r="1" gradientUnits="userSpaceOnUse" gradientTransform="translate(26.242 61.6358) rotate(-137.695) scale(0.840837)">
<stop stop-color="#0062FF"/>
<stop offset="0.13" stop-color="#0050CF"/>
<stop offset="0.31" stop-color="#003891"/>
<stop offset="0.48" stop-color="#00245D"/>
<stop offset="0.64" stop-color="#001435"/>
<stop offset="0.78" stop-color="#000918"/>
<stop offset="0.91" stop-color="#000206"/>
<stop offset="1"/>
</radialGradient>
<radialGradient id="paint7_radial_36_466" cx="0" cy="0" r="1" gradientUnits="userSpaceOnUse" gradientTransform="translate(45.9604 64.9099) rotate(-137.695) scale(3.47345)">
<stop stop-color="#0062FF"/>
<stop offset="0.13" stop-color="#0050CF"/>
<stop offset="0.31" stop-color="#003891"/>
<stop offset="0.48" stop-color="#00245D"/>
<stop offset="0.64" stop-color="#001435"/>
<stop offset="0.78" stop-color="#000918"/>
<stop offset="0.91" stop-color="#000206"/>
<stop offset="1"/>
</radialGradient>
<radialGradient id="paint8_radial_36_466" cx="0" cy="0" r="1" gradientUnits="userSpaceOnUse" gradientTransform="translate(45.9603 64.9097) rotate(-137.695) scale(1.62161)">
<stop stop-color="#0062FF"/>
<stop offset="0.13" stop-color="#0050CF"/>
<stop offset="0.31" stop-color="#003891"/>
<stop offset="0.48" stop-color="#00245D"/>
<stop offset="0.64" stop-color="#001435"/>
<stop offset="0.78" stop-color="#000918"/>
<stop offset="0.91" stop-color="#000206"/>
<stop offset="1"/>
</radialGradient>
<radialGradient id="paint9_radial_36_466" cx="0" cy="0" r="1" gradientUnits="userSpaceOnUse" gradientTransform="translate(20.5238 49.5966) rotate(-137.695) scale(3.47345)">
<stop stop-color="#0062FF"/>
<stop offset="0.13" stop-color="#0050CF"/>
<stop offset="0.31" stop-color="#003891"/>
<stop offset="0.48" stop-color="#00245D"/>
<stop offset="0.64" stop-color="#001435"/>
<stop offset="0.78" stop-color="#000918"/>
<stop offset="0.91" stop-color="#000206"/>
<stop offset="1"/>
</radialGradient>
<radialGradient id="paint10_radial_36_466" cx="0" cy="0" r="1" gradientUnits="userSpaceOnUse" gradientTransform="translate(20.5238 49.5966) rotate(-137.695) scale(1.62161)">
<stop stop-color="#0062FF"/>
<stop offset="0.13" stop-color="#0050CF"/>
<stop offset="0.31" stop-color="#003891"/>
<stop offset="0.48" stop-color="#00245D"/>
<stop offset="0.64" stop-color="#001435"/>
<stop offset="0.78" stop-color="#000918"/>
<stop offset="0.91" stop-color="#000206"/>
<stop offset="1"/>
</radialGradient>
<radialGradient id="paint11_radial_36_466" cx="0" cy="0" r="1" gradientUnits="userSpaceOnUse" gradientTransform="translate(33.2104 39.5683) rotate(-137.695) scale(2.40239)">
<stop stop-color="#0062FF"/>
<stop offset="0.13" stop-color="#0050CF"/>
<stop offset="0.31" stop-color="#003891"/>
<stop offset="0.48" stop-color="#00245D"/>
<stop offset="0.64" stop-color="#001435"/>
<stop offset="0.78" stop-color="#000918"/>
<stop offset="0.91" stop-color="#000206"/>
<stop offset="1"/>
</radialGradient>
<radialGradient id="paint12_radial_36_466" cx="0" cy="0" r="1" gradientUnits="userSpaceOnUse" gradientTransform="translate(33.2104 39.5682) rotate(-137.695) scale(1.12111)">
<stop stop-color="#0062FF"/>
<stop offset="0.13" stop-color="#0050CF"/>
<stop offset="0.31" stop-color="#003891"/>
<stop offset="0.48" stop-color="#00245D"/>
<stop offset="0.64" stop-color="#001435"/>
<stop offset="0.78" stop-color="#000918"/>
<stop offset="0.91" stop-color="#000206"/>
<stop offset="1"/>
</radialGradient>
<radialGradient id="paint13_radial_36_466" cx="0" cy="0" r="1" gradientUnits="userSpaceOnUse" gradientTransform="translate(44.5023 53.2015) rotate(-137.695) scale(1.50149)">
<stop stop-color="#0062FF"/>
<stop offset="0.13" stop-color="#0050CF"/>
<stop offset="0.31" stop-color="#003891"/>
<stop offset="0.48" stop-color="#00245D"/>
<stop offset="0.64" stop-color="#001435"/>
<stop offset="0.78" stop-color="#000918"/>
<stop offset="0.91" stop-color="#000206"/>
<stop offset="1"/>
</radialGradient>
<radialGradient id="paint14_radial_36_466" cx="0" cy="0" r="1" gradientUnits="userSpaceOnUse" gradientTransform="translate(44.5023 53.2015) rotate(-137.695) scale(0.700692)">
<stop stop-color="#0062FF"/>
<stop offset="0.13" stop-color="#0050CF"/>
<stop offset="0.31" stop-color="#003891"/>
<stop offset="0.48" stop-color="#00245D"/>
<stop offset="0.64" stop-color="#001435"/>
<stop offset="0.78" stop-color="#000918"/>
<stop offset="0.91" stop-color="#000206"/>
<stop offset="1"/>
</radialGradient>
<radialGradient id="paint15_radial_36_466" cx="0" cy="0" r="1" gradientUnits="userSpaceOnUse" gradientTransform="translate(21.466 54.4063) rotate(-137.695) scale(2.20219)">
<stop stop-color="#0062FF"/>
<stop offset="0.13" stop-color="#0050CF"/>
<stop offset="0.31" stop-color="#003891"/>
<stop offset="0.48" stop-color="#00245D"/>
<stop offset="0.64" stop-color="#001435"/>
<stop offset="0.78" stop-color="#000918"/>
<stop offset="0.91" stop-color="#000206"/>
<stop offset="1"/>
</radialGradient>
<radialGradient id="paint16_radial_36_466" cx="0" cy="0" r="1" gradientUnits="userSpaceOnUse" gradientTransform="translate(21.466 54.4063) rotate(-137.695) scale(1.03102)">
<stop stop-color="#0062FF"/>
<stop offset="0.13" stop-color="#0050CF"/>
<stop offset="0.31" stop-color="#003891"/>
<stop offset="0.48" stop-color="#00245D"/>
<stop offset="0.64" stop-color="#001435"/>
<stop offset="0.78" stop-color="#000918"/>
<stop offset="0.91" stop-color="#000206"/>
<stop offset="1"/>
</radialGradient>
<radialGradient id="paint17_radial_36_466" cx="0" cy="0" r="1" gradientUnits="userSpaceOnUse" gradientTransform="translate(24.1406 58.8437) rotate(-137.695) scale(1.50149)">
<stop stop-color="#0062FF"/>
<stop offset="0.13" stop-color="#0050CF"/>
<stop offset="0.31" stop-color="#003891"/>
<stop offset="0.48" stop-color="#00245D"/>
<stop offset="0.64" stop-color="#001435"/>
<stop offset="0.78" stop-color="#000918"/>
<stop offset="0.91" stop-color="#000206"/>
<stop offset="1"/>
</radialGradient>
<radialGradient id="paint18_radial_36_466" cx="0" cy="0" r="1" gradientUnits="userSpaceOnUse" gradientTransform="translate(24.1408 58.8439) rotate(-137.695) scale(0.700697)">
<stop stop-color="#0062FF"/>
<stop offset="0.13" stop-color="#0050CF"/>
<stop offset="0.31" stop-color="#003891"/>
<stop offset="0.48" stop-color="#00245D"/>
<stop offset="0.64" stop-color="#001435"/>
<stop offset="0.78" stop-color="#000918"/>
<stop offset="0.91" stop-color="#000206"/>
<stop offset="1"/>
</radialGradient>
<radialGradient id="paint19_radial_36_466" cx="0" cy="0" r="1" gradientUnits="userSpaceOnUse" gradientTransform="translate(59.193 49.6261) rotate(-137.695) scale(1.50149)">
<stop stop-color="#0062FF"/>
<stop offset="0.13" stop-color="#0050CF"/>
<stop offset="0.31" stop-color="#003891"/>
<stop offset="0.48" stop-color="#00245D"/>
<stop offset="0.64" stop-color="#001435"/>
<stop offset="0.78" stop-color="#000918"/>
<stop offset="0.91" stop-color="#000206"/>
<stop offset="1"/>
</radialGradient>
<radialGradient id="paint20_radial_36_466" cx="0" cy="0" r="1" gradientUnits="userSpaceOnUse" gradientTransform="translate(59.1932 49.6261) rotate(-137.695) scale(0.700695)">
<stop stop-color="#0062FF"/>
<stop offset="0.13" stop-color="#0050CF"/>
<stop offset="0.31" stop-color="#003891"/>
<stop offset="0.48" stop-color="#00245D"/>
<stop offset="0.64" stop-color="#001435"/>
<stop offset="0.78" stop-color="#000918"/>
<stop offset="0.91" stop-color="#000206"/>
<stop offset="1"/>
</radialGradient>
<radialGradient id="paint21_radial_36_466" cx="0" cy="0" r="1" gradientUnits="userSpaceOnUse" gradientTransform="translate(17.155 58.2655) rotate(-137.695) scale(1.2012)">
<stop stop-color="#0062FF"/>
<stop offset="0.13" stop-color="#0050CF"/>
<stop offset="0.31" stop-color="#003891"/>
<stop offset="0.48" stop-color="#00245D"/>
<stop offset="0.64" stop-color="#001435"/>
<stop offset="0.78" stop-color="#000918"/>
<stop offset="0.91" stop-color="#000206"/>
<stop offset="1"/>
</radialGradient>
<radialGradient id="paint22_radial_36_466" cx="0" cy="0" r="1" gradientUnits="userSpaceOnUse" gradientTransform="translate(17.1551 58.2656) rotate(-137.695) scale(0.560556)">
<stop stop-color="#0062FF"/>
<stop offset="0.13" stop-color="#0050CF"/>
<stop offset="0.31" stop-color="#003891"/>
<stop offset="0.48" stop-color="#00245D"/>
<stop offset="0.64" stop-color="#001435"/>
<stop offset="0.78" stop-color="#000918"/>
<stop offset="0.91" stop-color="#000206"/>
<stop offset="1"/>
</radialGradient>
</defs>
</svg>
