<svg width="108" height="79" viewBox="0 0 108 79" fill="none" xmlns="http://www.w3.org/2000/svg">
<path fill-rule="evenodd" clip-rule="evenodd" d="M3.48388 23.3735L10.0066 13.4833L61.0361 44.074L53.1118 56.092L3.48388 23.3735Z" fill="url(#paint0_linear_36_585)"/>
<path fill-rule="evenodd" clip-rule="evenodd" d="M61.0361 44.0739C61.0361 44.0739 84.2485 59.616 98.1399 56.8639L51.5578 31.9208C51.5578 31.9208 44.2183 33.2142 10.011 13.422L61.0361 44.0739Z" fill="url(#paint1_linear_36_585)"/>
<path fill-rule="evenodd" clip-rule="evenodd" d="M84.8361 77.0254L53.112 56.092L61.0363 44.074C83.6364 58.5254 97.2064 57.011 97.2064 57.011C97.1344 57.6042 97.0246 58.1921 96.8777 58.7713C89.3688 58.4351 82.0227 56.47 75.3489 53.0122C75.9333 53.2242 77.7772 55.1434 94.321 63.2296C93.4254 67.9017 84.8361 77.0254 84.8361 77.0254Z" fill="#A79DCC"/>
<path fill-rule="evenodd" clip-rule="evenodd" d="M85.1452 77.2172L53.112 56.092L61.0363 44.074C61.0363 44.074 83.9882 58.5511 98.1401 56.864L98.0863 57.5984C98.0863 57.5984 83.8812 59.174 61.2676 44.9062L53.4434 55.9779L85.4922 76.8889L85.1452 77.2172Z" fill="#E55947"/>
<g style="mix-blend-mode:multiply" opacity="0.4">
<path fill-rule="evenodd" clip-rule="evenodd" d="M61.2675 44.9061L61.8996 45.3062L54.4411 56.6353L53.4432 55.9778L61.2675 44.9061Z" fill="#9A4F8B"/>
</g>
<g style="mix-blend-mode:multiply" opacity="0.8">
<path fill-rule="evenodd" clip-rule="evenodd" d="M9.62699 26.2378L14.8249 18.2657L55.3306 43.4256C55.3306 43.4256 48.3762 52.6997 48.8811 52.1059L9.62699 26.2378Z" fill="#E04263"/>
</g>
<g opacity="0.65">
<path opacity="0.65" d="M18.6515 24.6216L19.3262 25.0709L18.1164 26.8898L19.2464 27.6339L18.8847 28.1612L17.0943 26.9842L18.6515 24.6216Z" fill="#FFFFA4"/>
<path opacity="0.65" d="M19.7807 27.0577C20.0101 26.7094 20.3685 26.4665 20.7771 26.3825C21.1857 26.2984 21.6109 26.3801 21.9592 26.6096C22.3075 26.839 22.5505 27.1975 22.6345 27.606C22.7186 28.0146 22.6369 28.4398 22.4074 28.7881C22.1726 29.1192 21.8161 29.3437 21.4161 29.4124C21.0161 29.4812 20.6052 29.3886 20.2733 29.155C19.932 28.9402 19.689 28.5998 19.5969 28.2074C19.5047 27.8149 19.5708 27.4019 19.7807 27.0577ZM21.7327 28.3389C21.7937 28.2551 21.8371 28.1598 21.8602 28.0588C21.8833 27.9578 21.8858 27.8531 21.8674 27.7511C21.849 27.6492 21.8101 27.552 21.7531 27.4655C21.6961 27.3789 21.6221 27.3049 21.5357 27.2477C21.357 27.1478 21.1473 27.119 20.9483 27.1671C20.7493 27.2151 20.5757 27.3364 20.4623 27.5068C20.3488 27.6771 20.3038 27.884 20.3362 28.0861C20.3686 28.2883 20.4761 28.4707 20.6371 28.5971C20.7259 28.6642 20.8282 28.7112 20.937 28.7348C21.0457 28.7584 21.1582 28.7581 21.2668 28.7338C21.3755 28.7096 21.4775 28.662 21.5658 28.5944C21.6542 28.5267 21.7268 28.4407 21.7786 28.3422L21.7327 28.3389Z" fill="#FFFFA4"/>
<path opacity="0.65" d="M23.4235 30.2468L23.0555 30.02L22.6413 30.6357L21.9808 30.2028L23.5381 27.8403L24.609 28.5493C25.2542 28.981 25.4412 29.5792 25.0785 30.1218C24.9799 30.2805 24.8368 30.4066 24.6669 30.4845C24.4971 30.5623 24.3082 30.5884 24.1236 30.5595L24.1523 31.6384L23.4329 31.1704L23.4235 30.2468ZM24.2191 29.0437L23.8523 28.8015L23.4018 29.4915L23.7675 29.749C24.0471 29.9233 24.2647 29.8931 24.4039 29.6725C24.5431 29.452 24.4975 29.2333 24.2191 29.0437Z" fill="#FFFFA4"/>
<path opacity="0.65" d="M26.7138 32.5795L26.3687 33.0927L24.4755 31.8466L26.0328 29.4841L27.8811 30.7115L27.5359 31.2245L26.347 30.4454L26.0873 30.8417L27.1441 31.5343L26.8154 32.0332L25.7585 31.3406L25.4813 31.7664L26.7138 32.5795Z" fill="#FFFFA4"/>
<path opacity="0.65" d="M28.8775 34.753L29.6929 33.4898L28.4163 34.1193L28.1237 33.9133L28.2245 32.5363L27.4277 33.7547L26.7956 33.3547L28.3529 30.9921L28.9108 31.356L28.772 33.2532L30.4784 32.4244L31.021 32.7871L29.4791 35.1508L28.8775 34.753Z" fill="#FFFFA4"/>
<path opacity="0.65" d="M32.5033 33.7569L33.1638 34.1898L31.6066 36.5523L30.9461 36.1195L32.5033 33.7569Z" fill="#FFFFA4"/>
<path opacity="0.65" d="M35.2069 36.7543C35.1192 36.8709 35.0088 36.9686 34.8825 37.0418C34.7563 37.1149 34.6166 37.1619 34.4718 37.18C34.327 37.1981 34.18 37.1869 34.0396 37.1471C33.8993 37.1073 33.7683 37.0397 33.6545 36.9483L33.244 36.6722L32.8298 37.2879L32.1704 36.8397L33.7265 34.4925L34.7975 35.2015C34.9329 35.27 35.0522 35.3664 35.1477 35.4844C35.2431 35.6023 35.3124 35.7392 35.3511 35.8859C35.3898 36.0326 35.3969 36.1859 35.3721 36.3356C35.3472 36.4852 35.2909 36.6279 35.2069 36.7543ZM34.5311 36.3203C34.6703 36.0997 34.5636 35.8766 34.3464 35.6915L33.9643 35.4482L33.5138 36.1381L33.8807 36.3804C34.1512 36.677 34.3755 36.555 34.5288 36.3508L34.5311 36.3203Z" fill="#FFFFA4"/>
<path opacity="0.65" d="M34.5441 38.2438L35.0934 37.8841C35.2297 38.1861 35.4444 38.4461 35.7151 38.6372C35.9946 38.8114 36.1488 38.8073 36.2353 38.6752C36.4775 38.3084 34.9538 37.6893 35.5401 36.8246C35.8173 36.3988 36.3793 36.2861 37.0846 36.7377C37.3864 36.9337 37.6361 37.2001 37.8123 37.5139L37.2784 37.8748C37.1565 37.627 36.9699 37.4167 36.7384 37.2661C36.46 37.0765 36.2894 37.0948 36.2182 37.228C36.1469 37.3613 37.5007 38.1987 36.9298 39.0644C36.6536 39.4749 36.0752 39.6018 35.3863 39.1361C35.0324 38.9175 34.742 38.6098 34.5441 38.2438Z" fill="#FFFFA4"/>
<path opacity="0.65" d="M37.4349 38.8861L38.2996 37.5804L38.9601 38.0133L38.1119 39.3048C37.8511 39.7164 37.9085 39.9821 38.1869 40.1716C38.4653 40.3612 38.7463 40.3049 39.0071 39.8933L39.8553 38.6017L40.5147 39.0499L39.6501 40.3556C39.4416 40.6152 39.1435 40.7875 38.8145 40.8387C38.4855 40.8898 38.1492 40.8161 37.8717 40.632C37.5942 40.4479 37.3956 40.1668 37.3148 39.8437C37.234 39.5207 37.2768 39.1791 37.4349 38.8861Z" fill="#FFFFA4"/>
<path opacity="0.65" d="M41.5406 43.1089L42.322 41.8894L41.0301 42.5179L40.7375 42.3119L40.8383 40.9349L40.0263 42.1521L39.4094 41.7532L40.9666 39.3907L41.5245 39.7545L41.3857 41.6517L43.0923 40.8229L43.6502 41.1868L42.0929 43.5493L41.5406 43.1089Z" fill="#FFFFA4"/>
</g>
<g style="mix-blend-mode:multiply" opacity="0.8">
<path fill-rule="evenodd" clip-rule="evenodd" d="M50.7164 53.3017L56.6846 44.2631L58.494 45.1799L51.5527 53.8551L50.7164 53.3017Z" fill="#E04263"/>
</g>
<g style="mix-blend-mode:soft-light">
<path fill-rule="evenodd" clip-rule="evenodd" d="M51.5533 31.9819L83.7324 54.6868C83.7324 54.6868 94.0118 57.9923 98.201 56.8683L51.5533 31.9819Z" fill="#FFFFA4"/>
</g>
<path fill-rule="evenodd" clip-rule="evenodd" d="M94.3667 63.2328L84.3183 56.5602C81.3008 55.5452 78.3421 54.3633 75.4558 53.0199C75.4558 53.0199 86.9349 60.3202 94.3667 63.2328Z" fill="white"/>
<path d="M81.6268 30.4958C81.1788 30.4958 80.7308 30.3258 80.3888 29.9838L75.6428 25.2378C74.9588 24.5538 74.9588 23.4458 75.6428 22.7638C76.3268 22.0798 77.4328 22.0778 78.1168 22.7618L81.6268 26.2718L89.8828 18.0158C90.5668 17.3318 91.6728 17.3318 92.3568 18.0158C93.0408 18.6998 93.0408 19.8078 92.3568 20.4918L82.8648 29.9838C82.5228 30.3258 82.0748 30.4958 81.6268 30.4958Z" fill="#FCFCFC"/>
<defs>
<linearGradient id="paint0_linear_36_585" x1="28.4241" y1="39.8076" x2="36.3549" y2="27.7822" gradientUnits="userSpaceOnUse">
<stop stop-color="#DD6D00"/>
<stop offset="1" stop-color="#FF9000"/>
</linearGradient>
<linearGradient id="paint1_linear_36_585" x1="13.5119" y1="8.41699" x2="94.8727" y2="62.0742" gradientUnits="userSpaceOnUse">
<stop stop-color="#FCA536"/>
<stop offset="1" stop-color="#FFBF00"/>
</linearGradient>
</defs>
</svg>
