<svg width="110" height="83" viewBox="0 0 110 83" fill="none" xmlns="http://www.w3.org/2000/svg">
<path fill-rule="evenodd" clip-rule="evenodd" d="M8.81653 23.3496C8.79845 23.171 8.83116 22.9909 8.91098 22.8301C8.9908 22.6694 9.1146 22.5344 9.2678 22.4409L44.2631 36.0386C47.7785 32.7542 50.0989 28.3916 50.8569 23.6406L14.7835 10.9614C14.7835 10.9614 14.3879 10.4685 15.2883 9.92167L52.1602 22.8055C52.1602 22.8055 52.1333 30.2121 44.511 37.7079L8.81653 23.3496Z" fill="#71A6FF"/>
<path fill-rule="evenodd" clip-rule="evenodd" d="M15.8941 11.3563C15.8941 11.3563 12.9998 19.955 10.7028 23.0863L44.2525 35.9591C47.8544 32.7734 50.197 28.4037 50.8569 23.6405L15.8941 11.3563Z" fill="#EEE1E9"/>
<path fill-rule="evenodd" clip-rule="evenodd" d="M14.8589 10.989L15.8621 11.4701L50.8341 24.029L50.9343 23.649L14.8589 10.989Z" fill="url(#paint0_radial_36_516)"/>
<path fill-rule="evenodd" clip-rule="evenodd" d="M50.1768 23.7814C50.1768 23.7814 50.8821 30.3882 43.8247 35.7561L44.2714 35.9613C47.8421 32.9202 50.1709 28.6729 50.8146 24.027L50.1768 23.7814Z" fill="url(#paint1_radial_36_516)"/>
<g style="mix-blend-mode:multiply" opacity="0.8">
<path fill-rule="evenodd" clip-rule="evenodd" d="M15.8942 11.3563L15.7043 12.0198L50.1866 24.408L50.1577 23.7792L15.8942 11.3563Z" fill="#9A4F8B"/>
</g>
<path fill-rule="evenodd" clip-rule="evenodd" d="M52.2378 22.814L104.039 53.3011C103.902 56.1052 103.091 58.835 101.676 61.2597C100.261 63.6845 98.2831 65.733 95.9095 67.2322L44.3846 37.7919C48.4539 33.7062 51.1917 28.4848 52.2378 22.814V22.814Z" fill="url(#paint2_linear_36_516)"/>
<path d="M92.9792 61.1251C92.9792 61.1251 92.994 60.9899 93.0003 60.932L91.5714 60.0525C91.4555 60.0399 91.4362 60.0377 91.3589 60.0293L91.8279 59.494C91.8279 59.494 91.8152 59.6099 91.8089 59.6679L93.2185 60.5452C93.2185 60.5452 93.2185 60.5452 93.2058 60.6611L93.4327 60.3731C93.6126 60.1582 93.6681 60.0078 93.4897 59.8515L93.2554 59.6695L93.9089 60.1319L93.7542 60.115C93.4802 60.4761 93.3239 60.6545 93.0306 61.0135L92.9792 61.1251Z" fill="#FFE0D6"/>
<path d="M93.0424 59.4705C92.9223 59.4112 92.817 59.3257 92.7344 59.2203C92.6517 59.1149 92.5939 58.9923 92.565 58.8615C92.5361 58.7308 92.537 58.5952 92.5675 58.4648C92.5981 58.3344 92.6576 58.2125 92.7415 58.1082C92.8126 57.9896 92.9072 57.8869 93.0196 57.8063C93.132 57.7258 93.2597 57.6691 93.3948 57.6399C93.5299 57.6107 93.6696 57.6095 93.8052 57.6364C93.9408 57.6634 94.0694 57.7178 94.1832 57.7965C94.3051 57.8593 94.4122 57.9477 94.4968 58.0557C94.5814 58.1636 94.6417 58.2886 94.6735 58.4221C94.7053 58.5555 94.7081 58.6942 94.6813 58.8288C94.6546 58.9633 94.5989 59.0905 94.5184 59.2016C94.442 59.3196 94.3423 59.4206 94.2254 59.4986C94.1084 59.5766 93.9769 59.6298 93.8386 59.655C93.7003 59.6802 93.5583 59.6768 93.4214 59.6451C93.2844 59.6133 93.1555 59.5539 93.0424 59.4705V59.4705ZM94.1 58.022C93.5328 57.6668 93.0778 57.7148 92.7974 58.1338C92.5171 58.5529 92.7088 58.9453 93.1429 59.2664C93.5771 59.5875 94.1824 59.595 94.4842 59.1588C94.786 58.7225 94.6114 58.3515 94.0164 58.0715L94.1 58.022Z" fill="#FFE0D6"/>
<path d="M95.0985 58.1895C95.1111 58.0735 95.1132 58.0542 95.1196 57.9963L93.6906 57.1168C93.5747 57.1042 93.5555 57.1021 93.4975 57.0957C93.6226 56.8928 93.7367 56.6834 93.8395 56.4684C94.0577 56.0817 94.4031 55.963 94.7147 56.1534C94.8525 56.2405 94.9544 56.3741 95.0019 56.53C95.0495 56.6859 95.0396 56.8537 94.9739 57.0028V57.0028C95.0065 56.9527 95.0496 56.9103 95.1003 56.8787C95.1511 56.8471 95.208 56.827 95.2674 56.8199L95.5186 56.8473C95.6538 56.8621 95.8471 56.8832 95.9005 56.7522C95.919 56.8432 95.9087 56.9377 95.871 57.0226C95.8583 57.1386 95.6415 57.154 95.4848 57.1564L95.1372 57.1184C94.9633 57.0994 94.8859 57.091 94.8111 57.2392L94.8238 57.1233C94.9928 56.829 94.8849 56.563 94.5733 56.3726C94.2618 56.1821 93.9937 56.3093 93.8353 56.507L93.8057 56.7775C93.8057 56.7775 93.8059 56.7775 93.9411 56.7923L95.3507 57.6696C95.4859 57.6844 95.5052 57.6865 95.5438 57.6907L95.5607 57.5361C95.4153 57.794 95.3404 57.9422 95.1756 58.1979L95.0985 58.1895Z" fill="#FFE0D6"/>
<path d="M95.7893 55.6258L95.6539 55.611C95.4154 55.4676 95.3449 55.5772 95.2701 55.7254L95.9835 56.1748C96.0099 56.1861 96.0331 56.2037 96.0511 56.2262C96.0691 56.2486 96.0813 56.2751 96.0866 56.3034V56.3034C96.1098 56.0909 96.2365 56.0069 96.3176 55.8008C96.3454 55.7512 96.3629 55.6966 96.3693 55.6402C96.3757 55.5838 96.3708 55.5267 96.355 55.4722C96.3391 55.4177 96.3125 55.3669 96.2768 55.3227C96.241 55.2786 96.197 55.242 96.147 55.2152L95.9663 55.0781L96.5832 55.517L96.4672 55.5043C96.4672 55.5043 96.4672 55.5043 96.4545 55.6202C96.3025 56.0076 96.1307 56.3869 95.9395 56.7565V56.7565L95.9501 56.6599C95.9627 56.544 95.9648 56.5247 95.9712 56.4667L94.5422 55.5873C94.407 55.5725 94.407 55.5725 94.3491 55.5662C94.5286 55.1752 94.629 54.9711 94.7892 54.5781L94.6734 54.5654L95.3373 54.9312L95.1441 54.9101C94.8736 54.8806 94.7384 54.8658 94.6358 55.0892C94.5332 55.3126 94.6103 55.321 94.4797 55.4436C94.5316 55.4314 94.5863 55.4374 94.6344 55.4605L95.2574 55.8414L95.268 55.7448C95.2908 55.7065 95.3051 55.6638 95.31 55.6196C95.3149 55.5753 95.3101 55.5305 95.2962 55.4882C95.2823 55.4459 95.2596 55.4071 95.2294 55.3744C95.1992 55.3417 95.1623 55.3158 95.1212 55.2986V55.2986L95.8903 55.7736L95.7893 55.6258Z" fill="#FFE0D6"/>
<path d="M96.5055 55.3324C96.5202 55.1972 96.5246 55.1586 96.3978 55.0665L95.0311 54.1548C95.0311 54.1548 95.031 54.1548 94.9045 54.2387L94.9024 54.258L94.9446 53.8716L96.6834 54.0616C96.6509 54.0672 96.6173 54.0636 96.5867 54.051L95.4251 52.5165L95.4694 52.1108C95.4546 52.246 95.4504 52.2847 95.4462 52.3233L96.8083 53.0977C96.9435 53.1125 96.9821 53.1167 97.012 53.0222C96.9803 53.312 96.9633 53.4665 96.8179 53.7244L96.8284 53.6278C96.8453 53.4732 96.8495 53.4346 96.8516 53.4152L95.5626 52.6879L95.4468 52.6753L96.6623 54.2548L94.8848 54.0606L96.1227 54.8996C96.1227 54.8996 96.2192 54.9102 96.2705 54.7985C96.2152 54.9707 96.1512 55.1398 96.0784 55.3053L96.5055 55.3324Z" fill="#FFE0D6"/>
<path d="M96.4151 62.2433C96.4278 62.1274 96.4299 62.1081 96.4362 62.0501L94.9882 61.1686C94.8723 61.156 94.8528 61.1538 94.7948 61.1475C94.9747 60.9325 95.0454 60.823 95.2274 60.5887C95.2148 60.7046 95.2127 60.7239 95.2063 60.7819L96.6525 61.6828C96.7684 61.6954 96.7877 61.6975 96.865 61.706L96.4517 62.2669L96.4151 62.2433Z" fill="#FFE0D6"/>
<path d="M96.9119 61.633C96.9245 61.5171 96.9266 61.4977 96.933 61.4398L95.4868 60.5389C95.3709 60.5262 95.3516 60.5241 95.2937 60.5178C95.4357 60.3379 95.567 60.1498 95.6874 59.9548C95.73 59.8756 95.7883 59.806 95.8587 59.7502C95.929 59.6943 96.0101 59.6534 96.0968 59.6299C96.1836 59.6065 96.2741 59.6009 96.363 59.6137C96.452 59.6264 96.5376 59.6572 96.6142 59.7041C96.6893 59.7502 96.7533 59.8122 96.8018 59.8857C96.8503 59.9592 96.8821 60.0425 96.895 60.1296C96.9078 60.2168 96.9013 60.3057 96.876 60.3901C96.8508 60.4745 96.8076 60.5523 96.749 60.6181L96.7279 60.8113L97.2391 61.1409C97.3744 61.1556 97.3939 61.1578 97.4518 61.1641L97.06 61.7078L96.9119 61.633ZM95.497 60.2663L95.6709 60.2853L96.4767 60.7839L96.4915 60.6486C96.537 60.59 96.5685 60.5217 96.5835 60.449C96.5985 60.3763 96.5965 60.3011 96.5779 60.2292C96.5593 60.1573 96.5246 60.0907 96.4763 60.0344C96.4279 59.978 96.3673 59.9335 96.2991 59.9043C96.2413 59.8544 96.1729 59.8182 96.0992 59.7985C96.0255 59.7788 95.9483 59.776 95.8734 59.7904C95.7984 59.8048 95.7277 59.836 95.6665 59.8816C95.6053 59.9272 95.5554 59.9861 95.5203 60.0538L95.4046 60.2171L95.497 60.2663Z" fill="#FFE0D6"/>
<path d="M97.2094 59.9841L97.3254 59.9967C97.3799 60.0395 97.4428 60.07 97.5101 60.0864C97.5774 60.1028 97.6476 60.1045 97.7157 60.0916C97.7838 60.0787 97.8483 60.0513 97.9049 60.0114C97.9615 59.9715 98.009 59.9199 98.0441 59.8602C98.075 59.8126 98.0958 59.7592 98.1049 59.7032C98.114 59.6472 98.1113 59.59 98.097 59.5351C98.0828 59.4802 98.0573 59.4288 98.0221 59.3843C97.9869 59.3399 97.9429 59.3032 97.8928 59.2767C97.433 59.0114 96.9771 59.7827 96.4443 59.4704C96.3361 59.3891 96.2636 59.2692 96.2417 59.1356C96.2199 59.0021 96.2505 58.8653 96.3271 58.7538C96.393 58.6384 96.5002 58.5523 96.6271 58.5129V58.5129L96.5307 58.5023L96.3953 58.4875L96.9669 58.8041L96.8509 58.7914C96.8046 58.7601 96.7523 58.7386 96.6974 58.7282C96.6425 58.7179 96.586 58.7189 96.5314 58.7313C96.4769 58.7437 96.4256 58.7671 96.3805 58.8002C96.3354 58.8332 96.2976 58.8752 96.2694 58.9234C96.2389 58.9598 96.2173 59.0026 96.2059 59.0487C96.1944 59.0947 96.1936 59.1428 96.2036 59.1892C96.2137 59.2356 96.2343 59.2791 96.2637 59.3163C96.2932 59.3535 96.3307 59.3835 96.3735 59.404C96.8139 59.6672 97.2717 58.8765 97.839 59.2317C97.9052 59.271 97.9619 59.3243 98.0052 59.3879C98.0485 59.4514 98.0773 59.5238 98.0895 59.5997C98.1017 59.6757 98.097 59.7534 98.0758 59.8273C98.0547 59.9013 98.0176 59.9697 97.9671 60.0277C97.9322 60.0974 97.8838 60.1594 97.8245 60.21C97.7652 60.2606 97.6963 60.2988 97.622 60.3224C97.622 60.3224 97.6221 60.3224 97.5062 60.3097L97.622 60.3224L97.7767 60.3393L97.0957 59.9521L97.2094 59.9841Z" fill="#FFE0D6"/>
<path d="M96.997 57.6345L96.9843 57.7504C96.9716 57.8663 96.9695 57.8856 96.9632 57.9436L98.2459 58.7289C98.277 58.7602 98.3158 58.7829 98.3585 58.7945C98.4011 58.8062 98.4462 58.8064 98.4889 58.7953C98.5317 58.7841 98.5709 58.7619 98.6024 58.7309C98.6339 58.6999 98.6567 58.6612 98.6686 58.6186C98.7066 58.5676 98.7326 58.5087 98.745 58.4462C98.7573 58.3838 98.7555 58.3194 98.7398 58.2577C98.724 58.196 98.6946 58.1387 98.6538 58.0898C98.6131 58.0409 98.5621 58.0017 98.5043 57.9751L97.3505 57.2625C97.2346 57.2499 97.1573 57.2414 97.1186 57.2372C97.1419 57.0247 97.2683 56.9408 97.3473 56.7539C97.3347 56.8698 97.3282 56.9278 97.4571 57.0005L98.611 57.713C98.6715 57.7452 98.725 57.7893 98.7679 57.8427C98.8109 57.8961 98.8424 57.9577 98.8608 58.0237C98.8792 58.0897 98.884 58.1588 98.8749 58.2267C98.8658 58.2946 98.8428 58.36 98.8076 58.4188C98.7846 58.4827 98.7474 58.5405 98.6987 58.5878C98.65 58.6352 98.5912 58.6708 98.5267 58.6921C98.4622 58.7133 98.3937 58.7195 98.3264 58.7103C98.2591 58.7011 98.1949 58.6767 98.1385 58.6389L96.946 57.9222C96.8301 57.9095 96.8108 57.9074 96.7528 57.9011C96.8002 58.004 96.8729 57.8751 96.997 57.6345Z" fill="#FFE0D6"/>
<path d="M99.0769 57.9204C99.0895 57.8045 99.0939 57.7658 98.9864 57.6759L97.6218 56.7448C97.6218 56.7448 97.6217 56.7448 97.5058 56.7322L97.4932 56.8481C97.5372 56.72 97.5902 56.5952 97.6514 56.4744L99.4287 56.6685C99.3961 56.6742 99.3628 56.6705 99.3322 56.658L98.1896 55.1255C98.197 54.9896 98.2117 54.8541 98.234 54.7198V54.7198C98.2192 54.8551 98.215 54.8937 98.2107 54.9323L99.575 55.6874C99.7295 55.7043 99.7681 55.7085 99.8068 55.7127C99.7751 56.0025 99.7605 56.1378 99.5936 56.4128L99.6041 56.3162C99.621 56.1617 99.6252 56.123 99.6273 56.1037L98.3384 55.3764L98.2223 55.3637L98.2118 55.4603L99.4058 57.057L97.4738 56.846L98.7117 57.685C98.7117 57.685 98.7116 57.685 98.8616 57.5645L98.8721 57.4679C98.8489 57.6804 98.7419 57.7665 98.6628 57.9534L99.0769 57.9204Z" fill="#FFE0D6"/>
<path d="M54.9822 27.2193C54.9822 27.2193 54.7147 31.1001 50.0336 36.7276L57.8415 41.4905C60.5663 39.1283 62.429 35.9276 63.1366 32.3915L54.9822 27.2193Z" fill="url(#paint3_linear_36_516)"/>
<path d="M64.2177 37.8858L65.0255 38.365C64.7466 39.0506 64.387 39.7005 63.9539 40.3007L65.0582 40.9297L64.5959 41.583L62.7631 40.4639C63.3676 39.6777 63.8573 38.8097 64.2177 37.8858V37.8858Z" fill="#DDD3E9"/>
<path d="M65.5272 40.3944C65.6174 40.2191 65.7419 40.0636 65.8931 39.9371C66.0444 39.8106 66.2195 39.7157 66.4081 39.658C66.5966 39.6002 66.7947 39.5808 66.9909 39.6008C67.187 39.6209 67.377 39.68 67.5499 39.7746C67.7429 39.871 67.9143 40.0056 68.0537 40.1701C68.1931 40.3347 68.2979 40.5258 68.3613 40.732C68.4247 40.9382 68.4455 41.155 68.4227 41.3695C68.3998 41.584 68.3336 41.7916 68.2281 41.9797C68.1124 42.1639 67.9608 42.3232 67.7827 42.4481C67.6045 42.573 67.4034 42.661 67.1907 42.707C66.978 42.753 66.7583 42.756 66.5444 42.7159C66.3306 42.6757 66.1269 42.5933 65.9454 42.4733C65.7747 42.3702 65.6274 42.2327 65.5127 42.0696C65.398 41.9065 65.3183 41.7213 65.279 41.5258C65.2397 41.3303 65.2415 41.1288 65.2842 40.934C65.327 40.7392 65.4096 40.5554 65.5272 40.3944V40.3944ZM67.3621 41.4941C67.4203 41.4199 67.462 41.334 67.4843 41.2423C67.5066 41.1507 67.5092 41.0553 67.4915 40.9626C67.4738 40.8699 67.4364 40.7821 67.3819 40.705C67.3275 40.6279 67.2573 40.5634 67.1759 40.5158C66.8815 40.3468 66.5189 40.444 66.2772 40.8673C66.2206 40.9374 66.1791 41.0183 66.155 41.1051C66.1309 41.1918 66.1246 41.2826 66.1369 41.3718C66.1491 41.461 66.1794 41.5468 66.226 41.6239C66.2726 41.7009 66.3344 41.7677 66.4077 41.82C66.4955 41.8804 66.596 41.92 66.7015 41.9356C66.8069 41.9513 66.9145 41.9427 67.0162 41.9104C67.1178 41.8781 67.2106 41.823 67.2877 41.7494C67.3647 41.6757 67.424 41.5854 67.4609 41.4853L67.3621 41.4941Z" fill="#DDD3E9"/>
<path d="M69.2629 43.4223L69.0244 43.279C68.889 43.4921 68.7424 43.6979 68.5854 43.8957L67.7584 43.4144C68.3941 42.6315 68.9111 41.7591 69.2924 40.8254L70.4891 41.5035C70.6432 41.5709 70.7819 41.6688 70.897 41.7914C71.0122 41.9139 71.1013 42.0586 71.1589 42.2165C71.2166 42.3745 71.2418 42.5426 71.2327 42.7105C71.2236 42.8784 71.1803 43.0427 71.1059 43.1935C71.0174 43.3682 70.8793 43.5128 70.7088 43.609C70.5382 43.7052 70.3429 43.7487 70.1476 43.734C70.1012 44.1591 70.078 44.3716 70.0316 44.7966L69.1507 44.2703C69.2445 43.9482 69.2442 43.7722 69.2629 43.4223ZM70.1019 42.1846L69.7881 42.0134C69.6853 42.2285 69.571 42.4379 69.4459 42.6408L69.7403 42.8098C69.9788 42.9531 70.1653 42.8562 70.2595 42.7101C70.2897 42.6668 70.3099 42.6173 70.3183 42.5652C70.3267 42.5131 70.323 42.4597 70.3079 42.4092C70.2927 42.3586 70.2663 42.3121 70.2306 42.2732C70.1949 42.2344 70.1509 42.204 70.1019 42.1846V42.1846Z" fill="#DDD3E9"/>
<path d="M72.9026 45.5404C72.7675 45.7579 72.6143 45.9635 72.4445 46.1551L70.3862 44.9528C71.0322 44.1668 71.5564 43.2882 71.9415 42.3465L73.9635 43.5253C73.9318 43.8151 73.7797 43.9549 73.6321 44.232L72.4181 43.5325C72.3759 43.6415 72.325 43.7471 72.2662 43.8482L73.3148 44.4515C73.1694 44.7093 73.0966 44.8382 72.9318 45.094L71.8855 44.4714C71.8068 44.5827 71.7351 44.6989 71.6714 44.8194L72.9026 45.5404Z" fill="#DDD3E9"/>
<path d="M75.0161 47.6675C75.304 47.3033 75.568 46.9207 75.8061 46.5222C75.3687 46.7676 75.1199 46.8969 74.646 47.1188L74.2593 46.9006C74.3305 46.5048 74.3742 46.1046 74.3902 45.7028C74.171 46.0962 73.9143 46.4675 73.6237 46.8116L72.8526 46.3559C73.5131 45.5802 74.0389 44.6993 74.4081 43.7497L75.1063 44.1583C75.171 44.8108 75.1971 45.4664 75.1849 46.122C75.8324 45.743 76.1475 45.5428 76.7391 45.1383L77.4395 45.5276C77.0533 46.4815 76.5279 47.3729 75.88 48.1725L75.0161 47.6675Z" fill="#DDD3E9"/>
<path d="M78.8727 46.3684L79.7385 46.854C79.3536 47.8121 78.8209 48.7038 78.1596 49.4968L77.2958 48.9918C77.9631 48.2108 78.4961 47.3242 78.8727 46.3684V46.3684Z" fill="#DDD3E9"/>
<path d="M82.0634 49.5517C81.9722 49.6972 81.8514 49.8218 81.7089 49.9176C81.5664 50.0133 81.4053 50.078 81.2362 50.1075C81.067 50.1369 80.8935 50.1305 80.727 50.0886C80.5605 50.0466 80.4047 49.9702 80.2697 49.8641L79.9024 49.648L79.4462 50.2434L78.5826 49.7385C79.2439 48.9455 79.7767 48.0538 80.1616 47.0957L81.3926 47.8167C81.5535 47.883 81.6992 47.9813 81.8209 48.1057C81.9426 48.23 82.0377 48.3779 82.1004 48.5402C82.1631 48.7025 82.1924 48.8759 82.186 49.0498C82.1796 49.2237 82.1379 49.3945 82.0634 49.5517V49.5517ZM81.1804 49.0447C81.2071 48.9992 81.2234 48.9485 81.2289 48.8961C81.2343 48.8436 81.2285 48.7906 81.2117 48.7406C81.195 48.6907 81.1679 48.6449 81.1319 48.6063C81.0959 48.5677 81.0522 48.5373 81.0035 48.5171L80.6725 48.3245C80.5463 48.5844 80.4736 48.7134 80.3281 48.9712L80.6419 49.1423C80.6814 49.1769 80.7282 49.2022 80.7789 49.2162C80.8296 49.2302 80.8829 49.2327 80.9347 49.2233C80.9864 49.2139 81.0353 49.193 81.0779 49.1621C81.1204 49.1311 81.1555 49.091 81.1804 49.0447V49.0447Z" fill="#DDD3E9"/>
<path d="M81.2937 51.0512L82.0289 50.5842C82.1874 50.8861 82.4225 51.141 82.7107 51.3233C82.9685 51.4688 83.097 51.3655 83.155 51.3719C83.2129 51.3782 81.8015 50.5202 82.3447 49.4847C82.6142 48.9863 83.2039 48.777 84.0118 49.2563C84.362 49.4488 84.6606 49.7228 84.8825 50.0552C84.6946 50.2505 84.4918 50.431 84.2761 50.595C84.126 50.3365 83.9149 50.1188 83.6611 49.9609C83.4033 49.8154 83.2748 49.9187 83.2361 49.9145C83.1975 49.9102 84.7016 50.8174 84.0681 51.7844C83.7428 52.2572 83.0432 52.3958 82.2354 51.9166C81.8439 51.726 81.5166 51.4252 81.2937 51.0512V51.0512Z" fill="#DDD3E9"/>
<path d="M84.5184 51.599C84.8359 51.1233 85.101 50.6148 85.3096 50.0823L86.1926 50.5893C85.9831 51.112 85.7254 51.614 85.4229 52.0888C85.1833 52.4928 85.2158 52.7309 85.4736 52.8764C85.7314 53.0218 85.9759 52.9312 86.2327 52.5487C86.5305 52.0711 86.7881 51.5696 87.0027 51.0493L87.8663 51.5542C87.6571 52.0929 87.3913 52.6078 87.0731 53.0902C86.9734 53.27 86.8362 53.4264 86.671 53.5487C86.5057 53.6711 86.3163 53.7566 86.1152 53.7995C85.9141 53.8423 85.706 53.8416 85.5052 53.7973C85.3044 53.753 85.1156 53.6662 84.9512 53.5427C84.775 53.4632 84.6199 53.3439 84.4979 53.194C84.3759 53.0441 84.2904 52.8678 84.2484 52.6792C84.2064 52.4905 84.2089 52.2947 84.2558 52.1072C84.3026 51.9197 84.3926 51.7457 84.5184 51.599V51.599Z" fill="#DDD3E9"/>
<path d="M89.0396 55.8464C89.3414 55.4817 89.6129 55.0929 89.8511 54.6838C89.3751 54.9251 89.1455 55.0564 88.6308 55.2935L88.227 55.0538C88.2994 54.6517 88.3438 54.245 88.3599 53.8367C88.1224 54.229 87.8593 54.6052 87.5723 54.9628L86.7643 54.4835C87.4332 53.6783 87.9739 52.7745 88.3669 51.8042L89.0824 52.2343C89.1606 52.8865 89.1934 53.5433 89.1806 54.2C89.7379 53.9 90.2767 53.5672 90.7946 53.2033L91.5316 53.6162C91.154 54.6004 90.6115 55.5131 89.9271 56.3148L89.0396 55.8464Z" fill="#DDD3E9"/>
<g style="mix-blend-mode:soft-light">
<g style="mix-blend-mode:soft-light">
<path d="M87.9062 62.6433L87.502 62.2277C91.496 58.4905 94.1072 53.5111 94.9102 48.1005L95.4896 48.1638C94.6797 53.7115 92.0052 58.8182 87.9062 62.6433V62.6433Z" fill="#DADADA"/>
</g>
</g>
<g style="mix-blend-mode:soft-light">
<g style="mix-blend-mode:soft-light">
<path d="M57.647 45.4184L57.3223 44.9919C63.7513 39.8291 65.2669 30.7865 65.2753 30.7092L65.8164 30.7683C65.8164 30.7683 64.2454 40.1372 57.647 45.4184Z" fill="#DADADA"/>
</g>
</g>
<path opacity="0.35" fill-rule="evenodd" clip-rule="evenodd" d="M52.2378 22.814L104.039 53.3011C103.902 56.1052 103.091 58.835 101.676 61.2597C100.261 63.6845 98.2831 65.733 95.9095 67.2322L44.3846 37.7919C48.4539 33.7062 51.1917 28.4848 52.2378 22.814Z" fill="#771156"/>
<path fill-rule="evenodd" clip-rule="evenodd" d="M8.82312 23.2915L57.9835 48.4266L95.787 67.1013L44.5669 37.7334L8.82312 23.2915Z" fill="#4E2C81"/>
<path fill-rule="evenodd" clip-rule="evenodd" d="M3.95069 35.6822C3.93845 35.5054 3.97571 35.3287 4.05846 35.1719C4.1412 35.0152 4.26604 34.8846 4.41895 34.795L37.4467 52.0878C41.1059 48.9788 43.631 44.7443 44.627 40.0472L9.6483 25.0437C9.6483 25.0437 9.27597 24.5142 10.1893 24.0275L45.9584 39.3128C45.9584 39.3128 45.6374 46.7264 37.7356 53.918L3.95069 35.6822Z" fill="#7184FF"/>
<path fill-rule="evenodd" clip-rule="evenodd" d="M10.5956 25.4989C9.46796 29.0619 7.86747 32.4575 5.83689 35.5949L37.4361 52.1842C41.192 49.1581 43.7393 44.8864 44.6164 40.1436L10.5956 25.4989Z" fill="#EEE1E9"/>
<path fill-rule="evenodd" clip-rule="evenodd" d="M9.59033 25.0374L10.5679 25.5742L44.4627 40.4789L44.582 40.1009L9.59033 25.0374Z" fill="url(#paint4_radial_36_516)"/>
<path fill-rule="evenodd" clip-rule="evenodd" d="M43.8073 40.2117C43.8073 40.2117 44.2575 46.8297 37.015 51.9232L37.4403 52.1456C41.1263 49.2439 43.624 45.0944 44.4626 40.4788L43.8073 40.2117Z" fill="url(#paint5_radial_36_516)"/>
<path fill-rule="evenodd" clip-rule="evenodd" d="M45.9005 39.3063L97.0696 67.8866C97.0257 70.5679 96.3491 73.201 95.0947 75.5712C93.8404 77.9415 92.044 79.9819 89.8517 81.5263L37.7785 53.8833C41.9606 50.0066 44.8044 44.9025 45.9005 39.3063V39.3063Z" fill="url(#paint6_linear_36_516)"/>
<g style="mix-blend-mode:multiply" opacity="0.8">
<path fill-rule="evenodd" clip-rule="evenodd" d="M10.5998 25.4602L10.3906 26.1216L43.7978 40.8362L43.8074 40.2116L10.5998 25.4602Z" fill="#9A4F8B"/>
</g>
<g style="mix-blend-mode:multiply" opacity="0.8">
<path fill-rule="evenodd" clip-rule="evenodd" d="M40.2097 44.5106L37.3456 50.8644L33.5024 48.822L35.9426 43.1257L40.2097 44.5106Z" fill="#9A4F8B"/>
</g>
<path fill-rule="evenodd" clip-rule="evenodd" d="M40.2099 44.5106L35.9428 43.1257C35.0102 43.1277 34.0954 43.3802 33.2936 43.8566C32.4919 44.333 31.8328 45.0159 31.3851 45.8341L36.7622 48.6893C36.9777 47.7749 37.4009 46.9225 37.9987 46.1979C38.5965 45.4732 39.3531 44.8959 40.2099 44.5106V44.5106Z" fill="url(#paint7_linear_36_516)"/>
<g opacity="0.5">
<path opacity="0.5" d="M59.5144 58.2128L59.6882 58.2317C59.9008 58.255 59.9588 58.2613 60.0572 58.0766L61.4988 55.4383C61.522 55.2258 61.5263 55.1872 61.3823 55.0737L61.2085 55.0547L62.3535 55.6686L62.1988 55.6517C61.9775 55.5297 61.939 55.5255 61.8364 55.7489L60.414 58.3892C60.3543 58.4674 60.2731 58.5265 60.1804 58.5592V58.5592L60.7885 58.8993C61.2139 59.1218 61.5572 59.1984 61.8183 58.7772L62.0986 58.3582L61.3198 59.583L61.4847 59.3273C61.4847 59.3273 61.4845 59.3273 61.33 59.3104L59.4867 58.2879L59.5144 58.2128Z" fill="#A9E0FF"/>
<path opacity="0.5" d="M62.7442 57.9986C62.8535 57.7718 63.0095 57.5707 63.202 57.4083C63.3944 57.246 63.6189 57.1261 63.8609 57.0566C64.1029 56.9871 64.3568 56.9694 64.6061 57.0048C64.8554 57.0402 65.0945 57.1279 65.3076 57.262C65.5359 57.3672 65.7391 57.5199 65.9037 57.7098C66.0684 57.8998 66.1906 58.1227 66.2624 58.3636C66.3341 58.6046 66.3537 58.858 66.3198 59.1071C66.2858 59.3562 66.1993 59.5952 66.0657 59.8082C65.7734 60.1338 65.3797 60.3513 64.9484 60.4255C64.5172 60.4996 64.0737 60.4261 63.6894 60.2168C63.3052 60.0074 63.0029 59.6745 62.8313 59.272C62.6598 58.8695 62.629 58.4208 62.7442 57.9986V57.9986ZM65.6296 59.6823C66.2177 58.5931 66.0725 57.7757 65.2411 57.333C64.4097 56.8903 63.6955 57.1641 63.1973 58.1459C62.699 59.1276 62.7543 60.0525 63.5878 60.4759C64.4214 60.8993 65.095 60.6406 65.6105 59.6802L65.6296 59.6823Z" fill="#A9E0FF"/>
<path opacity="0.5" d="M65.4121 61.4963L65.5859 61.5152C65.8178 61.5406 65.837 61.5427 65.9483 61.418L67.3944 58.7412C67.4197 58.5093 67.4216 58.49 67.2776 58.3765L67.1232 58.3596L68.2854 58.9949C68.4421 59.0515 68.5849 59.1404 68.7049 59.2559C68.8248 59.3714 68.9192 59.5109 68.9816 59.6653C69.0441 59.8197 69.0733 59.9855 69.0674 60.1519C69.0615 60.3183 69.0205 60.4816 68.9472 60.6312C68.8104 60.8863 68.5793 61.0778 68.3031 61.1646C68.0269 61.2513 67.7275 61.2265 67.4694 61.0954V61.0954C67.5639 61.1578 67.6427 61.2411 67.6998 61.3389C67.7569 61.4367 67.791 61.5463 67.799 61.6592L67.7462 62.1422C67.7209 62.3741 67.6829 62.7218 67.9256 62.8265L68.0994 62.8455L68.2346 62.8603L68.0994 62.8455C67.9437 62.8838 67.7795 62.8659 67.6358 62.7949C67.4039 62.7695 67.3902 62.3575 67.3639 62.0614L67.3005 61.3897C67.3322 61.0999 67.3511 60.926 67.0504 60.815L67.2629 60.8382C67.3781 60.91 67.5078 60.9553 67.6427 60.9707C67.7775 60.986 67.914 60.9712 68.0424 60.9272C68.1708 60.8831 68.288 60.8111 68.385 60.7162C68.482 60.6213 68.5566 60.506 68.6035 60.3786C68.6869 60.2704 68.7444 60.1445 68.7716 60.0106C68.7988 59.8767 68.7948 59.7383 68.7602 59.6062C68.7255 59.474 68.661 59.3516 68.5716 59.2482C68.4822 59.1449 68.3704 59.0634 68.2447 59.01L67.7849 58.7447C67.7983 58.7895 67.8025 58.8365 67.7975 58.8829C67.7924 58.9294 67.7781 58.9744 67.7553 59.0152L66.3352 61.6362C66.3099 61.868 66.3056 61.9067 66.4496 62.0201L66.7201 62.0497L65.4653 61.3652L65.4121 61.4963Z" fill="#A9E0FF"/>
<path opacity="0.5" d="M70.0331 62.8612L70.1766 62.6227C70.4011 62.178 70.2419 62.0238 69.9455 61.8741L69.7523 61.853L69.04 63.1828C69.0154 63.2285 68.9819 63.2688 68.9414 63.3013C68.9009 63.3339 68.8543 63.3579 68.8043 63.3721V63.3721L69.7088 63.8619C69.7868 63.9191 69.8764 63.9584 69.9713 63.9771C70.0663 63.9958 70.1643 63.9934 70.2583 63.9701C70.3522 63.9468 70.4397 63.9031 70.5149 63.8422C70.5901 63.7813 70.6511 63.7046 70.6934 63.6176L70.9073 63.2695L70.1713 64.4599L70.3104 64.26C70.2785 64.2706 70.2449 64.2742 70.2116 64.2705C70.1783 64.2669 70.146 64.2561 70.1172 64.2389L68.087 63.1374L68.2609 63.1564C68.4734 63.1796 68.5121 63.1838 68.6235 63.0591L70.0693 60.3823C70.0946 60.1504 70.0968 60.1311 69.9528 60.0176L69.7981 60.0007L71.6456 60.9846C71.6456 60.9846 71.781 60.9993 71.7877 61.1174L71.813 60.8855L71.2443 62.1528L71.1478 62.1423L71.3016 61.8072C71.3583 61.7212 71.3947 61.6234 71.408 61.5213C71.4214 61.4191 71.4113 61.3153 71.3787 61.2176C71.346 61.1199 71.2918 61.0309 71.2198 60.9573C71.1477 60.8837 71.0598 60.8274 70.9628 60.7927L70.3356 60.4505C70.3537 60.5481 70.3427 60.6489 70.3039 60.7402L69.6665 61.9218L69.8597 61.9429C70.1108 61.9704 70.3644 62.1545 70.5868 61.7291L70.6058 61.5552L69.8231 62.9946L70.0331 62.8612Z" fill="#A9E0FF"/>
<path opacity="0.5" d="M70.6173 64.3131C70.8579 64.4371 70.9263 64.3468 71.0655 64.147L72.5911 61.6352C72.5993 61.6037 72.6029 61.5712 72.6016 61.5386C72.6143 61.4227 72.6207 61.3648 72.4552 61.2685L72.2814 61.2495L72.928 61.5938L72.6956 64.7942C72.6978 64.8723 72.6893 64.9503 72.6703 65.0261V65.0261L72.844 64.8691L75.3835 62.9178L76.0667 63.2856L75.9122 63.2688C75.6804 63.2434 75.6223 63.2371 75.5538 63.3274L75.5411 63.4433L74.3011 66.0253C74.1557 66.2831 74.1665 66.3625 74.4071 66.4865L73.2257 65.8492L73.3995 65.8682C73.638 66.0115 73.7085 65.9019 73.7665 65.9083L74.9511 63.4766L74.9722 63.2834C74.9722 63.2834 74.9721 63.2834 74.8006 63.421L72.1345 65.4563L72.3582 62.1572C72.3586 62.0857 72.3664 62.0145 72.3814 61.9447V61.9447L72.3645 62.0992L70.98 64.3918C70.9674 64.5077 70.9591 64.585 71.1611 64.7048L71.3349 64.7238L70.467 64.2575L70.6173 64.3131Z" fill="#A9E0FF"/>
<path opacity="0.5" d="M75.9175 67.1599L76.0719 67.1767C76.3038 67.2021 76.3232 67.2042 76.4346 67.0795L77.8825 64.3833C78.0023 64.1814 77.91 64.1322 77.7853 64.0208L77.6113 64.0018L78.7566 64.6157L78.5825 64.5966C78.37 64.5734 78.3315 64.5692 78.218 64.7132L76.7741 67.3707C76.7488 67.6026 76.7468 67.6219 76.8908 67.7354L77.0646 67.7544L75.9196 67.1406L75.9175 67.1599Z" fill="#A9E0FF"/>
<path opacity="0.5" d="M77.2947 67.9751L77.4685 67.994C77.681 68.0173 77.7197 68.0215 77.8332 67.8775L79.279 65.2006C79.3022 64.9881 79.3065 64.9495 79.1625 64.836L79.0078 64.8191L80.1529 65.4329C80.3046 65.4894 80.4425 65.5779 80.5569 65.6924C80.6714 65.8069 80.7597 65.9447 80.8161 66.0964C80.8726 66.2481 80.8956 66.4102 80.8838 66.5716C80.872 66.7331 80.8255 66.89 80.7476 67.0319C80.6697 67.1738 80.5621 67.2972 80.4322 67.3938C80.3023 67.4904 80.1532 67.5579 79.9949 67.5917C79.8366 67.6255 79.6729 67.6248 79.5149 67.5896C79.3569 67.5545 79.2083 67.4857 79.0792 67.388L78.6905 67.1891L78.1727 68.1687C78.0529 68.3707 78.1455 68.4199 78.2895 68.5334L78.4053 68.546L77.2989 67.9364L77.2947 67.9751ZM79.5474 65.2495C79.5646 65.3037 79.5703 65.3609 79.5641 65.4175C79.5579 65.4741 79.5401 65.5287 79.5115 65.5779L78.7031 67.0732L78.961 67.2187C79.206 67.3491 79.4927 67.3769 79.7582 67.2959C80.0237 67.2149 80.2461 67.0318 80.3766 66.7868C80.507 66.5418 80.5348 66.255 80.4539 65.9895C80.3729 65.724 80.1896 65.5015 79.9446 65.3711L79.6117 65.1979L79.5474 65.2495Z" fill="#A9E0FF"/>
<path opacity="0.5" d="M80.3212 68.1884L80.3 68.3816C80.2331 68.488 80.1881 68.607 80.1683 68.7312C80.1485 68.8554 80.1541 68.9824 80.1846 69.1044C80.2151 69.2264 80.2699 69.3411 80.3459 69.4413C80.4218 69.5416 80.5173 69.6255 80.6265 69.688C80.7141 69.7449 80.8129 69.7821 80.9163 69.7969C81.0197 69.8117 81.125 69.8039 81.225 69.7739C81.325 69.7439 81.4172 69.6924 81.4954 69.6231C81.5735 69.5539 81.6356 69.4684 81.6774 69.3727C82.118 68.5606 80.6422 67.7542 81.1812 66.7574C81.2457 66.6535 81.3312 66.5643 81.4323 66.4955C81.5333 66.4267 81.6477 66.3799 81.768 66.358C81.8883 66.3361 82.0118 66.3397 82.1306 66.3686C82.2494 66.3974 82.3609 66.4508 82.4578 66.5254C82.6651 66.6448 82.8353 66.819 82.9501 67.0288C82.9528 67.0809 82.9471 67.1331 82.9332 67.1834V67.1834C82.9321 67.1313 82.9378 67.0794 82.9501 67.0288L83.0763 66.7689L82.5653 67.8665L82.5864 67.6733C82.6408 67.5848 82.6764 67.4861 82.6911 67.3832C82.7057 67.2803 82.699 67.1756 82.6715 67.0754C82.6439 66.9752 82.5963 66.8818 82.5311 66.8009C82.4659 66.72 82.3846 66.6533 82.2926 66.6051C82.2223 66.5558 82.1419 66.5225 82.0574 66.5078C81.9728 66.4931 81.8861 66.4973 81.8033 66.52C81.7205 66.5427 81.6438 66.5834 81.5786 66.6392C81.5134 66.695 81.4613 66.7645 81.4261 66.8428C80.9876 67.6356 82.502 68.4461 81.918 69.4967C81.6443 70.0338 81.1079 70.112 80.4785 69.7891C80.2255 69.6443 80.024 69.4241 79.9022 69.1592C79.8987 69.0876 79.9066 69.0159 79.9254 68.9467C79.9264 69.0182 79.9186 69.0896 79.9022 69.1592L79.7524 69.4557L80.3596 68.1926L80.3212 68.1884Z" fill="#A9E0FF"/>
<path opacity="0.5" d="M84.5547 67.7319L84.3616 67.7108C84.1403 67.5889 84.0913 67.6812 83.9992 67.808L82.703 70.1884C82.6576 70.2582 82.6282 70.337 82.6169 70.4195C82.6056 70.5019 82.6126 70.5858 82.6375 70.6651C82.6625 70.7445 82.7048 70.8173 82.7612 70.8784C82.8177 70.9395 82.8869 70.9874 82.9641 71.0185C83.0538 71.0829 83.1569 71.1263 83.2657 71.1455C83.3745 71.1648 83.4863 71.1594 83.5927 71.1298C83.6991 71.1001 83.7976 71.047 83.8808 70.9743C83.9639 70.9015 84.0296 70.8111 84.0732 70.7095L85.2238 68.587C85.3458 68.3657 85.3585 68.2498 85.1566 68.13L84.9634 68.1089L85.8485 68.5966L85.7325 68.5839C85.5007 68.5586 85.4041 68.548 85.3015 68.7714L84.1509 70.894C84.1026 71.0091 84.0284 71.1115 83.9344 71.1935C83.8404 71.2755 83.7289 71.3349 83.6083 71.367C83.4877 71.3992 83.3614 71.4033 83.239 71.379C83.1166 71.3546 83.0015 71.3026 82.9024 71.2268C82.7851 71.179 82.679 71.1074 82.5908 71.0164C82.5027 70.9254 82.4343 70.817 82.3903 70.6982C82.3462 70.5794 82.3274 70.4527 82.335 70.3263C82.3425 70.1998 82.3764 70.0763 82.4342 69.9636L83.632 67.7679C83.6573 67.5361 83.6616 67.4975 83.5176 67.384L83.3823 67.3692L84.5547 67.7319Z" fill="#A9E0FF"/>
<path opacity="0.5" d="M84.2229 71.6643C84.4547 71.6896 84.5127 71.6959 84.6711 71.4982L86.1774 68.9843L86.1879 68.8878C86.2006 68.7718 86.207 68.7139 86.0415 68.6176L85.8484 68.5965L86.5143 68.943L86.2819 72.1434C86.2887 72.2215 86.2801 72.3003 86.2566 72.3752V72.3752L86.4303 72.2182L88.9891 70.269L89.653 70.6348L89.4985 70.6179C89.2772 70.496 89.2086 70.5862 89.1506 70.5799C89.1433 70.6247 89.1383 70.6698 89.1359 70.7151L87.8787 73.2757C87.8491 73.5462 87.8408 73.6235 87.9848 73.737L88.1006 73.7496L86.919 73.1123L87.0931 73.1313C87.3315 73.2746 87.4214 73.1671 87.46 73.1713L88.6617 70.7611C88.6603 70.6895 88.6681 70.6181 88.6849 70.5486V70.5486L88.5114 70.7056L85.8453 72.7408L86.0859 69.4631C86.0792 69.3849 86.0878 69.3062 86.1113 69.2313C86.1113 69.2313 86.1113 69.2313 86.0944 69.3858L84.6908 71.6763C84.695 71.7154 84.6907 71.755 84.6781 71.7922C84.6781 71.7922 84.6591 71.9661 84.8804 72.088L85.0542 72.107L84.1863 71.6408L84.2229 71.6643Z" fill="#A9E0FF"/>
</g>
<path d="M49.7256 55.8337C49.7256 55.8337 49.7383 55.7177 49.7446 55.6598L48.4384 54.911C48.4384 54.911 48.3225 54.8984 48.2452 54.8899L48.6906 54.3912C48.6801 54.4878 48.678 54.5071 48.6716 54.5651L49.9778 55.3138C49.9863 55.3462 49.9826 55.3806 49.9673 55.4104V55.4104L50.2117 55.1438C50.368 54.9654 50.4235 54.8151 50.2623 54.6802L50.0622 54.541L50.662 54.9584L50.5266 54.9436C50.2568 55.2661 50.1199 55.4466 49.8114 55.7648L49.7256 55.8337Z" fill="#FFE0D6"/>
<path d="M49.8474 54.361C49.749 54.309 49.663 54.2365 49.595 54.1483C49.5271 54.0601 49.4789 53.9584 49.4537 53.85C49.4284 53.7416 49.4269 53.629 49.4489 53.5199C49.4709 53.4108 49.5161 53.3077 49.5814 53.2176C49.7224 53.003 49.9413 52.8514 50.1918 52.7949C50.4423 52.7384 50.705 52.7813 50.9245 52.9146C51.0366 52.9659 51.1354 53.0425 51.2129 53.1384C51.2905 53.2343 51.3446 53.3468 51.3713 53.4672C51.3979 53.5876 51.3963 53.7126 51.3665 53.8322C51.3366 53.9519 51.2793 54.063 51.1993 54.1568C51.0379 54.3502 50.8114 54.4778 50.5623 54.5155C50.3132 54.5531 50.0588 54.4982 49.8474 54.361V54.361ZM50.8731 53.0263C50.3596 52.7161 49.924 52.7663 49.6479 53.1467C49.3717 53.527 49.5676 53.8808 49.948 54.157C50.3284 54.4331 50.9164 54.4191 51.1926 54.0388C51.4688 53.6584 51.3522 53.2937 50.8731 53.0263Z" fill="#FFE0D6"/>
<path d="M51.7981 53.1469C51.8108 53.031 51.8108 53.031 51.8171 52.973L50.513 52.205C50.3971 52.1923 50.3776 52.1902 50.3196 52.1839L50.677 51.5973C50.7093 51.5205 50.7573 51.4513 50.8178 51.394C50.8783 51.3367 50.95 51.2925 51.0284 51.2644C51.1068 51.2362 51.1902 51.2246 51.2734 51.2303C51.3565 51.236 51.4375 51.2588 51.5114 51.2974C51.6321 51.3742 51.7204 51.4927 51.7595 51.6303C51.7985 51.768 51.7856 51.9152 51.7231 52.0439V52.0439C51.8031 51.9533 51.9139 51.8957 52.0341 51.8824L52.2659 51.9077C52.3818 51.9204 52.5555 51.9393 52.6068 51.8276C52.6259 51.9121 52.6163 52.0005 52.5794 52.0788C52.5667 52.1947 52.3522 52.1908 52.1934 52.2126L51.8843 52.1788C51.7297 52.1619 51.6524 52.1535 51.5775 52.3017L51.5902 52.1858C51.7571 51.9108 51.645 51.6835 51.37 51.5166C51.095 51.3497 50.8291 51.4575 50.69 51.6574L50.5468 51.8959C50.568 51.8839 50.5923 51.8788 50.6166 51.8815C50.6408 51.8841 50.6637 51.8943 50.6819 51.9106L51.9881 52.6594C51.9881 52.6594 52.1042 52.672 52.1621 52.6784L52.1769 52.5431L51.8174 53.149L51.7981 53.1469Z" fill="#FFE0D6"/>
<path d="M52.5409 50.8235L52.4057 50.8087C52.1932 50.7855 52.1158 50.7771 52.0603 50.9274L52.0498 51.024L52.6943 51.3877C52.7432 51.4165 52.78 51.4622 52.7976 51.5162V51.5162C52.8187 51.323 52.8292 51.2264 53.0242 51.0522C53.0514 51.0093 53.0693 50.9612 53.0771 50.911C53.0848 50.8608 53.0822 50.8095 53.0692 50.7603C53.0562 50.7112 53.0331 50.6653 53.0016 50.6255C52.9701 50.5856 52.9308 50.5527 52.8859 50.5288L52.7119 50.5098L53.2943 50.9058L53.1783 50.8931C52.9752 51.3206 52.8748 51.5247 52.6545 51.9307C52.6672 51.8148 52.6693 51.7955 52.6756 51.7375L51.3501 50.9867C51.3501 50.9867 51.234 50.974 51.176 50.9677L51.6273 50.059L51.5115 50.0463L52.1409 50.3692L51.967 50.3503C51.7264 50.2262 51.5804 50.308 51.4799 50.5121L51.3262 50.8472C51.3474 50.8352 51.372 50.8302 51.3962 50.8328C51.4205 50.8355 51.4431 50.8457 51.4613 50.862L52.0501 51.2L52.0607 51.1034C52.0877 51.0749 52.1071 51.0401 52.1171 51.0022C52.1271 50.9643 52.1273 50.9244 52.1178 50.8863C52.1083 50.8483 52.0894 50.8132 52.0628 50.7844C52.0362 50.7556 52.0026 50.734 51.9654 50.7215L52.6637 51.1302L52.5409 50.8235Z" fill="#FFE0D6"/>
<path d="M53.2183 50.526C53.231 50.41 53.2353 50.3714 53.1257 50.3008L51.9353 49.5647C51.9353 49.5647 51.9352 49.5647 51.8193 49.552L51.9561 49.1955L53.4824 49.3622L52.439 47.9971C52.4452 47.874 52.4586 47.7514 52.4791 47.63V47.63C52.4664 47.7459 52.4622 47.7845 52.458 47.8232L53.7146 48.4883C53.8499 48.5031 53.8885 48.5073 53.9078 48.5094C53.8803 48.7605 53.8657 48.8958 53.703 49.1322L53.7136 49.0356C53.7283 48.9003 53.7304 48.881 53.7347 48.8424L52.5509 48.2243L52.4351 48.2117L53.513 49.6197L51.9673 49.4509L51.948 49.4488L53.0804 50.1785C53.0804 50.1785 53.0803 50.1785 53.2282 50.0774C53.2092 50.2513 53.1987 50.3479 53.0231 50.5242L53.2183 50.526Z" fill="#FFE0D6"/>
<path d="M52.9081 56.7677C52.9187 56.6711 52.9208 56.6518 52.9271 56.5938L51.6016 55.843C51.4857 55.8303 51.4662 55.8282 51.4082 55.8218L51.8345 55.321C51.8218 55.4369 51.8197 55.4562 51.8155 55.4949L53.1196 56.2629C53.2355 56.2756 53.2548 56.2777 53.3127 56.284L52.8867 56.7849L52.9081 56.7677Z" fill="#FFE0D6"/>
<path d="M53.3832 56.1746C53.3959 56.0586 53.398 56.0393 53.4022 56.0007L52.0981 55.2326C51.9822 55.22 51.963 55.2179 51.905 55.2115C52.0656 54.9945 52.1532 54.9063 52.2945 54.6871C52.3823 54.5455 52.5204 54.4424 52.6811 54.3983C52.8418 54.3542 53.0134 54.3725 53.1612 54.4494C53.2284 54.4879 53.286 54.5412 53.3294 54.6054C53.3727 54.6696 53.4007 54.7429 53.4112 54.8196C53.4217 54.8963 53.4143 54.9744 53.3899 55.0479C53.3654 55.1214 53.3244 55.1882 53.2699 55.2433L53.1328 55.4238L53.6098 55.7106C53.7257 55.7232 53.7452 55.7253 53.8032 55.7317C53.6641 55.9315 53.574 56.039 53.4156 56.2367L53.3832 56.1746ZM52.1041 54.9987C52.1627 54.9871 52.2233 54.9937 52.2779 55.0177L53.0149 55.4305L53.0276 55.3146C53.0737 55.2651 53.1067 55.2048 53.1238 55.1393C53.1409 55.0738 53.1414 55.0051 53.1253 54.9394C53.1093 54.8736 53.0772 54.8129 53.0318 54.7627C52.9864 54.7125 52.9292 54.6743 52.8654 54.6517C52.8096 54.6094 52.7452 54.5797 52.6768 54.5645C52.6084 54.5494 52.5375 54.5492 52.469 54.564C52.4006 54.5788 52.3362 54.6082 52.2801 54.6503C52.2241 54.6923 52.1779 54.746 52.1446 54.8076L52.1277 54.9622L52.1041 54.9987Z" fill="#FFE0D6"/>
<path d="M53.7196 54.7059C53.8333 54.7708 53.9667 54.7925 54.0952 54.767C54.2237 54.7416 54.3388 54.6706 54.4192 54.5672C54.4495 54.5253 54.4702 54.4771 54.4797 54.4261C54.4892 54.3752 54.487 54.3228 54.4738 54.2727C54.4605 54.2227 54.4364 54.1761 54.403 54.1365C54.3696 54.097 54.3278 54.0653 54.2806 54.0438C53.8767 53.8042 53.4275 54.5176 52.9291 54.2481C52.8803 54.2129 52.8395 54.1679 52.8094 54.116C52.7792 54.0641 52.7603 54.0064 52.7539 53.9467C52.7475 53.8869 52.7538 53.8265 52.7723 53.7694C52.7908 53.7123 52.821 53.6597 52.8612 53.615C52.9241 53.5108 53.0145 53.426 53.1226 53.3699V53.3699L53.0068 53.3572L53.5439 53.631C53.4996 53.6033 53.4501 53.5849 53.3985 53.5768C53.3469 53.5687 53.2943 53.5711 53.2436 53.5838C53.1929 53.5965 53.1452 53.6193 53.1036 53.6508C53.0619 53.6823 53.0272 53.7219 53.0011 53.7672C52.97 53.797 52.947 53.8344 52.9344 53.8756C52.9218 53.9169 52.92 53.9606 52.9291 54.0028C52.9382 54.0449 52.9581 54.0841 52.9866 54.1164C53.0151 54.1488 53.0513 54.1733 53.092 54.1876C53.4766 54.4252 53.9282 53.6925 54.4438 53.9834C54.9594 54.2743 54.7493 54.4078 54.5589 54.7193C54.4721 54.8355 54.3538 54.9244 54.218 54.9754L54.1022 54.9627L54.218 54.9754L54.3534 54.9901L53.7238 54.6672L53.7196 54.7059Z" fill="#FFE0D6"/>
<path d="M53.5592 52.5964C53.5465 52.7123 53.5444 52.7317 53.5381 52.7896L54.6962 53.4635C54.7303 53.4862 54.769 53.5008 54.8096 53.5064C54.8502 53.5119 54.8916 53.5082 54.9306 53.4956C54.9696 53.4829 55.0052 53.4616 55.0348 53.4333C55.0644 53.4049 55.0871 53.3703 55.1014 53.3318C55.1357 53.2881 55.1598 53.2373 55.1716 53.183C55.1835 53.1288 55.1829 53.0725 55.17 53.0185C55.1571 52.9645 55.1322 52.9141 55.0971 52.871C55.0621 52.828 55.0177 52.7934 54.9674 52.7698L53.919 52.1665C53.8031 52.1539 53.7452 52.1475 53.7065 52.1433L53.931 51.6986C53.9183 51.8146 53.914 51.8532 54.0257 51.9045L55.0722 52.5271C55.1272 52.554 55.1758 52.5923 55.2148 52.6396C55.2537 52.6869 55.282 52.742 55.2978 52.8012C55.3136 52.8604 55.3164 52.9223 55.3062 52.9827C55.2959 53.0431 55.273 53.1006 55.2386 53.1513C55.2177 53.2122 55.1833 53.2675 55.1381 53.3133C55.0929 53.3591 55.0381 53.3941 54.9775 53.4156C54.9169 53.4372 54.8522 53.4448 54.7882 53.4379C54.7242 53.431 54.6625 53.4097 54.6079 53.3757L53.5036 52.7468C53.5036 52.7468 53.3878 52.7341 53.3298 52.7278L53.5592 52.5964Z" fill="#FFE0D6"/>
<path d="M55.4932 52.7882C55.5059 52.6723 55.51 52.6336 55.4004 52.563L54.1585 51.7627C54.1585 51.7627 54.1584 51.7627 54.0425 51.75L54.0319 51.8466C54.0488 51.692 54.0553 51.6341 54.1881 51.4922L55.7337 51.661L55.8495 51.6737L54.8233 50.3299L54.8656 49.9435C54.8529 50.0594 54.8487 50.0981 54.8445 50.1367L56.1011 50.8018C56.2363 50.8166 56.2752 50.8209 56.3138 50.8251L56.0895 51.4457L56.1 51.3491C56.1148 51.2139 56.1169 51.1946 56.1211 51.1559L54.9395 50.5186L55.998 51.9245L54.4139 51.7515L54.2979 51.7388L54.3946 51.7493L55.527 52.4791C55.527 52.4791 55.5269 52.4791 55.6748 52.3779C55.6081 52.5302 55.5332 52.6786 55.4503 52.8226L55.4932 52.7882Z" fill="#FFE0D6"/>
<path fill-rule="evenodd" clip-rule="evenodd" d="M92.4412 68.3782C92.4412 68.3782 92.6883 72.022 87.7381 77.2486L90.5116 78.705C92.8483 76.2248 94.4731 73.1605 95.2147 69.8346L92.4412 68.3782Z" fill="url(#paint8_linear_36_516)"/>
<path fill-rule="evenodd" clip-rule="evenodd" d="M59.775 47.0585C59.775 47.0585 60.4499 54.4831 52.574 61.7948L53.1475 62.0921C57.4005 58.3997 60.1736 53.293 60.9546 47.7152L59.775 47.0585Z" fill="url(#paint9_linear_36_516)"/>
<path fill-rule="evenodd" clip-rule="evenodd" d="M50.6161 41.9524C50.6161 41.9524 50.3077 49.2501 42.8421 56.7434L41.9549 56.2751C46.1611 52.44 49.0146 47.3477 50.0899 41.7581L50.6161 41.9524Z" fill="url(#paint10_linear_36_516)"/>
<path opacity="0.35" fill-rule="evenodd" clip-rule="evenodd" d="M45.9005 39.3063L97.0696 67.8866C97.0257 70.5679 96.3491 73.201 95.0947 75.5712C93.8404 77.9415 92.044 79.9819 89.8517 81.5263L37.7785 53.8833C41.9606 50.0066 44.8044 44.9025 45.9005 39.3063V39.3063Z" fill="#771156"/>
<path fill-rule="evenodd" clip-rule="evenodd" d="M83.4667 11.0834V11.1C82.7484 11.1 82.1667 11.6834 82.1667 12.4C82.1667 13.1167 82.7484 13.7 83.4667 13.7H88.4484C89.1667 13.7 89.7501 13.1167 89.7501 12.3817C89.7501 11.6667 89.1667 11.0834 88.4484 11.0834H83.4667ZM96.5334 21.2334H83.4667C82.7484 21.2334 82.1667 20.65 82.1667 19.9334C82.1667 19.2167 82.7484 18.6317 83.4667 18.6317H96.5334C97.2501 18.6317 97.8334 19.2167 97.8334 19.9334C97.8334 20.65 97.2501 21.2334 96.5334 21.2334ZM96.5334 28.85H83.4667C82.9667 28.9167 82.4834 28.6667 82.2167 28.25C81.9501 27.8167 81.9501 27.2667 82.2167 26.85C82.4834 26.4167 82.9667 26.1834 83.4667 26.2334H96.5334C97.1984 26.3 97.7001 26.8667 97.7001 27.55C97.7001 28.215 97.1984 28.7834 96.5334 28.85Z" fill="#FCFCFC"/>
<defs>
<radialGradient id="paint0_radial_36_516" cx="0" cy="0" r="1" gradientUnits="userSpaceOnUse" gradientTransform="translate(33.0771 17.3061) rotate(25.6637) scale(13.546)">
<stop offset="0.01" stop-color="#515BFF"/>
<stop offset="0.03" stop-color="#515ADD"/>
<stop offset="1" stop-color="#4335BB"/>
</radialGradient>
<radialGradient id="paint1_radial_36_516" cx="0" cy="0" r="1" gradientUnits="userSpaceOnUse" gradientTransform="translate(47.907 30.0595) rotate(25.6635) scale(4.85872)">
<stop stop-color="#9D94C2"/>
<stop offset="0.98" stop-color="#8C74B1"/>
</radialGradient>
<linearGradient id="paint2_linear_36_516" x1="70.6289" y1="54.8843" x2="79.736" y2="35.9305" gradientUnits="userSpaceOnUse">
<stop stop-color="#6339AB"/>
<stop offset="1" stop-color="#547ED1"/>
</linearGradient>
<linearGradient id="paint3_linear_36_516" x1="54.3218" y1="40.0561" x2="59.0114" y2="28.9778" gradientUnits="userSpaceOnUse">
<stop stop-color="#FB6300"/>
<stop offset="1" stop-color="#FFBF00"/>
</linearGradient>
<radialGradient id="paint4_radial_36_516" cx="0" cy="0" r="1" gradientUnits="userSpaceOnUse" gradientTransform="translate(26.9819 34.9163) rotate(27.9289) scale(13.4998)">
<stop offset="0.01" stop-color="#515BFF"/>
<stop offset="0.03" stop-color="#515ADD"/>
<stop offset="1" stop-color="#4335BB"/>
</radialGradient>
<radialGradient id="paint5_radial_36_516" cx="0" cy="0" r="1" gradientUnits="userSpaceOnUse" gradientTransform="translate(41.0187 48.7641) rotate(27.9286) scale(4.86309)">
<stop stop-color="#9D94C2"/>
<stop offset="0.98" stop-color="#8C74B1"/>
</radialGradient>
<linearGradient id="paint6_linear_36_516" x1="64.4651" y1="70.5283" x2="72.3187" y2="55.7135" gradientUnits="userSpaceOnUse">
<stop stop-color="#433599"/>
<stop offset="1" stop-color="#515ABA"/>
</linearGradient>
<linearGradient id="paint7_linear_36_516" x1="34.4227" y1="49.8687" x2="36.91" y2="45.1768" gradientUnits="userSpaceOnUse">
<stop stop-color="#DD1D33"/>
<stop offset="1" stop-color="#FF4827"/>
</linearGradient>
<linearGradient id="paint8_linear_36_516" x1="89.357" y1="80.5536" x2="94.0582" y2="71.6853" gradientUnits="userSpaceOnUse">
<stop stop-color="#FB6300"/>
<stop offset="1" stop-color="#FFBF00"/>
</linearGradient>
<linearGradient id="paint9_linear_36_516" x1="53.2252" y1="64.5699" x2="60.9056" y2="50.0817" gradientUnits="userSpaceOnUse">
<stop stop-color="#FB6300"/>
<stop offset="1" stop-color="#FFBF00"/>
</linearGradient>
<linearGradient id="paint10_linear_36_516" x1="42.8958" y1="59.0942" x2="50.6947" y2="44.3825" gradientUnits="userSpaceOnUse">
<stop stop-color="#FB6300"/>
<stop offset="1" stop-color="#FFBF00"/>
</linearGradient>
</defs>
</svg>
