<svg width="318" height="261" viewBox="0 0 318 261" fill="none" xmlns="http://www.w3.org/2000/svg">
<path style="mix-blend-mode:screen" opacity="0.71" d="M183.29 223.526C257.443 205.819 308.105 151.889 296.448 103.07C284.79 54.251 215.228 29.0294 141.075 46.7361C66.9224 64.4428 16.26 118.373 27.9174 167.192C39.5747 216.011 109.138 241.232 183.29 223.526Z" fill="url(#paint0_radial_10_525)"/>
<path d="M199.782 120.941C199.782 120.941 220.782 87.7906 270.672 103.061C270.672 103.061 220.462 102.061 197.462 125.651C174.462 149.241 199.782 120.941 199.782 120.941Z" fill="#005B54"/>
<path d="M193.392 121.61C193.392 121.61 232.562 107.26 225.562 68.7405C225.562 68.7405 221.332 103.38 193.392 121.61Z" fill="#005B54"/>
<path d="M193.532 120.491C193.532 120.491 193.842 97.4906 188.722 93.2106C183.602 88.9306 193.532 120.491 193.532 120.491Z" fill="url(#paint1_linear_10_525)"/>
<g style="mix-blend-mode:multiply" opacity="0.24">
<path d="M193.532 120.49C193.559 115.452 193.289 110.417 192.722 105.411C192.532 111.281 191.552 112.001 189.412 102.411C187.272 92.8205 188.722 93.2405 188.722 93.2405C183.592 88.9705 193.532 120.49 193.532 120.49Z" fill="#006FB3"/>
</g>
<path d="M203.782 102.82C203.782 102.82 216.092 86.8205 225.472 84.4105C234.852 82.0005 203.782 102.82 203.782 102.82Z" fill="url(#paint2_linear_10_525)"/>
<g style="mix-blend-mode:multiply" opacity="0.24">
<path d="M225.452 84.4505C216.072 86.8205 203.782 102.821 203.782 102.821C203.782 102.821 209.782 98.8205 215.782 94.4805C206.282 100.121 209.592 97.0505 217.862 90.1905C225.602 83.7605 226.862 85.0205 227.002 85.1905C227.542 84.3705 227.202 84.0105 225.452 84.4505Z" fill="#006FB3"/>
</g>
<path d="M212.472 78.9506C212.472 78.9506 209.472 73.6406 209.942 68.7406C210.412 63.8406 215.822 60.4206 216.852 65.5706C216.852 65.5706 220.062 58.0606 222.722 60.0806C225.382 62.1006 221.202 67.9306 217.362 71.7806C217.362 71.7806 221.202 68.9506 222.822 70.6606C224.442 72.3706 216.852 80.5206 212.472 78.9506Z" fill="url(#paint3_linear_10_525)"/>
<path style="mix-blend-mode:multiply" opacity="0.3" d="M216.852 65.5706C215.852 60.4206 210.462 63.8406 209.942 68.7406C209.422 73.6406 212.472 78.9506 212.472 78.9506C214.572 79.7006 217.412 78.2106 219.622 76.2706C217.342 77.8606 214.852 79.0006 213.772 77.3406C211.572 73.9506 212.362 63.5206 214.772 63.9006C217.182 64.2806 216.842 68.6706 216.842 68.6706C221.842 58.0306 223.332 61.0406 223.492 61.4506C223.457 61.1814 223.369 60.9219 223.233 60.6868C223.098 60.4517 222.917 60.2457 222.702 60.0806C220.062 58.0606 216.852 65.5706 216.852 65.5706Z" fill="url(#paint4_linear_10_525)"/>
<path d="M212.982 77.0007C212.982 77.0007 200.982 128.671 168.912 131.001L167.992 133.901C207.322 128.421 212.992 76.9807 212.992 76.9807L212.982 77.0007Z" fill="#005B54"/>
<path d="M197.312 113.431C197.312 113.431 196.362 100.911 199.192 97.8506C202.022 94.7906 197.312 113.431 197.312 113.431Z" fill="url(#paint5_linear_10_525)"/>
<g style="mix-blend-mode:multiply" opacity="0.24">
<path d="M199.192 97.8206C196.362 100.881 197.312 113.401 197.312 113.401C197.312 113.401 197.972 110.781 198.652 107.671C198.102 108.301 197.722 108.071 197.812 105.931C198.082 99.3806 199.882 97.5806 199.882 97.5806C199.782 97.4506 199.512 97.5006 199.192 97.8206Z" fill="#006FB3"/>
</g>
<path d="M194.002 89.6707C194.002 89.6707 190.922 121.471 211.192 130.671C231.462 139.871 211.242 128.811 211.242 128.811C211.242 128.811 195.342 126.041 194.002 89.6707Z" fill="#005B54"/>
<path d="M194.172 90.8205C194.172 90.8205 188.582 85.1705 188.612 79.6905C188.642 74.2105 191.542 79.7705 191.542 79.7705C191.542 79.7705 192.882 71.9705 196.792 72.2205C200.702 72.4705 197.972 79.4305 197.972 79.4305C197.972 79.4305 202.712 75.1305 201.352 81.6805C200.906 83.6404 200.031 85.4769 198.789 87.0575C197.548 88.638 195.971 89.9233 194.172 90.8205Z" fill="url(#paint6_linear_10_525)"/>
<path style="mix-blend-mode:multiply" opacity="0.3" d="M191.542 79.7407C191.542 79.7407 188.632 74.1707 188.612 79.6607C188.592 85.1507 194.172 90.7907 194.172 90.7907C196.929 89.3891 199.144 87.114 200.472 84.3207C198.392 87.1807 195.642 90.1007 193.792 88.6907C190.472 86.1607 188.322 77.4707 189.712 77.6407C191.102 77.8107 192.542 85.2607 192.542 85.2607L193.082 78.7007C193.592 72.3507 197.512 72.4507 197.762 72.4707C197.456 72.2978 197.113 72.2017 196.762 72.1907C192.882 71.9407 191.542 79.7407 191.542 79.7407Z" fill="url(#paint7_linear_10_525)"/>
<path d="M25.422 201.421C25.422 201.421 6.62197 194.061 0.721967 200.741C-5.17803 207.421 27.022 202.801 27.022 202.801C27.022 202.801 13.1119 212.921 13.4419 222.141C13.7719 231.361 29.552 203.571 29.552 203.571C33.0185 201.465 36.6544 199.652 40.422 198.151C46.422 195.811 47.802 191.501 47.802 191.501L29.052 200.501C29.052 200.501 20.982 186.171 11.532 186.561C2.08196 186.951 25.422 201.421 25.422 201.421Z" fill="#005B54"/>
<path d="M11.902 175.471C13.1669 174.847 14.5522 174.506 15.962 174.471C13.442 172.571 10.962 170.621 8.66197 168.471C5.75197 165.791 2.60195 162.181 2.20195 158.051C2.08122 157.33 2.15996 156.591 2.42967 155.912C2.69938 155.233 3.14979 154.641 3.73198 154.201C5.32198 153.201 7.46198 153.951 9.11198 154.471C9.83382 154.711 10.5416 154.991 11.232 155.311C9.89198 153.931 8.60196 152.511 7.40196 151.021C5.94718 149.212 4.59185 147.326 3.34196 145.371C2.24196 143.661 0.861991 141.711 1.18199 139.561C1.34589 138.719 1.76482 137.947 2.382 137.352C2.99919 136.756 3.78469 136.364 4.63194 136.23C6.63194 135.86 8.56198 136.761 10.232 137.811C11.6631 138.753 12.9671 139.876 14.112 141.151C13.482 137.601 12.982 134.031 12.662 130.441C12.402 127.561 12.182 124.651 12.182 121.761C12.182 119.711 13.082 117.9 15.332 117.67C20.522 117.16 20.9519 124.291 20.9419 127.841C20.9419 133.471 19.272 138.961 17.662 144.301C17.762 144.811 17.872 145.301 17.982 145.811C18.7081 144.166 19.6754 142.639 20.852 141.281C21.852 140.131 23.572 138.541 25.052 140.011C26.052 141.011 26.052 143.15 25.972 144.48C25.7097 147.121 24.9532 149.689 23.742 152.051C24 151.985 24.2709 151.991 24.526 152.066C24.7812 152.142 25.0112 152.285 25.1919 152.48C27.6019 155.54 28.0219 159.351 27.7019 163.131C27.7019 163.591 27.602 164.051 27.542 164.511C28.138 164.533 28.7234 164.676 29.263 164.93C29.8025 165.184 30.2852 165.545 30.682 165.991C33.512 168.821 34.0519 172.53 34.5119 176.29C35.3419 173.44 36.942 171.54 40.022 173.54C42.0009 174.916 43.5709 176.802 44.5656 178.997C45.5603 181.192 45.9426 183.616 45.672 186.011C45.3081 188.59 44.1023 190.977 42.242 192.8C40.472 194.62 37.9919 197.14 35.3219 197.29C34.1373 197.284 32.985 196.904 32.0296 196.203C31.0742 195.503 30.3645 194.518 30.0019 193.391C29.8457 192.921 29.7451 192.434 29.7019 191.941C29.0382 192.421 28.3358 192.846 27.602 193.211C25.372 194.281 22.282 195.101 20.032 193.631C19.0894 192.941 18.4427 191.921 18.2219 190.774C18.0011 189.628 18.2227 188.44 18.842 187.451C19.0511 187.091 19.2993 186.756 19.582 186.451C18.772 186.341 17.962 186.181 17.152 185.991C14.412 185.321 11.152 184.181 9.78197 181.461C9.51919 180.93 9.36559 180.351 9.33025 179.76C9.2949 179.168 9.37849 178.576 9.57616 178.018C9.77382 177.459 10.0815 176.946 10.481 176.508C10.8805 176.071 11.3637 175.718 11.902 175.471Z" fill="url(#paint8_linear_10_525)"/>
<g style="mix-blend-mode:multiply" opacity="0.3">
<path d="M25.0519 140.021C26.0519 141.021 26.0519 143.161 25.9719 144.491C25.7096 147.131 24.9532 149.699 23.7419 152.061C24 151.995 24.2708 152.001 24.526 152.076C24.7812 152.152 25.0112 152.295 25.1919 152.491C27.6019 155.551 28.0219 159.361 27.7019 163.141C27.7019 163.601 27.6019 164.061 27.5419 164.521C28.138 164.543 28.7234 164.686 29.2629 164.94C29.8025 165.195 30.2852 165.555 30.6819 166.001C33.5119 168.831 34.0519 172.541 34.5119 176.301C35.3419 173.451 36.9419 171.551 40.0219 173.551C42.0009 174.926 43.5709 176.812 44.5656 179.007C45.5602 181.202 45.9425 183.626 45.6719 186.021C45.3081 188.6 44.1023 190.987 42.2419 192.811C40.4719 194.631 37.9919 197.151 35.3219 197.301C34.1373 197.294 32.985 196.914 32.0295 196.213C31.0741 195.513 30.3644 194.528 30.0019 193.401C29.8457 192.931 29.745 192.444 29.7019 191.951C29.0382 192.431 28.3358 192.856 27.6019 193.221C25.3719 194.291 22.2819 195.111 20.0319 193.641C19.4784 193.274 19.0248 192.776 18.7119 192.191C20.0119 194.741 35.0519 193.641 32.0219 178.991C28.9919 164.341 25.7819 168.881 25.7819 168.881C28.4219 143.811 20.5119 155.421 20.5119 155.421C28.3719 139.941 24.4119 139.421 23.6719 139.421C23.932 139.412 24.1906 139.462 24.4293 139.566C24.6679 139.669 24.8806 139.825 25.0519 140.021Z" fill="#006FB3"/>
</g>
<g style="mix-blend-mode:multiply" opacity="0.24">
<path d="M15.782 156.661C15.782 156.661 3.23199 152.721 4.31199 159.941C5.39199 167.161 21.492 175.301 21.492 175.301C21.492 175.301 12.2819 175.301 12.3819 179.301C12.4819 183.301 26.5119 185.231 26.5119 185.231C21.5119 185.811 17.442 189.601 18.662 192.171C18.2981 191.436 18.1206 190.623 18.145 189.803C18.1694 188.983 18.3951 188.182 18.802 187.471C19.0112 187.111 19.2593 186.776 19.542 186.471C18.732 186.361 17.922 186.201 17.112 186.011C14.372 185.341 11.112 184.201 9.74199 181.481C9.47761 180.949 9.32272 180.37 9.28654 179.777C9.25036 179.185 9.3336 178.591 9.53135 178.032C9.7291 177.472 10.0373 176.958 10.4377 176.519C10.838 176.081 11.3224 175.728 11.862 175.481C13.127 174.857 14.5122 174.516 15.922 174.481C13.402 172.581 10.922 170.631 8.62199 168.481C5.71199 165.801 2.55197 162.191 2.16197 158.061C2.04124 157.34 2.11998 156.601 2.38969 155.922C2.6594 155.243 3.10975 154.651 3.69194 154.211C5.28194 153.211 7.42194 153.961 9.07194 154.481C9.79378 154.721 10.5016 155.001 11.1919 155.321C9.85194 153.941 8.56198 152.521 7.36198 151.031C5.9072 149.222 4.55187 147.336 3.30198 145.381C2.20198 143.671 0.82195 141.721 1.14195 139.571C1.24517 139.004 1.47151 138.466 1.80497 137.996C2.13844 137.526 2.57091 137.135 3.07194 136.851C2.83081 137.239 2.66778 137.67 2.59196 138.121C1.68196 143.221 15.782 156.661 15.782 156.661Z" fill="#006FB3"/>
</g>
<g style="mix-blend-mode:multiply" opacity="0.3">
<path d="M17.182 125.611C17.182 125.611 11.112 171.731 39.872 189.891C68.632 208.051 39.952 193.351 39.952 193.351C39.952 193.351 10.502 178.331 17.182 125.611Z" fill="#006FB3"/>
</g>
<path style="mix-blend-mode:screen" d="M18.212 153.821C16.332 153.701 16.852 148.951 17.302 146.231C17.4885 145.618 17.6092 144.988 17.662 144.351C17.762 144.861 17.872 145.351 17.982 145.861C18.7082 144.216 19.6755 142.689 20.852 141.331C21.852 140.181 23.572 138.591 25.052 140.061C26.052 141.011 26.052 142.921 25.972 144.251C25.6209 144.74 25.1998 145.174 24.722 145.541C24.722 145.541 20.852 153.931 18.212 153.821Z" fill="url(#paint9_linear_10_525)"/>
<path style="mix-blend-mode:screen" d="M2.6318 138.121C2.70762 137.67 2.87072 137.239 3.11184 136.851C3.57862 136.559 4.09316 136.353 4.6318 136.241C6.6318 135.871 8.56184 136.771 10.2318 137.821C11.6629 138.763 12.9669 139.886 14.1118 141.161C13.4818 137.611 12.9818 134.041 12.6618 130.441C12.4018 127.571 12.1819 124.661 12.1819 121.771C12.1819 119.711 13.0818 117.911 15.3318 117.681C20.5218 117.171 20.9518 124.301 20.9418 127.851C20.9418 133.481 19.2718 138.971 17.6618 144.311C17.6618 144.311 17.4818 145.091 17.3018 146.191C16.6818 148.281 14.9718 151.09 10.3018 148.79C9.14933 148.227 8.02769 147.603 6.9418 146.92C4.3218 143.58 2.2518 140.171 2.6318 138.121Z" fill="url(#paint10_linear_10_525)"/>
<path style="mix-blend-mode:screen" opacity="0.42" d="M157.312 131.171C157.312 131.171 169.742 125.291 161.542 112.491C153.342 99.6906 114.222 107.021 112.402 94.0306C110.582 81.0406 132.562 73.3406 163.152 68.0306C193.742 62.7206 217.342 53.8206 208.782 46.4106C200.222 39.0006 153.782 49.0406 143.192 53.3506C132.602 57.6606 145.932 55.3506 145.932 55.3506C145.932 55.3506 113.992 68.4806 102.542 62.3506C91.0919 56.2206 116.542 48.3506 134.022 45.9306C151.502 43.5106 185.362 33.2306 183.952 27.3006C182.542 21.3706 171.782 15.2206 160.782 21.6606C149.782 28.1006 135.612 30.8006 133.082 25.5906C130.552 20.3806 137.962 16.3706 150.342 15.6506C162.722 14.9306 170.492 0.330601 161.112 0.110601C161.112 0.110601 168.802 -1.02941 171.212 4.01059C173.622 9.05059 158.152 17.0106 147.692 17.6806C137.232 18.3506 140.352 25.3906 164.992 17.4106C189.632 9.43059 202.572 10.5306 206.542 13.5206C210.512 16.5106 205.922 27.0906 189.952 33.0006C173.982 38.9106 186.182 37.4206 206.952 32.8906C227.722 28.3606 248.472 34.4606 245.692 40.9906C242.912 47.5206 211.162 63.6606 216.042 74.9906C211.991 72.4459 207.405 70.8734 202.645 70.3963C197.884 69.9192 193.078 70.5505 188.602 72.2406C173.332 78.0606 165.072 86.9106 170.852 90.9006C176.632 94.8906 198.942 74.6306 209.072 84.2106C209.072 84.2106 200.272 80.6906 196.272 87.6806C192.272 94.6706 190.682 96.1406 180.012 96.9306C169.342 97.7206 168.712 106.821 181.632 105.821C194.552 104.821 199.342 107.211 194.082 110.481C188.822 113.751 170.192 118.031 173.432 128.571C176.672 139.111 152.872 149.821 152.872 149.821C152.872 149.821 135.022 156.721 144.272 145.961C153.522 135.201 157.312 131.171 157.312 131.171Z" fill="url(#paint11_linear_10_525)"/>
<path d="M29.5221 207.531L9.52211 244.761C9.52211 244.761 9.17214 252.671 18.1121 250.761C27.0521 248.851 134.022 221.071 134.022 221.071C134.022 221.071 148.302 237.181 176.682 212.731C176.682 212.731 294.252 191.531 303.472 187.091C312.692 182.651 310.732 179.091 310.732 179.091L268.672 140.601L29.5221 207.531Z" fill="url(#paint12_linear_10_525)"/>
<path d="M18.1521 250.76C27.0921 248.85 134.062 221.07 134.062 221.07C134.062 221.07 148.342 237.18 176.722 212.73C176.722 212.73 294.292 191.531 303.512 187.091C312.732 182.651 310.772 179.091 310.772 179.091C289.922 186.261 171.782 202.82 171.782 202.82L168.932 197.651L171.932 175.99L131.782 197.581L133.782 206.031L134.092 213.281L9.56215 244.76C9.56215 244.76 9.21212 252.671 18.1521 250.76Z" fill="url(#paint13_linear_10_525)"/>
<path style="mix-blend-mode:multiply" opacity="0.56" d="M28.842 214.251L20.562 236.141L133.952 209.061L134.132 213.281C134.132 213.281 141.332 221.111 155.932 217.701C170.532 214.291 171.782 202.821 171.782 202.821L170.132 199.821L298.032 180.821L272.802 151.821L28.842 214.251Z" fill="url(#paint14_linear_10_525)"/>
<path style="mix-blend-mode:multiply" opacity="0.56" d="M240.552 186.491C240.552 186.491 195.942 183.101 168.952 197.651C168.952 197.651 155.572 218.071 132.472 206.361C109.372 194.651 137.472 188.361 137.472 188.361C137.472 188.361 174.572 182.191 176.112 181.301C177.652 180.411 207.432 178.561 207.432 178.561L240.552 186.491Z" fill="url(#paint15_linear_10_525)"/>
<path d="M39.3919 189.821L22.2219 214.881L27.7919 215.231L25.7919 220.961L30.7919 220.331L28.0019 222.671L29.4119 230.941L133.782 206.031C133.782 206.031 155.522 188.431 168.912 197.651C168.912 197.651 181.692 183.751 204.472 184.571C227.252 185.391 262.252 194.261 288.042 174.901L283.252 171.241L285.092 169.571L282.482 164.711L284.042 161.881C284.042 161.881 276.712 153.681 273.912 146.181C271.112 138.681 175.672 138.891 174.572 138.931C173.472 138.971 96.0419 163.931 86.0019 168.801C75.9619 173.671 39.3919 189.821 39.3919 189.821Z" fill="url(#paint16_linear_10_525)"/>
<g style="mix-blend-mode:multiply" opacity="0.28">
<path d="M283.292 171.24L285.132 169.57L282.522 164.711L284.082 161.88C246.992 179.69 227.082 168.201 203.192 167.661C179.482 167.121 161.842 185.89 161.512 186.24C166.079 177.785 173.499 171.225 182.452 167.73C203.042 159.79 214.852 160.45 230.022 163.54C243.192 166.22 260.302 175.801 278.162 154.101C276.477 151.62 275.066 148.965 273.952 146.18C271.952 140.78 221.742 139.381 193.482 139.031L156.272 144.68C132.432 152.37 93.0119 165.43 86.0419 168.8C76.0419 173.66 39.3919 189.8 39.3919 189.8L25.8319 209.591C33.0219 205.241 48.1519 196.881 61.3619 194.711C79.4319 191.711 108.842 175.291 128.302 176.711C144.712 177.891 149.762 178.711 154.152 190.711C150.282 183.771 142.782 177.34 120.092 182.61C97.4019 187.88 22.2219 214.891 22.2219 214.891L27.7919 215.24L25.7919 220.971L30.7919 220.341L28.0019 222.68L29.4119 230.951L133.782 206.031C133.782 206.031 144.572 197.31 155.632 195.37C156.262 195.25 156.892 195.161 157.532 195.101C161.509 194.546 165.552 195.452 168.912 197.651C168.912 197.651 181.692 183.75 204.472 184.57C227.252 185.39 262.252 194.261 288.042 174.901L283.292 171.24Z" fill="#DD402E"/>
</g>
<path style="mix-blend-mode:multiply" opacity="0.28" d="M283.292 171.24L285.132 169.57L282.522 164.711L284.082 161.88C246.992 179.69 227.082 168.201 203.192 167.661C179.482 167.121 161.842 185.89 161.512 186.24C166.079 177.785 173.499 171.225 182.452 167.73C203.042 159.79 214.852 160.45 230.022 163.54C243.192 166.22 260.302 175.801 278.162 154.101C276.477 151.62 275.066 148.965 273.952 146.18C271.952 140.78 221.742 139.381 193.482 139.031L156.272 144.68C132.432 152.37 93.0119 165.43 86.0419 168.8C76.0419 173.66 39.3919 189.8 39.3919 189.8L25.8319 209.591C33.0219 205.241 48.1519 196.881 61.3619 194.711C79.4319 191.711 108.842 175.291 128.302 176.711C144.712 177.891 149.762 178.711 154.152 190.711C150.282 183.771 142.782 177.34 120.092 182.61C97.4019 187.88 22.2219 214.891 22.2219 214.891L27.7919 215.24L25.7919 220.971L30.7919 220.341L28.0019 222.68L29.4119 230.951L133.782 206.031C133.782 206.031 144.572 197.31 155.632 195.37C156.262 195.25 156.892 195.161 157.532 195.101C161.509 194.546 165.552 195.452 168.912 197.651C168.912 197.651 181.692 183.75 204.472 184.57C227.252 185.39 262.252 194.261 288.042 174.901L283.292 171.24Z" fill="url(#paint17_linear_10_525)"/>
<path style="mix-blend-mode:multiply" opacity="0.28" d="M204.172 167.69C204.172 167.69 186.242 168.88 186.172 164.56C186.102 160.24 209.282 153.26 233.252 159.56C246.342 163.02 244.942 151.56 240.992 140.56C212.332 138.83 175.342 138.92 174.662 138.94C173.662 138.94 117.402 157.1 94.5321 165.47C89.6321 170.47 80.1721 182.23 80.1721 182.23C80.1721 182.23 108.082 169.23 127.082 173.04C146.082 176.85 125.222 181.6 125.222 181.6L152.022 196.26C155.149 195.244 158.443 194.847 161.722 195.09L193.102 182.09L204.172 167.69Z" fill="url(#paint18_linear_10_525)"/>
<path d="M53.5619 155.091C53.5619 155.091 49.4918 173.171 40.8818 179.251C32.2718 185.331 20.4119 207.251 20.4119 207.251C20.4119 207.251 42.0919 192.681 60.1619 189.701C78.2319 186.721 101.882 166.321 121.332 167.701C140.782 169.081 150.782 174.421 155.332 193.461C155.332 193.461 161.792 167.091 182.332 159.161C202.872 151.231 213.632 155.381 228.792 158.471C243.952 161.561 264.322 173.801 285.052 136.981L250.352 125.141L53.5619 155.091Z" fill="url(#paint19_linear_10_525)"/>
<path style="mix-blend-mode:multiply" opacity="0.28" d="M121.332 167.76C140.782 169.15 150.782 174.48 155.332 193.52C155.332 193.52 161.792 167.15 182.332 159.22C187.533 157.14 192.976 155.725 198.532 155.01C186.422 155.4 165.052 155.01 189.052 145.31C220.992 132.42 142.452 135.02 109.752 153.42C109.752 153.42 148.552 157.75 110.522 168.88C114.043 167.938 117.692 167.56 121.332 167.76Z" fill="url(#paint20_linear_10_525)"/>
<g style="mix-blend-mode:multiply" opacity="0.28">
<path d="M190.852 153.671C219.232 148.911 240.732 153.601 254.362 151.671C264.532 150.251 273.962 142.671 277.462 134.431L250.382 125.191L168.582 137.621C167.066 140.019 165.729 142.526 164.582 145.121C165.28 142.817 165.716 140.442 165.882 138.041L57.282 154.531C61.702 161.011 74.202 165.281 84.232 164.631C115.982 162.631 149.872 151.411 156.472 189.861C157.022 188.271 157.792 186.261 158.812 184.011C161.852 172.401 171.552 156.911 190.852 153.671Z" fill="#DD402E"/>
</g>
<path d="M28.1521 125.931C28.1521 125.931 50.0921 157.261 82.7821 155.161C115.472 153.061 150.682 145.991 155.782 188.381C155.782 188.381 159.432 150.271 187.782 145.511C216.132 140.751 239.512 148.591 253.142 146.681C266.772 144.771 279.142 131.761 277.552 121.061C277.552 121.061 260.232 127.201 242.272 112.371C242.272 112.371 228.912 118.251 214.932 115.881C200.952 113.511 176.622 110.551 163.352 140.111C163.352 140.111 170.012 120.231 154.122 111.281C138.232 102.331 109.782 108.121 100.532 98.9207C100.532 98.9207 70.1321 130.331 28.1521 125.931Z" fill="url(#paint21_linear_10_525)"/>
<g style="mix-blend-mode:multiply" opacity="0.28">
<path d="M155.672 195.371C156.302 195.251 156.932 195.161 157.572 195.101C161.549 194.546 165.592 195.452 168.952 197.651C168.952 197.651 181.732 183.751 204.512 184.571C227.292 185.391 262.292 194.261 288.082 174.901C266.912 189.771 237.082 187.491 216.522 183.851C195.962 180.211 180.752 187.451 180.752 187.451C202.932 176.141 236.422 184.141 236.422 184.141C255.312 188.041 271.662 180.911 271.662 180.911C251.662 187.211 248.452 183.401 220.912 180.531C193.372 177.661 179.102 187.531 179.102 187.531C188.242 180.421 204.202 175.181 236.532 180.731C268.862 186.281 283.292 171.221 283.292 171.221C271.102 181.381 252.292 181.281 242.452 180.371C240.772 180.251 239.052 180.041 237.282 179.741C236.412 179.601 235.932 179.501 235.932 179.501L237.282 179.741C238.402 179.911 240.192 180.161 242.452 180.371C267.532 182.171 282.522 164.691 282.522 164.691C259.522 184.821 233.522 177.791 210.222 175.361C186.922 172.931 162.572 191.821 162.572 191.821C184.992 170.071 208.572 170.621 232.292 175.171C256.012 179.721 284.082 161.911 284.082 161.911C250.082 179.431 233.512 173.261 206.082 170.351C178.652 167.441 155.292 193.551 155.292 193.551C145.162 176.551 45.212 207.551 25.562 213.841C44.032 208.181 94.862 196.601 94.862 196.601C82.372 199.521 69.192 203.081 57.862 206.301C72.6446 202.281 87.6416 199.096 102.782 196.761C109.286 195.522 115.882 194.833 122.502 194.701C115.896 195.024 109.312 195.712 102.782 196.761C76.542 201.431 47.542 212.451 47.542 212.451C131.542 187.671 140.822 197.961 140.822 197.961C140.822 197.961 133.932 196.551 102.942 200.961C71.952 205.371 30.782 220.351 30.782 220.351C77.332 204.581 111.162 204.061 111.162 204.061C76.162 207.771 27.992 222.691 27.992 222.691C49.132 216.811 107.582 206.961 107.582 206.961C79.012 212.601 47.522 222.201 36.132 225.801C77.902 212.701 127.622 205.231 127.622 205.231L29.402 230.961L133.782 206.031C133.782 206.031 144.612 197.311 155.672 195.371Z" fill="#DD402E"/>
</g>
<g style="mix-blend-mode:multiply" opacity="0.4">
<g style="mix-blend-mode:multiply" opacity="0.4">
<path d="M115.982 151.401C110.162 153.75 104.591 156.674 99.3519 160.131C99.6073 159.815 99.838 159.481 100.042 159.131C100.772 157.781 100.562 156.921 98.8419 157.361C96.9851 157.883 95.211 158.664 93.5718 159.681C94.3618 158.441 95.0418 157.091 93.5718 157.051C91.2918 156.991 88.6418 158.311 86.1418 159.951C86.4818 159.511 86.8118 159.061 87.1418 158.601C87.4718 158.141 86.3918 158.441 86.1418 158.601C85.5918 158.841 85.0518 159.041 84.5018 159.271C85.2678 158.831 85.994 158.326 86.6719 157.761C87.3419 157.191 86.0019 157.501 85.7419 157.611C84.4465 158.15 83.2397 158.882 82.1619 159.781C81.1619 160.231 80.1619 160.591 79.1619 160.971C77.5019 161.611 75.8219 162.311 74.1619 163.041C76.5819 160.761 78.8118 158.391 81.0118 156.041C81.5518 155.471 79.7819 156.041 79.5519 156.231L73.1119 160.231C74.2519 159.121 75.2818 157.901 74.6318 157.621C73.9818 157.341 72.3519 158.011 71.0619 158.691C71.6419 158.221 72.2219 157.691 72.7819 157.261C73.5819 156.581 71.7219 157.161 71.4319 157.331C66.7224 160.13 61.7566 162.474 56.6019 164.331C55.5119 164.721 55.3418 165.401 56.4518 165.001C60.6485 163.498 64.7294 161.69 68.6619 159.591C67.6619 160.441 66.5319 161.261 65.4319 162.061C64.5019 162.691 63.5819 163.341 62.6719 164.061L62.5018 164.191C61.7718 164.741 63.4419 164.401 63.8519 164.121C64.8519 163.431 65.8519 162.721 66.8519 162.001C67.6419 161.471 68.4519 161.001 69.2719 160.461C70.1682 159.848 71.1073 159.3 72.0819 158.821C72.8519 158.531 73.0819 158.561 72.5819 159.181C72.2719 159.561 71.8319 159.991 71.4719 160.371C70.7019 161.171 69.8819 161.961 69.0319 162.741L61.3519 167.561C60.5119 168.091 58.9619 168.941 58.5319 169.761C58.2319 170.341 58.5319 170.581 59.1719 170.511C60.9019 170.331 63.3319 168.361 64.9019 167.211C66.8255 165.794 68.6715 164.275 70.4319 162.661L77.5219 158.211C75.6619 160.211 73.7619 162.131 71.6819 164.011L71.5519 164.131C69.7619 164.961 67.9318 165.841 66.1918 166.851C65.1918 167.411 63.5419 168.501 63.6219 169.311C63.7019 170.121 65.4618 169.551 66.4518 169.041C68.2387 167.986 69.9139 166.753 71.4518 165.361C71.8718 165.001 72.2619 164.631 72.6719 164.271C74.8419 163.271 77.0119 162.361 79.1719 161.521L80.9619 160.841C80.6919 161.221 81.8819 160.841 82.0419 160.841C83.0419 160.471 83.9718 160.061 84.9418 159.671C84.1666 160.732 83.3143 161.734 82.3918 162.671C81.8618 163.231 83.6919 162.671 84.0219 162.371C85.2119 161.451 86.4118 160.501 87.7018 159.691C88.9918 158.881 92.0019 157.241 92.4919 158.191C92.8719 158.941 91.8419 160.381 90.5919 161.681C89.7203 162.355 88.8889 163.079 88.1019 163.851C87.4219 164.521 89.1019 164.051 89.4619 163.771L89.6119 163.661C90.4903 163.017 91.3131 162.301 92.0718 161.521C93.6944 160.256 95.4849 159.223 97.3918 158.451C98.2919 158.101 98.7118 158.061 98.5718 158.791C98.3767 159.452 98.0349 160.06 97.5718 160.571C96.4274 161.861 95.1503 163.027 93.7618 164.051C93.0418 164.611 94.7619 164.231 95.2719 163.861C101.102 159.446 107.437 155.74 114.142 152.821L113.602 153.291C112.912 153.881 114.602 153.531 115.112 153.101L116.912 151.561C117.592 150.961 116.232 151.291 115.982 151.401ZM62.5319 168.001C61.8525 168.529 61.1375 169.01 60.3918 169.441C59.7618 169.261 62.9518 167.351 63.1318 167.231L65.5819 165.701C64.5919 166.491 63.5819 167.261 62.5319 168.001ZM67.6418 167.381C67.2437 167.728 66.8154 168.039 66.3619 168.311L65.6418 168.181C65.883 167.902 66.1624 167.66 66.4719 167.461C67.3371 166.892 68.2429 166.387 69.1819 165.951L69.8119 165.631C69.1119 166.231 68.3918 166.821 67.6418 167.381Z" fill="#A9402E"/>
</g>
<g style="mix-blend-mode:multiply" opacity="0.4">
<path d="M85.1718 170.941C82.3518 172.241 79.4118 173.641 76.6018 175.261L77.1718 174.721C78.3418 173.611 79.4918 172.311 80.7218 171.071C82.185 170.262 83.4814 169.183 84.5418 167.891C84.9118 167.391 83.2919 167.991 83.0619 168.141C81.7678 168.987 80.5706 169.973 79.4919 171.081C78.8819 171.441 78.2518 171.771 77.6318 172.081C75.3618 173.241 73.0718 174.281 70.7918 175.191C69.7918 175.581 68.6318 175.961 67.3918 176.421C67.5918 176.241 67.8018 176.081 68.0018 175.911C69.2918 174.781 71.0818 173.381 71.1718 172.191C71.1718 171.791 69.8119 172.381 69.4919 172.621C69.1719 172.861 68.9519 173.001 68.6819 173.191C69.5502 172.156 70.2921 171.021 70.8918 169.811C71.0118 169.551 70.1418 169.811 70.0318 169.811C67.847 170.548 65.7375 171.493 63.7318 172.631C62.3918 173.381 58.9518 175.271 58.7318 176.501C58.6718 176.881 60.5118 176.241 60.5718 175.881C60.7118 174.881 63.8118 173.191 64.9118 172.571C66.1716 171.862 67.4818 171.247 68.8318 170.731C67.9532 172.374 66.8304 173.874 65.5018 175.181C65.0318 175.651 66.8218 175.021 66.9818 174.931C67.6118 174.591 68.2218 174.221 68.8218 173.831C67.8605 174.941 66.7845 175.946 65.6118 176.831L64.9919 177.341C63.3838 177.97 61.9939 179.054 60.9919 180.461C60.6619 181.001 62.3419 180.321 62.6219 180.111C63.8019 179.241 64.9419 178.341 66.0619 177.431C66.9919 177.031 67.9618 176.701 68.8518 176.431C70.8518 175.691 72.8518 174.861 74.8518 173.941C75.8518 173.501 76.9318 173.011 78.0718 172.451C77.5518 172.991 77.0718 173.531 76.5018 174.061C75.1318 175.411 73.7018 176.731 72.2318 178.061C70.8779 179.045 69.6009 180.132 68.4118 181.311C68.0118 181.711 69.7218 181.221 70.0418 180.961C71.3285 179.907 72.5885 178.837 73.8218 177.751C76.5041 175.868 79.3448 174.222 82.3119 172.831C81.738 173.33 81.2275 173.897 80.7918 174.521C80.4818 174.971 82.2418 174.521 82.5318 174.071C83.3899 172.804 84.552 171.772 85.9118 171.071C87.2118 170.471 85.7018 170.691 85.1718 170.941Z" fill="#A9402E"/>
</g>
<g style="mix-blend-mode:multiply" opacity="0.4">
<path d="M84.3719 174.301C84.1916 174.303 84.0127 174.333 83.8418 174.391C83.5978 174.451 83.3601 174.535 83.1318 174.641L82.9319 174.741C82.8391 174.791 82.752 174.852 82.6719 174.921C82.537 175.104 82.39 175.277 82.2319 175.441L80.5018 176.821C80.4218 176.881 80.3019 176.971 80.3719 177.021C80.473 177.051 80.5808 177.051 80.6819 177.021C80.8669 176.996 81.0483 176.949 81.2218 176.881C81.4536 176.809 81.6779 176.715 81.8918 176.601L82.0318 176.511C82.956 175.987 83.7681 175.287 84.4219 174.451C84.4919 174.341 84.4619 174.311 84.3719 174.301Z" fill="#A9402E"/>
</g>
<g style="mix-blend-mode:multiply" opacity="0.4">
<path d="M102.042 166.881C101.575 166.899 101.124 167.052 100.742 167.321C98.7419 168.711 96.7418 168.761 94.9518 169.081C92.7216 169.484 90.5708 170.244 88.5818 171.331C88.2618 171.501 87.9218 171.801 88.1418 171.931C88.3618 172.061 89.0119 171.831 89.3719 171.631C90.3892 171.077 91.4617 170.631 92.5718 170.301C93.6316 170.034 94.7071 169.833 95.7919 169.701C97.9871 169.406 100.087 168.616 101.932 167.391C102.292 167.131 102.342 166.921 102.042 166.881Z" fill="#A9402E"/>
</g>
</g>
<path d="M28.1521 125.931C28.1521 125.931 50.0921 157.261 82.7821 155.161C115.472 153.061 150.682 145.991 155.782 188.381C155.782 188.381 159.432 150.271 187.782 145.511C216.132 140.751 239.512 148.591 253.142 146.681C266.772 144.771 279.142 131.761 277.552 121.061C277.552 121.061 260.232 127.201 242.272 112.371C242.272 112.371 228.912 118.251 214.932 115.881C200.952 113.511 176.622 110.551 163.352 140.111C163.352 140.111 170.012 120.231 154.122 111.281C138.232 102.331 109.782 108.121 100.532 98.9207C100.532 98.9207 70.1321 130.331 28.1521 125.931Z" fill="url(#paint22_linear_10_525)"/>
<path style="mix-blend-mode:multiply" opacity="0.28" d="M155.782 188.381C155.782 188.381 158.442 160.741 176.782 149.601C174.042 150.521 170.602 150.601 168.922 146.091C165.922 138.091 174.462 122.091 184.392 117.631C176.502 121.021 168.962 127.681 163.392 140.111C163.392 140.111 168.472 124.931 159.152 115.111C160.602 117.111 161.952 121.111 159.852 128.561C156.302 141.161 148.182 153.171 143.592 154.421C139.002 155.671 119.862 153.421 119.862 153.421L119.982 153.621C138.202 155.001 152.652 162.391 155.782 188.381Z" fill="url(#paint23_linear_10_525)"/>
<path style="mix-blend-mode:multiply" opacity="0.28" d="M163.372 140.111C163.372 140.111 154.012 152.621 155.772 188.381C155.782 188.381 165.222 147.821 163.372 140.111Z" fill="url(#paint24_linear_10_525)"/>
<path style="mix-blend-mode:screen" d="M122.982 141.341C140.622 144.521 150.132 144.121 155.462 139.801C157.258 136.199 158.721 132.44 159.832 128.571C161.932 121.141 160.582 117.151 159.132 115.121C157.663 113.601 155.979 112.307 154.132 111.281C138.242 102.281 109.762 108.121 100.522 98.9207C100.532 98.9207 90.222 135.431 122.982 141.341Z" fill="url(#paint25_linear_10_525)"/>
<path style="mix-blend-mode:screen" d="M184.372 117.631C176.632 121.141 169.752 131.571 168.502 139.811C168.652 143.591 170.292 150.531 181.112 146.101C195.352 140.271 259.112 133.191 221.632 116.421C219.394 116.422 217.16 116.241 214.952 115.881C206.842 114.511 195.262 112.951 184.372 117.631Z" fill="url(#paint26_linear_10_525)"/>
<g style="mix-blend-mode:multiply" opacity="0.4">
<g style="mix-blend-mode:multiply" opacity="0.4">
<path d="M105.272 112.891C109.247 111.32 113.414 110.288 117.662 109.821L110.902 113.271C109.712 113.871 111.022 114.101 111.522 113.961L117.732 112.221C118.637 111.899 119.562 111.639 120.502 111.441C121.352 111.331 122.312 111.601 121.132 112.581C120.574 113.023 119.94 113.362 119.262 113.581C118.532 113.841 118.332 114.361 118.852 114.451C120.66 114.746 122.496 114.826 124.322 114.691L122.322 115.841C121.992 116.031 121.712 116.291 121.872 116.481C123.062 117.901 126.292 116.971 128.872 116.481L137.052 114.891C134.385 116.224 131.735 117.454 129.102 118.581C127.589 118.752 126.156 119.353 124.972 120.311C124.032 121.091 125.602 120.971 126.072 120.791C127.142 120.371 128.222 119.931 129.292 119.481C129.812 119.421 130.292 119.401 130.782 119.331C132.002 119.181 133.242 118.951 134.512 118.681C135.242 118.531 135.982 118.351 136.732 118.151L131.442 120.721C130.272 121.291 131.552 121.571 132.062 121.411C134.454 120.669 136.888 120.071 139.352 119.621C139.095 119.875 138.854 120.145 138.632 120.431C138.232 120.971 138.982 120.951 139.342 120.921L144.812 120.431C146.712 120.261 149.172 119.761 150.642 120.251C152.282 120.801 151.982 122.871 153.342 123.551C152.912 123.841 152.762 124.201 153.472 124.241C154.366 124.279 155.239 123.962 155.902 123.361C156.452 122.891 156.032 122.691 155.622 122.711C154.112 122.801 154.242 120.981 153.692 120.191C153.334 119.792 152.889 119.482 152.391 119.284C151.893 119.086 151.356 119.006 150.822 119.051C147.549 119.07 144.281 119.317 141.042 119.791C141.341 119.473 141.677 119.191 142.042 118.951C142.862 118.421 141.792 118.291 141.502 118.331C139.872 118.571 138.222 118.881 136.502 119.331L143.142 116.101C144.422 115.481 142.812 115.291 142.252 115.491C139.018 116.727 135.668 117.635 132.252 118.201C135.062 116.941 137.872 115.591 140.682 114.111C141.682 113.591 140.842 113.261 140.342 113.361L131.922 115.001L127.922 115.781C126.552 116.051 124.922 116.491 124.122 115.971L127.002 114.301C128.002 113.721 127.172 113.481 126.662 113.551C124.951 113.774 123.22 113.804 121.502 113.641C122.415 113.255 123.204 112.625 123.782 111.821C124.432 110.821 123.782 110.331 122.952 110.241C121.493 110.27 120.05 110.544 118.682 111.051L115.782 111.821L120.542 109.391C121.372 108.971 120.922 108.601 120.472 108.621C115.026 108.938 109.665 110.123 104.592 112.131C103.172 112.731 104.412 113.221 105.272 112.891ZM154.472 123.161H154.382V123.091L154.472 123.161Z" fill="#A9402E"/>
</g>
<g style="mix-blend-mode:multiply" opacity="0.4">
<path d="M97.172 119.821C100.206 118.806 103.366 118.22 106.562 118.081C107.055 118.081 107.545 118.031 108.032 117.931C106.722 118.641 105.422 119.381 104.122 120.171C103.202 120.721 104.722 120.731 104.982 120.661C106.551 120.146 108.251 120.203 109.782 120.821C107.692 121.916 105.485 122.772 103.202 123.371C101.982 123.681 102.072 124.371 103.062 124.221L103.342 124.161C107.152 123.441 110.992 122.601 114.872 121.701C113.062 123.031 111.272 124.411 109.402 125.701L107.492 126.081C106.402 126.311 99.682 127.281 99.892 129.561C100.052 131.341 105.532 128.991 107.252 128.111C108.282 127.589 109.284 127.011 110.252 126.381C111.682 126.121 113.102 125.881 114.502 125.691C114.842 125.691 115.812 125.601 116.912 125.461L114.282 127.401C113.432 128.031 114.792 128.001 115.142 127.901C116.411 127.514 117.719 127.272 119.042 127.181C118.493 127.603 117.969 128.057 117.472 128.541C117.082 128.931 117.722 129.011 117.942 129.001C119.909 128.779 121.831 128.26 123.642 127.461C124.677 126.95 125.768 126.561 126.892 126.301C127.822 125.951 128.012 126.301 127.472 127.301L126.972 127.591C126.456 127.936 125.965 128.317 125.502 128.731C124.962 129.301 126.212 129.191 126.502 129.101C133.502 127.031 137.252 130.451 142.352 131.341L142.262 131.411C141.262 131.741 140.962 132.481 142.142 132.241C143.109 132.127 144.001 131.665 144.652 130.941C144.932 130.641 144.652 130.531 144.422 130.501C138.932 129.821 135.242 126.601 128.542 127.801C129.462 127.201 130.472 126.611 130.542 125.801C130.612 124.991 129.202 125.091 128.392 125.171C125.792 125.411 122.692 127.231 120.042 127.821C120.475 127.425 120.932 127.058 121.412 126.721C122.062 126.271 121.412 126.151 121.102 126.141C119.809 126.131 118.519 126.255 117.252 126.511L119.442 124.901C120.442 124.571 121.272 124.071 121.372 123.301C121.442 122.821 119.992 123.141 119.532 123.481L118.532 124.251C117.772 124.398 117.004 124.501 116.232 124.561C115.282 124.681 114.332 124.811 113.362 124.961L111.982 125.201C112.192 125.051 112.412 124.911 112.622 124.751C113.682 123.991 114.722 123.201 115.772 122.421L117.042 121.481L117.632 121.051L118.892 120.761C119.122 120.701 119.742 120.501 119.892 120.201C120.182 119.481 119.332 119.491 118.662 119.611C117.945 119.752 117.265 120.038 116.662 120.451C114.102 121.071 111.555 121.647 109.022 122.181C109.942 121.771 110.872 121.331 111.802 120.821C112.052 120.681 112.442 120.381 112.212 120.241C110.735 119.468 109.051 119.184 107.402 119.431C109.232 118.381 111.072 117.381 112.932 116.491C114.162 115.881 112.432 115.741 111.762 116.061C108.932 117.461 106.612 117.121 104.182 117.391C101.566 117.717 98.9936 118.331 96.512 119.221C95.042 119.691 96.382 120.101 97.172 119.821ZM102.632 128.591C102.342 128.121 102.632 128.081 103.372 127.791C103.905 127.614 104.449 127.477 105.002 127.381C105.852 127.181 106.702 127.001 107.542 126.831C105.682 127.961 103.082 129.341 102.632 128.601V128.591Z" fill="#A9402E"/>
</g>
<g style="mix-blend-mode:multiply" opacity="0.4">
<path d="M80.042 133.011C82.3047 131.979 84.691 131.242 87.1419 130.821C87.6474 130.687 88.1693 130.627 88.6919 130.641C89.0319 130.931 88.0219 131.861 87.6919 132.161C86.9067 132.732 86.2006 133.404 85.592 134.161C85.332 134.511 85.432 134.771 85.722 134.831C87.0387 135.088 88.3822 135.182 89.722 135.111C88.9545 135.731 88.2264 136.399 87.542 137.111C86.872 137.781 88.0019 137.861 88.4419 137.721C93.4419 136.101 98.4419 134.591 103.442 133.131C100.852 134.911 98.2619 136.691 95.6319 138.371C94.2986 138.564 92.9653 138.794 91.6319 139.061C89.1729 139.444 86.7601 140.081 84.432 140.961C82.902 141.621 81.532 142.961 82.232 143.801C83.642 145.571 89.232 143.311 92.232 141.721C93.512 141.051 94.772 140.311 96.042 139.541C97.102 139.401 98.152 139.291 99.172 139.211C100.192 139.131 101.172 139.211 102.392 139.211C101.525 139.806 100.691 140.447 99.8919 141.131C99.0119 141.911 100.032 142.071 100.622 141.921C102.352 141.491 104.082 141.011 105.842 140.501C107.282 140.071 107.072 138.971 105.842 139.321C104.972 139.571 104.122 139.791 103.272 140.021C103.832 139.621 104.412 139.251 105.002 138.911C106.041 138.66 107.002 138.159 107.802 137.451C108.802 136.571 107.462 136.451 106.802 136.771C106.142 137.091 105.452 137.381 104.802 137.771C104.099 137.815 103.395 137.815 102.692 137.771C101.532 137.771 100.352 137.861 99.152 137.971L98.3319 138.061C101.332 136.061 104.332 133.931 107.272 131.941C108.412 131.171 107.532 130.781 106.772 131.001C101.492 132.501 96.192 134.121 90.862 135.811C91.382 135.371 91.9319 134.951 92.5119 134.551C93.3719 133.941 92.5119 133.641 92.0719 133.701C90.7086 133.891 89.3253 133.891 87.962 133.701C88.962 132.701 90.3219 131.951 90.8919 130.811C91.4619 129.671 90.8019 129.401 89.8919 129.371C87.0219 129.261 82.9619 130.631 79.5719 132.111C78.0419 132.681 78.962 133.481 80.042 133.011ZM88.7019 142.071C87.7663 142.46 86.7852 142.728 85.782 142.871C85.002 142.961 84.5419 143.161 85.0219 142.311C85.5019 141.461 85.8019 141.581 86.6919 141.311C88.8119 140.741 90.9019 140.311 92.9419 139.911C91.5858 140.738 90.1683 141.46 88.7019 142.071Z" fill="#A9402E"/>
</g>
<g style="mix-blend-mode:multiply" opacity="0.4">
<path d="M141.722 140.531C139.839 142.394 137.502 143.731 134.942 144.411C133.874 144.707 132.734 144.596 131.742 144.101C131.092 143.731 130.742 143.101 129.982 142.801H129.912C132.283 140.982 134.503 138.975 136.552 136.801C137.092 136.231 135.112 136.621 134.782 136.801C130.955 139.141 126.88 141.049 122.632 142.491C124.402 140.991 126.232 139.561 128.152 138.221C128.722 137.811 126.932 138.021 126.802 138.061C123.555 138.981 120.272 140.054 116.952 141.281C118.952 139.631 121.052 138.031 123.192 136.511C123.722 136.131 121.872 136.321 121.612 136.441C118.685 137.775 115.679 138.93 112.612 139.901L110.612 140.471C109.875 140.759 109.106 140.957 108.322 141.061C107.402 140.641 109.952 139.251 110.642 138.541C111.092 138.081 109.202 138.171 108.732 138.661C107.972 139.441 105.312 140.841 105.902 141.721C106.352 142.371 108.542 141.641 109.522 141.391C112.723 140.579 115.866 139.557 118.932 138.331C117.052 139.731 115.192 141.171 113.382 142.681C112.792 143.181 114.762 142.831 114.962 142.751C118.295 141.417 121.605 140.257 124.892 139.271C123.072 140.611 121.322 142.011 119.632 143.501C119.072 144.001 120.812 143.701 120.982 143.661C124.923 142.535 128.74 141.01 132.372 139.111C131.066 140.356 129.698 141.534 128.272 142.641C125.422 142.871 121.942 145.461 119.772 148.201C119.372 148.691 121.372 148.201 121.612 148.081C123.999 146.826 126.292 145.399 128.472 143.811C128.872 144.031 129.212 144.371 129.622 144.631C130.783 145.247 132.115 145.465 133.412 145.251C137.236 144.779 140.804 143.081 143.582 140.411C144.072 139.991 142.232 140.041 141.722 140.531ZM126.862 143.741C125.862 144.501 124.752 145.221 123.672 145.911C124.259 145.327 124.906 144.808 125.602 144.361C125.993 144.099 126.417 143.891 126.862 143.741Z" fill="#A9402E"/>
</g>
</g>
<g style="mix-blend-mode:multiply" opacity="0.4">
<path d="M243.782 123.361C242.705 123.497 241.611 123.398 240.575 123.072C239.539 122.746 238.587 122.2 237.782 121.471C237.452 121.121 236.292 121.401 236.072 121.471L229.212 124.471L228.562 124.741C228.032 124.204 227.463 123.706 226.862 123.251C225.702 122.365 224.497 121.541 223.252 120.781C222.942 120.508 222.58 120.3 222.189 120.17C221.797 120.039 221.383 119.989 220.972 120.021C219.362 120.071 217.802 120.631 218.272 121.651C218.744 122.313 219.364 122.857 220.082 123.241C218.686 122.792 217.237 122.529 215.772 122.461C213.672 122.371 210.462 122.721 211.232 124.171C211.342 124.381 212.102 125.171 210.902 124.931C210.562 124.871 210.252 124.321 210.182 124.191C209.982 123.831 209.942 123.481 209.742 123.121C209.467 122.725 209.101 122.401 208.675 122.176C208.248 121.951 207.774 121.833 207.292 121.831C205.152 121.685 203.024 122.244 201.232 123.421C200.79 123.145 200.389 122.809 200.042 122.421C199.842 122.211 199.102 122.271 198.902 122.291L193.832 122.921C193.012 123.021 192.182 123.181 191.312 123.221C190.092 123.281 188.052 122.921 188.222 122.041C188.292 121.661 186.542 121.941 186.392 122.041C185.942 122.431 185.452 122.801 184.952 123.161C184.822 122.781 184.702 122.391 184.572 122.001C184.442 121.611 183.022 121.831 182.832 122.001L179.352 124.331C178.772 124.721 180.662 124.721 180.972 124.521L183.032 123.131C183.162 123.521 183.282 123.901 183.402 124.281C183.522 124.661 184.952 124.451 185.142 124.281C185.792 123.891 186.382 123.471 186.962 123.051C188.098 123.574 189.341 123.824 190.592 123.781C193.243 123.622 195.884 123.318 198.502 122.871C199.063 123.385 199.701 123.81 200.392 124.131C200.922 124.294 201.493 124.262 202.002 124.041C203.025 123.325 204.166 122.794 205.372 122.471C207.532 122.011 207.832 123.121 208.222 124.021C208.612 124.921 209.812 125.691 211.622 125.591C212.213 125.602 212.794 125.438 213.292 125.121C213.822 124.641 212.892 124.121 212.932 123.581C213.022 122.511 216.202 122.931 217.752 123.321C219.173 123.653 220.526 124.228 221.752 125.021C222.242 125.351 223.572 125.161 223.582 124.861C223.582 124.171 222.772 123.571 221.852 122.931C221.312 122.551 218.582 120.401 220.742 120.671C221.7 120.993 222.587 121.499 223.352 122.161C224.102 122.671 224.832 123.161 225.492 123.731C226.071 124.193 226.613 124.702 227.112 125.251C226.002 125.711 224.982 126.251 224.732 127.021C224.402 128.021 225.732 129.401 228.052 129.521C230.182 129.631 230.572 128.671 230.412 127.671C230.212 126.789 229.785 125.975 229.172 125.311L236.562 122.121C238.981 123.714 241.931 124.289 244.772 123.721C245.782 123.501 244.462 123.181 243.782 123.361ZM228.342 127.191C228.492 127.601 228.772 128.191 228.512 128.551C227.912 129.331 226.762 128.171 226.582 127.701C226.282 126.951 226.872 126.441 227.662 126.021C227.919 126.383 228.13 126.776 228.292 127.191H228.342Z" fill="#A9402E"/>
</g>
<g style="mix-blend-mode:multiply" opacity="0.4">
<path d="M197.782 128.621C198.312 128.281 196.992 128.061 196.542 128.101C195.961 128.087 195.396 128.295 194.962 128.681C193.88 128.9 192.764 128.9 191.682 128.681C190.182 128.381 189.152 127.681 187.682 127.321C184.842 126.651 183.232 127.741 182.392 128.731C181.962 129.251 183.862 129.431 184.162 129.071C184.464 128.598 184.919 128.245 185.452 128.071C186.265 127.924 187.103 128.032 187.852 128.381C188.042 128.451 188.262 128.561 188.442 128.641C189.591 129.093 190.795 129.392 192.022 129.531C192.939 129.63 193.865 129.63 194.782 129.531C195.052 130.471 196.522 131.601 198.392 132.111C198.883 132.295 199.415 132.337 199.929 132.231C200.442 132.124 200.915 131.875 201.292 131.511C201.652 131.161 201.982 130.811 202.292 130.451C202.93 130.924 203.707 131.174 204.502 131.161C205.767 131.19 207.026 130.98 208.212 130.541C209.09 130.272 209.94 129.92 210.752 129.491C211.586 130.077 212.517 130.514 213.502 130.781C213.502 131.091 214.282 131.171 214.502 131.181H216.272C217.112 131.181 217.532 130.511 216.322 130.441C216.057 130.429 215.793 130.403 215.532 130.361C215.808 130.119 216.165 129.991 216.532 130.001C217.692 129.911 216.962 129.201 215.822 129.291C215.131 129.3 214.46 129.524 213.902 129.931C213.088 129.644 212.351 129.171 211.752 128.551C211.372 128.101 210.232 128.321 209.972 128.491C208.788 129.244 207.487 129.795 206.122 130.121C205.779 130.239 205.423 130.316 205.062 130.351C204.775 130.36 204.491 130.294 204.239 130.159C203.986 130.024 203.773 129.824 203.622 129.581C203.53 129.346 203.53 129.085 203.622 128.851C203.802 128.611 204.012 128.391 204.192 128.161C204.622 127.601 202.812 127.531 202.422 127.821C202.199 127.987 202.018 128.203 201.892 128.451C201.245 129.255 200.554 130.023 199.822 130.751C199.742 130.821 199.382 131.371 199.182 131.361C198.761 131.222 198.36 131.027 197.992 130.781C197.422 130.441 196.352 129.621 196.432 129.141C196.904 129.032 197.359 128.856 197.782 128.621Z" fill="#A9402E"/>
</g>
<g style="mix-blend-mode:multiply" opacity="0.4">
<path d="M226.142 132.821C226.521 132.914 226.915 132.93 227.3 132.866C227.685 132.803 228.053 132.661 228.382 132.451C228.632 132.241 228.682 131.741 229.092 131.621C229.832 131.391 230.442 132.161 230.942 132.421C232.872 133.421 235.432 132.991 236.942 132.691C239.682 132.151 242.302 131.24 245.942 131.79C246.632 131.9 248.002 131.411 246.812 131.231C244.313 130.87 241.77 130.958 239.302 131.491C238.042 131.741 236.862 132.051 235.582 132.281C234.926 132.426 234.25 132.459 233.582 132.381C232.93 132.264 232.322 131.974 231.822 131.54C231.138 131.1 230.341 130.866 229.527 130.866C228.713 130.866 227.916 131.1 227.232 131.54C227.06 131.743 226.906 131.961 226.772 132.191C226.682 132.191 225.482 131.791 225.132 131.681C223.79 131.32 222.526 130.717 221.402 129.901C220.922 129.501 219.162 129.761 219.602 130.131C221.559 131.494 223.792 132.413 226.142 132.821Z" fill="#A9402E"/>
</g>
<g style="mix-blend-mode:multiply" opacity="0.4">
<path d="M249.782 135.271C247.729 135.514 245.715 136.008 243.782 136.741C243.147 136.99 242.579 137.384 242.122 137.891C242.064 137.974 242.01 138.061 241.962 138.151C240.462 138.051 238.962 137.891 237.402 137.661C236.413 137.6 235.457 137.279 234.632 136.731C234.302 136.387 233.877 136.151 233.412 136.051C232.248 135.934 231.073 136.025 229.942 136.321C228.86 136.482 227.766 136.559 226.672 136.551C225.876 136.615 225.078 136.463 224.362 136.111C224.062 135.881 224.302 135.721 224.122 135.661L224.562 135.491C225.062 135.271 224.162 135.211 223.852 135.221C223.343 135.22 222.844 135.362 222.412 135.631C220.475 136.244 218.43 136.442 216.412 136.211C214.462 136.041 211.822 135.591 210.742 134.401C210.492 134.131 208.922 134.401 208.932 134.581C208.932 137.051 203.262 135.351 200.372 135.701C200.081 135.709 199.796 135.785 199.54 135.922C199.283 136.059 199.061 136.254 198.892 136.491C197.892 137.431 195.712 135.961 194.582 135.191C193.999 135 193.364 135.043 192.812 135.311L191.432 136.711C190.771 136.182 190.255 135.494 189.932 134.711C189.862 134.481 188.532 134.711 188.422 134.711L185.202 135.711C184.202 136.021 186.012 136.061 186.432 135.921L188.332 135.301C188.865 136.268 189.636 137.084 190.572 137.671C191.156 137.856 191.788 137.813 192.342 137.551L193.792 136.071C195.052 136.886 196.512 137.339 198.012 137.381C198.631 137.392 199.248 137.308 199.842 137.131C200.062 137.07 200.269 136.968 200.452 136.831C200.642 136.671 200.592 136.201 200.862 136.111C201.593 136.114 202.322 136.181 203.042 136.311C203.762 136.371 204.472 136.421 205.172 136.431C206.068 136.459 206.965 136.409 207.852 136.281C208.677 136.2 209.472 135.926 210.172 135.481C212.255 136.288 214.468 136.705 216.702 136.711C218.616 136.794 220.533 136.623 222.402 136.201C222.541 136.344 222.703 136.462 222.882 136.551C224.472 137.371 227.542 136.981 228.882 136.861C229.682 136.791 231.712 136.221 232.582 136.711C233.452 137.201 233.242 137.461 234.462 137.771C236.854 138.3 239.292 138.595 241.742 138.651C241.738 138.68 241.738 138.711 241.742 138.741C241.742 138.841 241.742 139.091 241.742 139.321L240.742 140.031C240.392 140.271 241.672 140.231 241.802 140.211C242.742 140.091 243.132 139.791 243.342 139.421L244.682 138.491C244.842 138.381 244.532 138.291 244.312 138.281H243.772C243.827 138.117 243.912 137.964 244.022 137.831C244.932 136.701 247.142 136.191 249.332 135.831C250.002 136.591 250.062 137.291 249.332 137.831C249.032 138.061 250.832 138.011 251.072 137.831C251.922 137.181 251.892 136.321 250.922 135.381C250.702 135.171 249.952 135.251 249.782 135.271Z" fill="#A9402E"/>
</g>
<path style="mix-blend-mode:multiply" opacity="0.56" d="M108.512 220.291C108.512 220.291 124.662 213.291 118.082 213.151C111.502 213.011 108.512 220.291 108.512 220.291Z" fill="url(#paint27_linear_10_525)"/>
<path d="M112.152 191.23C112.152 191.23 120.352 210.23 117.552 213.82C114.752 217.41 101.702 222.961 103.262 227.461C104.822 231.961 112.812 232.73 97.0021 244.06C81.1921 255.39 69.2921 260.67 69.2921 260.67L66.4021 256.73C66.4021 256.73 100.402 239.84 101.062 234.56C101.722 229.28 93.0621 226.721 102.182 220.901C111.302 215.081 110.392 211.381 108.832 206.901C107.272 202.421 102.782 193.06 102.782 193.06L112.152 191.23Z" fill="#005B54"/>
<g style="mix-blend-mode:multiply" opacity="0.24">
<path d="M105.062 234.391C106.962 234.781 89.7519 250.031 73.6619 258.521C81.7694 254.25 89.5684 249.419 97.0018 244.06C112.812 232.73 104.832 231.961 103.262 227.461C102.882 226.351 103.392 225.171 104.422 223.971C104.422 223.971 96.6819 231.19 99.0519 223.5C95.6719 227.62 101.642 230.14 101.052 234.56C100.672 235.687 99.9522 236.669 98.9919 237.37C98.9919 237.37 103.012 233.961 105.062 234.391Z" fill="#006FB3"/>
</g>
<g style="mix-blend-mode:multiply" opacity="0.24">
<path d="M113.452 213.961C117.552 213.821 108.932 220.18 108.932 220.18C112.302 217.83 116.172 215.59 117.552 213.82C120.352 210.22 112.152 191.23 112.152 191.23L102.752 193.06C102.752 193.06 107.272 202.38 108.832 206.88C109.902 209.98 110.652 212.69 108.062 215.98C108.432 215.55 109.942 214.081 113.452 213.961Z" fill="#006FB3"/>
</g>
<defs>
<radialGradient id="paint0_radial_10_525" cx="0" cy="0" r="1" gradientUnits="userSpaceOnUse" gradientTransform="translate(161.578 135.414) rotate(-13.43) scale(137.988 90.8421)">
<stop stop-color="#FFFF00"/>
<stop offset="0.06" stop-color="#EAEA00"/>
<stop offset="0.26" stop-color="#A4A400"/>
<stop offset="0.45" stop-color="#696900"/>
<stop offset="0.63" stop-color="#3C3C00"/>
<stop offset="0.78" stop-color="#1B1B00"/>
<stop offset="0.91" stop-color="#070700"/>
<stop offset="1"/>
</radialGradient>
<linearGradient id="paint1_linear_10_525" x1="196.478" y1="100.643" x2="185.156" y2="112.397" gradientUnits="userSpaceOnUse">
<stop stop-color="#4ACF6D"/>
<stop offset="0.66" stop-color="#16A166"/>
<stop offset="1" stop-color="#008D63"/>
</linearGradient>
<linearGradient id="paint2_linear_10_525" x1="213.069" y1="91.6412" x2="218.103" y2="95.8474" gradientUnits="userSpaceOnUse">
<stop stop-color="#008D63"/>
<stop offset="0.34" stop-color="#16A166"/>
<stop offset="1" stop-color="#4ACF6D"/>
</linearGradient>
<linearGradient id="paint3_linear_10_525" x1="224.793" y1="68.1513" x2="209.853" y2="70.9687" gradientUnits="userSpaceOnUse">
<stop stop-color="#CE7AEA"/>
<stop offset="0.23" stop-color="#B36CDE"/>
<stop offset="0.75" stop-color="#7B50C5"/>
<stop offset="1" stop-color="#6545BB"/>
</linearGradient>
<linearGradient id="paint4_linear_10_525" x1="224.779" y1="68.1539" x2="209.853" y2="70.9687" gradientUnits="userSpaceOnUse">
<stop stop-color="white"/>
<stop offset="0.89" stop-color="#6D2EAE"/>
</linearGradient>
<linearGradient id="paint5_linear_10_525" x1="197.202" y1="105.383" x2="199.881" y2="105.459" gradientUnits="userSpaceOnUse">
<stop stop-color="#008D63"/>
<stop offset="0.34" stop-color="#16A166"/>
<stop offset="1" stop-color="#4ACF6D"/>
</linearGradient>
<linearGradient id="paint6_linear_10_525" x1="200.921" y1="75.6166" x2="189.797" y2="86.1244" gradientUnits="userSpaceOnUse">
<stop stop-color="#CE7AEA"/>
<stop offset="0.23" stop-color="#B36CDE"/>
<stop offset="0.75" stop-color="#7B50C5"/>
<stop offset="1" stop-color="#6545BB"/>
</linearGradient>
<linearGradient id="paint7_linear_10_525" x1="200.921" y1="75.6168" x2="189.787" y2="86.1243" gradientUnits="userSpaceOnUse">
<stop stop-color="white"/>
<stop offset="0.89" stop-color="#6D2EAE"/>
</linearGradient>
<linearGradient id="paint8_linear_10_525" x1="31.018" y1="203.432" x2="16.2688" y2="123.131" gradientUnits="userSpaceOnUse">
<stop stop-color="#008D63"/>
<stop offset="0.34" stop-color="#16A166"/>
<stop offset="1" stop-color="#4ACF6D"/>
</linearGradient>
<linearGradient id="paint9_linear_10_525" x1="40.8778" y1="124.74" x2="15.772" y2="161.131" gradientUnits="userSpaceOnUse">
<stop stop-color="#FFFF52"/>
<stop offset="0.61" stop-color="#60601F"/>
<stop offset="1"/>
</linearGradient>
<linearGradient id="paint10_linear_10_525" x1="52.075" y1="87.1957" x2="7.76302" y2="151.448" gradientUnits="userSpaceOnUse">
<stop stop-color="#FFFF52"/>
<stop offset="0.61" stop-color="#60601F"/>
<stop offset="1"/>
</linearGradient>
<linearGradient id="paint11_linear_10_525" x1="187.866" y1="86.9661" x2="98.5774" y2="-35.3407" gradientUnits="userSpaceOnUse">
<stop/>
<stop offset="1" stop-color="#FFFF00"/>
</linearGradient>
<linearGradient id="paint12_linear_10_525" x1="162.775" y1="223.518" x2="149.775" y2="169.078" gradientUnits="userSpaceOnUse">
<stop offset="0.2" stop-color="#5B1ABB"/>
<stop offset="0.39" stop-color="#712CC4"/>
<stop offset="0.77" stop-color="#A95BDB"/>
<stop offset="1" stop-color="#CE7AEA"/>
</linearGradient>
<linearGradient id="paint13_linear_10_525" x1="162.775" y1="223.518" x2="149.741" y2="168.932" gradientUnits="userSpaceOnUse">
<stop offset="0.11" stop-color="#372A60"/>
<stop offset="0.28" stop-color="#392B65"/>
<stop offset="0.48" stop-color="#413073"/>
<stop offset="0.69" stop-color="#4C378A"/>
<stop offset="0.91" stop-color="#5D40AB"/>
<stop offset="1" stop-color="#6545BB"/>
</linearGradient>
<linearGradient id="paint14_linear_10_525" x1="161.163" y1="216.51" x2="150.259" y2="170.844" gradientUnits="userSpaceOnUse">
<stop offset="0.11" stop-color="#6D2EAE"/>
<stop offset="1" stop-color="white"/>
</linearGradient>
<linearGradient id="paint15_linear_10_525" x1="184.168" y1="201.723" x2="177.123" y2="172.222" gradientUnits="userSpaceOnUse">
<stop offset="0.11" stop-color="#6D2EAE"/>
<stop offset="1" stop-color="white"/>
</linearGradient>
<linearGradient id="paint16_linear_10_525" x1="156.231" y1="199.686" x2="125.12" y2="69.3989" gradientUnits="userSpaceOnUse">
<stop stop-color="#FF8890"/>
<stop offset="0.19" stop-color="#FF8C92"/>
<stop offset="0.37" stop-color="#FE9796"/>
<stop offset="0.55" stop-color="#FCAB9E"/>
<stop offset="0.73" stop-color="#F9C6A8"/>
<stop offset="0.9" stop-color="#F6E8B6"/>
<stop offset="1" stop-color="#F4FFBF"/>
</linearGradient>
<linearGradient id="paint17_linear_10_525" x1="155.959" y1="198.548" x2="140.925" y2="135.588" gradientUnits="userSpaceOnUse">
<stop stop-color="#9A402E"/>
<stop offset="0.37" stop-color="#C49086"/>
<stop offset="0.67" stop-color="#E4CCC7"/>
<stop offset="0.89" stop-color="#F8F1F0"/>
<stop offset="1" stop-color="white"/>
</linearGradient>
<linearGradient id="paint18_linear_10_525" x1="169.08" y1="196.618" x2="158.328" y2="151.594" gradientUnits="userSpaceOnUse">
<stop stop-color="white"/>
<stop offset="0.1" stop-color="#FDF5F5"/>
<stop offset="0.27" stop-color="#F9DCD9"/>
<stop offset="0.5" stop-color="#F1B2AB"/>
<stop offset="0.76" stop-color="#E7796D"/>
<stop offset="1" stop-color="#DD402E"/>
</linearGradient>
<linearGradient id="paint19_linear_10_525" x1="157.306" y1="191.533" x2="128.574" y2="71.2061" gradientUnits="userSpaceOnUse">
<stop stop-color="#FF8890"/>
<stop offset="0.37" stop-color="#FBB5A2"/>
<stop offset="1" stop-color="#F4FFBF"/>
</linearGradient>
<linearGradient id="paint20_linear_10_525" x1="160.005" y1="181.738" x2="150.074" y2="140.148" gradientUnits="userSpaceOnUse">
<stop stop-color="white"/>
<stop offset="0.05" stop-color="#FDF2F1"/>
<stop offset="0.31" stop-color="#F2B4AC"/>
<stop offset="0.54" stop-color="#E98276"/>
<stop offset="0.74" stop-color="#E25E4F"/>
<stop offset="0.9" stop-color="#DE4837"/>
<stop offset="1" stop-color="#DD402E"/>
</linearGradient>
<linearGradient id="paint21_linear_10_525" x1="168.15" y1="187.772" x2="131.019" y2="32.2737" gradientUnits="userSpaceOnUse">
<stop stop-color="#FF8890"/>
<stop offset="0.02" stop-color="#FE8E93"/>
<stop offset="0.14" stop-color="#FBB1A0"/>
<stop offset="0.28" stop-color="#F9CDAB"/>
<stop offset="0.42" stop-color="#F7E3B4"/>
<stop offset="0.57" stop-color="#F5F3BA"/>
<stop offset="0.75" stop-color="#F4FCBE"/>
<stop offset="1" stop-color="#F4FFBF"/>
</linearGradient>
<linearGradient id="paint22_linear_10_525" x1="168.15" y1="187.772" x2="131.019" y2="32.2737" gradientUnits="userSpaceOnUse">
<stop stop-color="#FF8890"/>
<stop offset="0.02" stop-color="#FE8E93"/>
<stop offset="0.14" stop-color="#FBB1A0"/>
<stop offset="0.28" stop-color="#F9CDAB"/>
<stop offset="0.42" stop-color="#F7E3B4"/>
<stop offset="0.57" stop-color="#F5F3BA"/>
<stop offset="0.75" stop-color="#F4FCBE"/>
<stop offset="1" stop-color="#F4FFBF"/>
</linearGradient>
<linearGradient id="paint23_linear_10_525" x1="144.071" y1="183.035" x2="155.781" y2="113.545" gradientUnits="userSpaceOnUse">
<stop stop-color="white"/>
<stop offset="0.1" stop-color="#FEF9F8"/>
<stop offset="0.25" stop-color="#FBE8E6"/>
<stop offset="0.42" stop-color="#F6CCC7"/>
<stop offset="0.61" stop-color="#EFA59D"/>
<stop offset="0.81" stop-color="#E67467"/>
<stop offset="1" stop-color="#DD402E"/>
</linearGradient>
<linearGradient id="paint24_linear_10_525" x1="160.999" y1="140.305" x2="156.684" y2="196.031" gradientUnits="userSpaceOnUse">
<stop stop-color="#DD402E"/>
<stop offset="0.19" stop-color="#E67467"/>
<stop offset="0.39" stop-color="#EFA59D"/>
<stop offset="0.58" stop-color="#F6CCC7"/>
<stop offset="0.75" stop-color="#FBE8E6"/>
<stop offset="0.9" stop-color="#FEF9F8"/>
<stop offset="1" stop-color="white"/>
</linearGradient>
<linearGradient id="paint25_linear_10_525" x1="137.654" y1="150.65" x2="119.807" y2="75.9109" gradientUnits="userSpaceOnUse">
<stop/>
<stop offset="0.39" stop-color="#60601F"/>
<stop offset="1" stop-color="#FFFF52"/>
</linearGradient>
<linearGradient id="paint26_linear_10_525" x1="204.83" y1="150.174" x2="184.768" y2="66.1565" gradientUnits="userSpaceOnUse">
<stop/>
<stop offset="0.39" stop-color="#60601F"/>
<stop offset="1" stop-color="#FFFF52"/>
</linearGradient>
<linearGradient id="paint27_linear_10_525" x1="107.884" y1="217.923" x2="131.189" y2="212.359" gradientUnits="userSpaceOnUse">
<stop stop-color="white"/>
<stop offset="0.11" stop-color="#E0D3EE"/>
<stop offset="0.25" stop-color="#BDA1DB"/>
<stop offset="0.39" stop-color="#A078CB"/>
<stop offset="0.53" stop-color="#8A58BE"/>
<stop offset="0.66" stop-color="#7A41B5"/>
<stop offset="0.78" stop-color="#7033B0"/>
<stop offset="0.89" stop-color="#6D2EAE"/>
</linearGradient>
</defs>
</svg>
